millimetreA light hebrew 01.ufo
<glyph name="quotedbl" format="1">
  <advance width="200"/>
  <unicode hex="0022"/>
  <outline>
    <contour>
      <point x="30" y="630" type="line"/>
      <point x="45" y="500" type="line"/>
      <point x="80" y="500" type="line"/>
      <point x="80" y="700" type="line"/>
      <point x="30" y="700" type="line"/>
    </contour>
    <contour>
      <point x="120" y="500" type="line"/>
      <point x="155" y="500" type="line"/>
      <point x="170" y="630" type="line"/>
      <point x="170" y="700" type="line"/>
      <point x="120" y="700" type="line"/>
    </contour>
  </outline>
</glyph>
<glyph name="percent" format="1">
  <advance width="800"/>
  <unicode hex="0025"/>
  <outline>
    <contour>
      <point x="100" y="0" type="line"/>
      <point x="165" y="0" type="line"/>
      <point x="700" y="700" type="line"/>
      <point x="635" y="700" type="line"/>
    </contour>
    <component base="zero.sup"/>
    <component base="zero.sup" xOffset="400" yOffset="-400"/>
  </outline>
</glyph>
<glyph name="ampersand" format="1">
  <advance width="800"/>
  <unicode hex="0026"/>
  <outline>
    <contour>
      <point x="725" y="350" type="line"/>
      <point x="725" y="450" type="line"/>
      <point x="675" y="450" type="line"/>
      <point x="675" y="350" type="line"/>
    </contour>
    <contour>
      <point x="675" y="350" type="line"/>
      <point x="675.0" y="145.0"/>
      <point x="590" y="40"/>
      <point x="350" y="40" type="curve"/>
      <point x="195.0" y="40.0"/>
      <point x="115.0" y="87.4358974359"/>
      <point x="115" y="225" type="curve" smooth="yes"/>
      <point x="115.0" y="346.571428571"/>
      <point x="199.990825549" y="404.999713298"/>
      <point x="360" y="410" type="curve"/>
      <point x="360.0" y="410.0"/>
      <point x="325.0" y="450.0"/>
      <point x="325" y="450" type="curve"/>
      <point x="172.05004399" y="444.901668133"/>
      <point x="65.0" y="371.511627907"/>
      <point x="65" y="225" type="curve"/>
      <point x="65.0" y="61.9387755102"/>
      <point x="170.0" y="-10.0"/>
      <point x="350" y="-10" type="curve"/>
      <point x="620" y="-10"/>
      <point x="725.0" y="130.0"/>
      <point x="725" y="350" type="curve"/>
    </contour>
    <contour>
      <point x="330" y="425" type="curve" smooth="yes"/>
      <point x="695" y="0" type="line"/>
      <point x="750" y="0" type="line"/>
      <point x="750" y="15" type="line"/>
      <point x="380" y="445" type="line" smooth="yes"/>
      <point x="348.250859745" y="481.897649485"/>
      <point x="325.0" y="525.0"/>
      <point x="325" y="570" type="curve" smooth="yes"/>
      <point x="325" y="640"/>
      <point x="355.0" y="660.0"/>
      <point x="400" y="660" type="curve"/>
      <point x="445.0" y="660.0"/>
      <point x="475" y="640"/>
      <point x="475" y="570" type="curve"/>
      <point x="475.0" y="517.2"/>
      <point x="440" y="455"/>
      <point x="350" y="450" type="curve"/>
      <point x="390" y="415" type="line"/>
      <point x="485" y="435"/>
      <point x="525" y="500"/>
      <point x="525" y="570" type="curve"/>
      <point x="525" y="665"/>
      <point x="475.0" y="710.0"/>
      <point x="400" y="710" type="curve"/>
      <point x="330" y="710"/>
      <point x="275" y="660"/>
      <point x="275" y="570" type="curve"/>
      <point x="275.0" y="520.0"/>
      <point x="295.37091439" y="465.321538039"/>
    </contour>
  </outline>
</glyph>
<glyph name="parenleft" format="1">
  <advance width="200"/>
  <unicode hex="0028"/>
  <outline>
    <contour>
      <point x="75" y="560" type="curve"/>
      <point x="75" y="-60" type="line"/>
      <point x="75" y="-160"/>
      <point x="125" y="-200"/>
      <point x="200" y="-200" type="curve"/>
      <point x="200" y="-150" type="line"/>
      <point x="155.0" y="-150.0"/>
      <point x="125" y="-132.0"/>
      <point x="125" y="-60" type="curve" smooth="yes"/>
      <point x="125" y="560" type="line" smooth="yes"/>
      <point x="125" y="632.0"/>
      <point x="155.0" y="650.0"/>
      <point x="200" y="650" type="curve"/>
      <point x="200" y="700" type="line"/>
      <point x="125" y="700"/>
      <point x="75" y="660"/>
    </contour>
  </outline>
</glyph>
<glyph name="plus" format="1">
  <advance width="600"/>
  <unicode hex="002B"/>
  <outline>
    <contour>
      <point x="550" y="225" type="line"/>
      <point x="550" y="275" type="line"/>
      <point x="380" y="275" type="line"/>
      <point x="320" y="270" type="line"/>
      <point x="325" y="330" type="line"/>
      <point x="325" y="500" type="line"/>
      <point x="275" y="500" type="line"/>
      <point x="275" y="330" type="line" smooth="yes"/>
      <point x="280" y="270" type="line"/>
      <point x="220" y="275" type="line"/>
      <point x="50" y="275" type="line"/>
      <point x="50" y="225" type="line"/>
      <point x="220" y="225" type="line" smooth="yes"/>
      <point x="280" y="230" type="line"/>
      <point x="275" y="170" type="line"/>
      <point x="275" y="0" type="line"/>
      <point x="325" y="0" type="line"/>
      <point x="325" y="170" type="line"/>
      <point x="320" y="230" type="line"/>
      <point x="380" y="225" type="line"/>
    </contour>
  </outline>
</glyph>
<glyph name="two" format="1">
  <advance width="600"/>
  <unicode hex="0032"/>
  <outline>
    <contour>
      <point x="125" y="50" type="line"/>
      <point x="125" y="130" type="line" smooth="yes"/>
      <point x="125" y="340.0"/>
      <point x="525" y="265"/>
      <point x="525" y="515" type="curve" smooth="yes"/>
      <point x="525" y="645"/>
      <point x="475.0" y="700"/>
      <point x="300" y="700" type="curve" smooth="yes"/>
      <point x="270" y="700" type="line" smooth="yes"/>
      <point x="145" y="700"/>
      <point x="75.0" y="630.0"/>
      <point x="75" y="480" type="curve"/>
      <point x="75" y="425" type="line"/>
      <point x="125" y="425" type="line"/>
      <point x="125" y="460" type="line" smooth="yes"/>
      <point x="125" y="625"/>
      <point x="171.666666667" y="650.0"/>
      <point x="300" y="650" type="curve"/>
      <point x="451.666666667" y="650.0"/>
      <point x="475.0" y="600.0"/>
      <point x="475" y="520" type="curve" smooth="yes"/>
      <point x="475.0" y="307.272727273"/>
      <point x="75" y="393.823529412"/>
      <point x="75" y="130" type="curve" smooth="yes"/>
      <point x="75" y="0" type="line"/>
      <point x="525" y="0" type="line"/>
      <point x="525" y="225" type="line"/>
      <point x="475" y="225" type="line"/>
      <point x="475" y="50" type="line"/>
    </contour>
  </outline>
</glyph>
<glyph name="three" format="1">
  <advance width="600"/>
  <unicode hex="0033"/>
  <outline>
    <contour>
      <point x="525" y="550" type="curve"/>
      <point x="525" y="560" type="line"/>
      <point x="525" y="665"/>
      <point x="480" y="710"/>
      <point x="300" y="710" type="curve" smooth="yes"/>
      <point x="130" y="710"/>
      <point x="75" y="650"/>
      <point x="75" y="545" type="curve"/>
      <point x="75" y="500" type="line"/>
      <point x="125" y="500" type="line"/>
      <point x="125" y="545" type="line"/>
      <point x="125" y="615"/>
      <point x="150" y="660"/>
      <point x="300" y="660" type="curve" smooth="yes"/>
      <point x="450" y="660"/>
      <point x="475" y="640"/>
      <point x="475" y="560" type="curve" smooth="yes"/>
      <point x="475" y="550" type="line" smooth="yes"/>
      <point x="475" y="490"/>
      <point x="445" y="475"/>
      <point x="300" y="475" type="curve"/>
      <point x="300" y="425" type="line"/>
      <point x="460" y="425"/>
      <point x="525" y="465"/>
    </contour>
    <contour>
      <point x="525" y="350" type="line"/>
      <point x="525" y="435"/>
      <point x="460" y="475"/>
      <point x="300" y="475" type="curve"/>
      <point x="250" y="475" type="line"/>
      <point x="250" y="425" type="line"/>
      <point x="300" y="425" type="line"/>
      <point x="445" y="425"/>
      <point x="475" y="410"/>
      <point x="475" y="360" type="curve"/>
      <point x="475" y="240" type="line" smooth="yes"/>
      <point x="475" y="75"/>
      <point x="450" y="50"/>
      <point x="300" y="50" type="curve"/>
      <point x="300" y="0" type="line"/>
      <point x="330" y="0" type="line" smooth="yes"/>
      <point x="470" y="0"/>
      <point x="525" y="65"/>
      <point x="525" y="220" type="curve"/>
    </contour>
    <contour>
      <point x="270" y="0" type="curve" smooth="yes"/>
      <point x="300" y="0" type="line"/>
      <point x="300" y="50" type="line"/>
      <point x="160" y="50"/>
      <point x="125" y="75"/>
      <point x="125" y="240" type="curve" smooth="yes"/>
      <point x="125" y="250" type="line"/>
      <point x="75" y="250" type="line"/>
      <point x="75" y="220" type="line"/>
      <point x="75" y="65"/>
      <point x="140" y="0"/>
    </contour>
  </outline>
</glyph>
<glyph name="five" format="1">
  <advance width="600"/>
  <unicode hex="0035"/>
  <outline>
    <contour>
      <point x="525" y="290" type="line"/>
      <point x="525" y="310" type="line"/>
      <point x="525" y="440"/>
      <point x="475" y="485"/>
      <point x="300" y="485" type="curve" smooth="yes"/>
      <point x="220" y="485"/>
      <point x="160" y="480"/>
      <point x="125" y="445" type="curve"/>
      <point x="125" y="650" type="line"/>
      <point x="515" y="650" type="line"/>
      <point x="515" y="700" type="line"/>
      <point x="75" y="700" type="line"/>
      <point x="75" y="350" type="line"/>
      <point x="115" y="350" type="line"/>
      <point x="129.119916471" y="420.599582353"/>
      <point x="150.0" y="435.0"/>
      <point x="300" y="435" type="curve" smooth="yes"/>
      <point x="450.0" y="435.0"/>
      <point x="475" y="410.0"/>
      <point x="475" y="310" type="curve" smooth="yes"/>
      <point x="475" y="290" type="line"/>
    </contour>
    <contour>
      <point x="270" y="0" type="curve" smooth="yes"/>
      <point x="300" y="0" type="line"/>
      <point x="300" y="50" type="line"/>
      <point x="160" y="50"/>
      <point x="125" y="75"/>
      <point x="125" y="240" type="curve" smooth="yes"/>
      <point x="125" y="250" type="line"/>
      <point x="75" y="250" type="line"/>
      <point x="75" y="220" type="line"/>
      <point x="75" y="60"/>
      <point x="140" y="0"/>
    </contour>
    <contour>
      <point x="330" y="0" type="line" smooth="yes"/>
      <point x="460" y="0"/>
      <point x="525" y="60"/>
      <point x="525" y="220" type="curve"/>
      <point x="525" y="290" type="line"/>
      <point x="475" y="290" type="line"/>
      <point x="475" y="240" type="line" smooth="yes"/>
      <point x="475" y="75"/>
      <point x="440" y="50"/>
      <point x="300" y="50" type="curve"/>
      <point x="300" y="0" type="line"/>
    </contour>
  </outline>
</glyph>
<glyph name="six" format="1">
  <advance width="600"/>
  <unicode hex="0036"/>
  <outline>
    <contour>
      <point x="330" y="700" type="curve" smooth="yes"/>
      <point x="300" y="700" type="line"/>
      <point x="300" y="650" type="line"/>
      <point x="440.0" y="650.0"/>
      <point x="475" y="622.857142857"/>
      <point x="475" y="460" type="curve" smooth="yes"/>
      <point x="475" y="450" type="line"/>
      <point x="525" y="450" type="line"/>
      <point x="525" y="480" type="line"/>
      <point x="525" y="640"/>
      <point x="460" y="700"/>
    </contour>
    <contour>
      <point x="270" y="700" type="line" smooth="yes"/>
      <point x="140" y="700"/>
      <point x="75" y="640"/>
      <point x="75" y="480" type="curve" smooth="yes"/>
      <point x="75" y="350" type="line"/>
      <point x="125" y="350" type="line"/>
      <point x="125" y="460" type="line" smooth="yes"/>
      <point x="125" y="622.857142857"/>
      <point x="150.0" y="650.0"/>
      <point x="300" y="650" type="curve"/>
      <point x="300" y="700" type="line"/>
    </contour>
    <contour>
      <point x="270" y="0" type="curve" smooth="yes"/>
      <point x="300" y="0" type="line"/>
      <point x="300" y="50" type="line"/>
      <point x="160" y="50"/>
      <point x="125" y="85"/>
      <point x="125" y="175" type="curve" smooth="yes"/>
      <point x="125" y="350" type="line"/>
      <point x="75" y="350" type="line"/>
      <point x="75" y="170" type="line"/>
      <point x="75" y="65"/>
      <point x="130" y="0"/>
    </contour>
    <contour>
      <point x="250" y="275" type="curve" smooth="yes"/>
      <point x="360" y="275" type="line" smooth="yes"/>
      <point x="460" y="275"/>
      <point x="485.0" y="235.0"/>
      <point x="485" y="175" type="curve"/>
      <point x="485.0" y="75.0"/>
      <point x="450.0" y="50.0"/>
      <point x="300" y="50" type="curve"/>
      <point x="300" y="0" type="line"/>
      <point x="330" y="0" type="line" smooth="yes"/>
      <point x="480" y="0"/>
      <point x="535" y="60"/>
      <point x="535" y="175" type="curve"/>
      <point x="535" y="260"/>
      <point x="480" y="325"/>
      <point x="360" y="325" type="curve" smooth="yes"/>
      <point x="260" y="325" type="line" smooth="yes"/>
      <point x="180.0" y="325"/>
      <point x="145" y="305"/>
      <point x="125" y="260" type="curve"/>
      <point x="125" y="175" type="line"/>
      <point x="125.0" y="235.0"/>
      <point x="150.0" y="275"/>
    </contour>
  </outline>
</glyph>
<glyph name="seven" format="1">
  <advance width="600"/>
  <unicode hex="0037"/>
  <outline>
    <contour>
      <point x="50" y="650" type="line"/>
      <point x="515" y="650" type="line"/>
      <point x="555" y="670" type="line"/>
      <point x="555" y="700" type="line"/>
      <point x="50" y="700" type="line"/>
    </contour>
    <contour>
      <point x="100" y="225" type="line"/>
      <point x="500" y="225" type="line"/>
      <point x="500" y="275" type="line"/>
      <point x="100" y="275" type="line"/>
    </contour>
    <contour>
      <point x="325" y="275" type="line"/>
      <point x="325.0" y="431.049382716"/>
      <point x="370" y="515"/>
      <point x="555" y="670" type="curve"/>
      <point x="510" y="685" type="line"/>
      <point x="335.194388285" y="551.325120454"/>
      <point x="280.000185282" y="450.006484886"/>
      <point x="275" y="275" type="curve"/>
    </contour>
    <contour>
      <point x="325" y="0" type="line"/>
      <point x="325" y="250" type="line"/>
      <point x="275" y="250" type="line"/>
      <point x="275" y="0" type="line"/>
    </contour>
  </outline>
</glyph>
<glyph name="greater" format="1">
  <advance width="400"/>
  <unicode hex="003E"/>
  <outline>
    <contour>
      <point x="365" y="240" type="line"/>
      <point x="365" y="260" type="line"/>
      <point x="310" y="250" type="line"/>
      <point x="275" y="220" type="line"/>
      <point x="70" y="15" type="line"/>
      <point x="70" y="0" type="line"/>
      <point x="130" y="0" type="line"/>
    </contour>
    <contour>
      <point x="365" y="260" type="line"/>
      <point x="130" y="500" type="line"/>
      <point x="70" y="500" type="line"/>
      <point x="70" y="485" type="line"/>
      <point x="275" y="280" type="line"/>
      <point x="310" y="250" type="line"/>
      <point x="365" y="240" type="line"/>
    </contour>
  </outline>
</glyph>
<glyph name="D" format="1">
  <advance width="600"/>
  <unicode hex="0044"/>
  <outline>
    <contour>
      <point x="330.0" y="0.0" type="line" smooth="yes"/>
      <point x="470" y="0"/>
      <point x="525.0" y="55.0"/>
      <point x="525.0" y="220.0" type="curve" smooth="yes"/>
      <point x="525.0" y="350.0" type="line"/>
      <point x="475.0" y="350.0" type="line"/>
      <point x="475.0" y="240.0" type="line" smooth="yes"/>
      <point x="475.0" y="75.0"/>
      <point x="450" y="50"/>
      <point x="300" y="50" type="curve" smooth="yes"/>
      <point x="115" y="50" type="line"/>
      <point x="115" y="0" type="line"/>
    </contour>
    <contour>
      <point x="330.0" y="700.0" type="curve" smooth="yes"/>
      <point x="120" y="700" type="line"/>
      <point x="120" y="650" type="line"/>
      <point x="300" y="650" type="line" smooth="yes"/>
      <point x="450" y="650"/>
      <point x="475.0" y="625.0"/>
      <point x="475.0" y="460.0" type="curve" smooth="yes"/>
      <point x="475.0" y="350.0" type="line"/>
      <point x="525.0" y="350.0" type="line"/>
      <point x="525.0" y="480.0" type="line" smooth="yes"/>
      <point x="525.0" y="645.0"/>
      <point x="470" y="700"/>
    </contour>
    <contour>
      <point x="125" y="0" type="line"/>
      <point x="125" y="700" type="line"/>
      <point x="75" y="700" type="line"/>
      <point x="75" y="0" type="line"/>
    </contour>
  </outline>
</glyph>
<glyph name="E" format="1">
  <advance width="600"/>
  <unicode hex="0045"/>
  <outline>
    <contour>
      <point x="75" y="0" type="line"/>
      <point x="125" y="0" type="line"/>
      <point x="125" y="700" type="line"/>
      <point x="75" y="700" type="line"/>
    </contour>
    <contour>
      <point x="125" y="0" type="line"/>
      <point x="525" y="0" type="line"/>
      <point x="525" y="50" type="line"/>
      <point x="125" y="50" type="line"/>
    </contour>
    <contour>
      <point x="125" y="650" type="line"/>
      <point x="525" y="650" type="line"/>
      <point x="525" y="700" type="line"/>
      <point x="125" y="700" type="line"/>
    </contour>
    <contour>
      <point x="125" y="250" type="line"/>
      <point x="475" y="250" type="line"/>
      <point x="475" y="300" type="line"/>
      <point x="125" y="300" type="line"/>
    </contour>
    <contour>
      <point x="315" y="650" type="move" name="top"/>
    </contour>
  </outline>
</glyph>
<glyph name="F" format="1">
  <advance width="600"/>
  <unicode hex="0046"/>
  <outline>
    <contour>
      <point x="75" y="0" type="line"/>
      <point x="125" y="0" type="line"/>
      <point x="125" y="700" type="line"/>
      <point x="75" y="700" type="line"/>
    </contour>
    <contour>
      <point x="125" y="650" type="line"/>
      <point x="550" y="650" type="line"/>
      <point x="550" y="700" type="line"/>
      <point x="125" y="700" type="line"/>
    </contour>
    <contour>
      <point x="125" y="250" type="line"/>
      <point x="500" y="250" type="line"/>
      <point x="500" y="300" type="line"/>
      <point x="125" y="300" type="line"/>
    </contour>
    <contour>
      <point x="315" y="650" type="move" name="top"/>
    </contour>
  </outline>
</glyph>
<glyph name="H" format="1">
  <advance width="600"/>
  <unicode hex="0048"/>
  <outline>
    <contour>
      <point x="75" y="0" type="line"/>
      <point x="125" y="0" type="line"/>
      <point x="125" y="700" type="line"/>
      <point x="75" y="700" type="line"/>
    </contour>
    <contour>
      <point x="100" y="400" type="line"/>
      <point x="500" y="400" type="line"/>
      <point x="500" y="450" type="line"/>
      <point x="100" y="450" type="line"/>
    </contour>
    <contour>
      <point x="475" y="0" type="line"/>
      <point x="525" y="0" type="line"/>
      <point x="525" y="700" type="line"/>
      <point x="475" y="700" type="line"/>
    </contour>
  </outline>
</glyph>
<glyph name="M" format="1">
  <advance width="600"/>
  <unicode hex="004D"/>
  <outline>
    <contour>
      <point x="75" y="0" type="line"/>
      <point x="125" y="0" type="line"/>
      <point x="125" y="700" type="line"/>
      <point x="75" y="700" type="line"/>
    </contour>
    <contour>
      <point x="475" y="0" type="line"/>
      <point x="525" y="0" type="line"/>
      <point x="525" y="700" type="line"/>
      <point x="475" y="700" type="line"/>
    </contour>
    <contour>
      <point x="90" y="650" type="line"/>
      <point x="220" y="320" type="line" smooth="yes"/>
      <point x="270" y="200"/>
      <point x="275" y="175"/>
      <point x="275" y="50" type="curve" smooth="yes"/>
      <point x="275" y="0" type="line"/>
      <point x="325" y="0" type="line"/>
      <point x="325" y="50" type="line" smooth="yes"/>
      <point x="325" y="125"/>
      <point x="310" y="225"/>
      <point x="260" y="355" type="curve" smooth="yes"/>
      <point x="125" y="700" type="line"/>
    </contour>
    <contour>
      <point x="510" y="650" type="line"/>
      <point x="475" y="700" type="line"/>
      <point x="340" y="355" type="line" smooth="yes"/>
      <point x="290" y="225"/>
      <point x="275" y="125"/>
      <point x="275" y="50" type="curve" smooth="yes"/>
      <point x="275" y="0" type="line"/>
      <point x="325" y="0" type="line"/>
      <point x="325" y="50" type="line" smooth="yes"/>
      <point x="325" y="175"/>
      <point x="330" y="200"/>
      <point x="380" y="320" type="curve" smooth="yes"/>
    </contour>
  </outline>
</glyph>
<glyph name="Q" format="1">
  <advance width="600"/>
  <unicode hex="0051"/>
  <outline>
    <contour>
      <point x="275" y="-50" type="line"/>
      <point x="325" y="-50" type="line"/>
      <point x="325" y="200" type="line"/>
      <point x="275" y="200" type="line"/>
    </contour>
    <contour>
      <point x="270" y="700" type="line" smooth="yes"/>
      <point x="130" y="700"/>
      <point x="75" y="645"/>
      <point x="75" y="480" type="curve" smooth="yes"/>
      <point x="75" y="350" type="line"/>
      <point x="125" y="350" type="line"/>
      <point x="125" y="460" type="line" smooth="yes"/>
      <point x="125" y="625"/>
      <point x="150" y="650"/>
      <point x="300" y="650" type="curve"/>
      <point x="300" y="700" type="line"/>
    </contour>
    <contour>
      <point x="270" y="0" type="curve" smooth="yes"/>
      <point x="300" y="0" type="line"/>
      <point x="300" y="50" type="line"/>
      <point x="150" y="50"/>
      <point x="125" y="75"/>
      <point x="125" y="240" type="curve" smooth="yes"/>
      <point x="125" y="350" type="line"/>
      <point x="75" y="350" type="line"/>
      <point x="75" y="220" type="line" smooth="yes"/>
      <point x="75" y="55"/>
      <point x="130" y="0"/>
    </contour>
    <contour>
      <point x="330" y="700" type="curve" smooth="yes"/>
      <point x="300" y="700" type="line"/>
      <point x="300" y="650" type="line"/>
      <point x="450" y="650"/>
      <point x="475" y="625"/>
      <point x="475" y="460" type="curve" smooth="yes"/>
      <point x="475" y="350" type="line"/>
      <point x="525" y="350" type="line"/>
      <point x="525" y="480" type="line" smooth="yes"/>
      <point x="525" y="645"/>
      <point x="470" y="700"/>
    </contour>
    <contour>
      <point x="330" y="0" type="line" smooth="yes"/>
      <point x="470" y="0"/>
      <point x="525" y="55"/>
      <point x="525" y="220" type="curve" smooth="yes"/>
      <point x="525" y="350" type="line"/>
      <point x="475" y="350" type="line"/>
      <point x="475" y="240" type="line" smooth="yes"/>
      <point x="475" y="75"/>
      <point x="450" y="50"/>
      <point x="300" y="50" type="curve"/>
      <point x="300" y="0" type="line"/>
    </contour>
    <contour>
      <point x="300" y="650" type="move" name="top"/>
    </contour>
  </outline>
</glyph>
<glyph name="U" format="1">
  <advance width="600"/>
  <unicode hex="0055"/>
  <outline>
    <contour>
      <point x="270" y="0" type="curve" smooth="yes"/>
      <point x="300" y="0" type="line"/>
      <point x="300" y="50" type="line"/>
      <point x="175" y="50"/>
      <point x="125" y="95"/>
      <point x="125" y="240" type="curve" smooth="yes"/>
      <point x="125" y="700" type="line"/>
      <point x="75" y="700" type="line"/>
      <point x="75" y="220" type="line"/>
      <point x="75" y="70"/>
      <point x="145" y="0"/>
    </contour>
    <contour>
      <point x="330" y="0" type="line" smooth="yes"/>
      <point x="455" y="0"/>
      <point x="525" y="70"/>
      <point x="525" y="220" type="curve"/>
      <point x="525" y="700" type="line"/>
      <point x="475" y="700" type="line"/>
      <point x="475" y="240" type="line" smooth="yes"/>
      <point x="475" y="95"/>
      <point x="425" y="50"/>
      <point x="300" y="50" type="curve"/>
      <point x="300" y="0" type="line"/>
    </contour>
    <contour>
      <point x="300" y="650" type="move" name="top"/>
    </contour>
  </outline>
</glyph>
<glyph name="X" format="1">
  <advance width="600"/>
  <unicode hex="0058"/>
  <outline>
    <contour>
      <point x="305" y="330" type="curve"/>
      <point x="345" y="360" type="line"/>
      <point x="183.584709429" y="440.707645286"/>
      <point x="125" y="506.086956522"/>
      <point x="125" y="600" type="curve" smooth="yes"/>
      <point x="125" y="700" type="line"/>
      <point x="75" y="700" type="line"/>
      <point x="75" y="600" type="line" smooth="yes"/>
      <point x="75" y="503.571428571"/>
      <point x="135.866669223" y="399.643136202"/>
    </contour>
    <contour>
      <point x="295" y="330" type="line"/>
      <point x="464.133330777" y="399.643136202"/>
      <point x="525" y="503.571428571"/>
      <point x="525" y="600" type="curve" smooth="yes"/>
      <point x="525" y="700" type="line"/>
      <point x="475" y="700" type="line"/>
      <point x="475" y="600" type="line" smooth="yes"/>
      <point x="475" y="506.086956522"/>
      <point x="416.415290571" y="440.707645286"/>
      <point x="255" y="360" type="curve"/>
    </contour>
    <contour>
      <point x="305" y="380" type="line"/>
      <point x="135.837236043" y="310.344744253"/>
      <point x="75" y="196.551724138"/>
      <point x="75" y="100" type="curve" smooth="yes"/>
      <point x="75" y="0" type="line"/>
      <point x="125" y="0" type="line"/>
      <point x="125" y="100" type="line" smooth="yes"/>
      <point x="125" y="193.75"/>
      <point x="183.644629604" y="269.322314802"/>
      <point x="345" y="350" type="curve"/>
    </contour>
    <contour>
      <point x="295" y="380" type="curve"/>
      <point x="255" y="350" type="line"/>
      <point x="415" y="270"/>
      <point x="475" y="195"/>
      <point x="475" y="100" type="curve" smooth="yes"/>
      <point x="475" y="0" type="line"/>
      <point x="525" y="0" type="line"/>
      <point x="525" y="100" type="line" smooth="yes"/>
      <point x="525" y="195"/>
      <point x="465" y="310"/>
    </contour>
  </outline>
</glyph>
<glyph name="bracketleft" format="1">
  <advance width="200"/>
  <unicode hex="005B"/>
  <outline>
    <contour>
      <point x="75" y="700" type="line"/>
      <point x="75" y="-200" type="line"/>
      <point x="200" y="-200" type="line"/>
      <point x="200" y="-150" type="line"/>
      <point x="125" y="-150" type="line"/>
      <point x="125" y="650" type="line" smooth="yes"/>
      <point x="200" y="650" type="line"/>
      <point x="200" y="700" type="line"/>
    </contour>
  </outline>
</glyph>
<glyph name="backslash" format="1">
  <advance width="200"/>
  <unicode hex="005C"/>
  <outline>
    <contour>
      <point x="200" y="0" type="line"/>
      <point x="50" y="700" type="line"/>
      <point x="0" y="700" type="line"/>
      <point x="150" y="0" type="line"/>
    </contour>
  </outline>
</glyph>
<glyph name="underscore" format="1">
  <advance width="400"/>
  <unicode hex="005F"/>
  <outline>
    <contour>
      <point x="0" y="-150" type="line"/>
      <point x="0" y="-200" type="line"/>
      <point x="400" y="-200" type="line"/>
      <point x="400" y="-150" type="line"/>
    </contour>
  </outline>
</glyph>
<glyph name="grave" format="1">
  <advance width="200"/>
  <unicode hex="0060"/>
  <outline>
    <contour>
      <point x="140" y="550" type="line"/>
      <point x="95" y="700" type="line"/>
      <point x="45" y="700" type="line"/>
      <point x="45" y="665" type="line"/>
      <point x="110" y="550" type="line"/>
    </contour>
    <contour>
      <point x="122" y="500" type="move" name="_top"/>
    </contour>
  </outline>
</glyph>
<glyph name="a" format="1">
  <advance width="600"/>
  <unicode hex="0061"/>
  <outline>
    <contour>
      <point x="75" y="340" type="curve"/>
      <point x="75" y="320" type="line"/>
      <point x="125" y="320" type="line"/>
      <point x="125" y="340" type="line"/>
      <point x="125.0" y="427.272727273"/>
      <point x="160.0" y="460.0"/>
      <point x="300" y="460" type="curve" smooth="yes"/>
      <point x="435" y="460"/>
      <point x="475" y="425"/>
      <point x="475" y="330" type="curve" smooth="yes"/>
      <point x="475" y="220" type="line"/>
      <point x="525" y="250" type="line"/>
      <point x="525" y="330" type="line"/>
      <point x="525" y="445"/>
      <point x="465" y="510"/>
      <point x="300" y="510" type="curve" smooth="yes"/>
      <point x="130" y="510"/>
      <point x="75.0" y="445.0"/>
    </contour>
    <contour>
      <point x="525" y="250" type="line"/>
      <point x="475" y="250" type="line"/>
      <point x="475" y="95" type="line"/>
      <point x="480" y="60" type="line"/>
      <point x="490" y="0" type="line"/>
      <point x="525" y="0" type="line"/>
    </contour>
    <contour>
      <point x="65" y="135" type="curve"/>
      <point x="65" y="35"/>
      <point x="130" y="-10"/>
      <point x="270" y="-10" type="curve" smooth="yes"/>
      <point x="390" y="-10"/>
      <point x="450" y="15"/>
      <point x="480" y="60" type="curve"/>
      <point x="475" y="135" type="line"/>
      <point x="475" y="70"/>
      <point x="430" y="40"/>
      <point x="270" y="40" type="curve"/>
      <point x="145" y="40"/>
      <point x="115" y="65"/>
      <point x="115" y="135" type="curve"/>
      <point x="115" y="205"/>
      <point x="145" y="230"/>
      <point x="270" y="230" type="curve"/>
      <point x="430" y="230"/>
      <point x="475" y="200"/>
      <point x="475" y="135" type="curve"/>
      <point x="480" y="210" type="line"/>
      <point x="450" y="260"/>
      <point x="390" y="280"/>
      <point x="270" y="280" type="curve" smooth="yes"/>
      <point x="130" y="280"/>
      <point x="65" y="235"/>
    </contour>
    <contour>
      <point x="300.0" y="500.0" type="move" name="top"/>
    </contour>
  </outline>
</glyph>
<glyph name="b" format="1">
  <advance width="600"/>
  <unicode hex="0062"/>
  <outline>
    <contour>
      <point x="75.0" y="0.0" type="line"/>
      <point x="110" y="0" type="line"/>
      <point x="120" y="80" type="line"/>
      <point x="125" y="125" type="line"/>
      <point x="125" y="700" type="line"/>
      <point x="75.0" y="700.0" type="line"/>
    </contour>
    <contour>
      <point x="125" y="430" type="curve"/>
      <point x="125" y="260" type="line"/>
      <point x="125.0" y="393.333333333"/>
      <point x="150.0" y="460.0"/>
      <point x="300" y="460" type="curve" smooth="yes"/>
      <point x="430.0" y="460.0"/>
      <point x="475.0" y="420.0"/>
      <point x="475" y="260" type="curve"/>
      <point x="475" y="250" type="line"/>
      <point x="525" y="250" type="line"/>
      <point x="525" y="260" type="line"/>
      <point x="525.0" y="430.454545455"/>
      <point x="470" y="510"/>
      <point x="300" y="510" type="curve" smooth="yes"/>
      <point x="195.0" y="510.0"/>
      <point x="155" y="480"/>
    </contour>
    <contour>
      <point x="120" y="80" type="line"/>
      <point x="150" y="20"/>
      <point x="190" y="-10"/>
      <point x="300" y="-10" type="curve" smooth="yes"/>
      <point x="470" y="-10"/>
      <point x="525.0" y="69.5454545455"/>
      <point x="525" y="240" type="curve"/>
      <point x="525.0" y="250.0" type="line"/>
      <point x="475.0" y="250.0" type="line"/>
      <point x="475.0" y="240.0" type="line"/>
      <point x="475.0" y="80.0"/>
      <point x="430.0" y="40.0"/>
      <point x="300.0" y="40.0" type="curve" smooth="yes"/>
      <point x="150.0" y="40.0"/>
      <point x="125.0" y="107.0"/>
      <point x="125.0" y="240.0" type="curve"/>
      <point x="125.0" y="123.0" type="line"/>
    </contour>
  </outline>
</glyph>
<glyph name="c" format="1">
  <advance width="600"/>
  <unicode hex="0063"/>
  <outline>
    <contour>
      <point x="300" y="510" type="curve"/>
      <point x="120" y="510"/>
      <point x="70" y="435"/>
      <point x="70" y="290" type="curve"/>
      <point x="70" y="250" type="line"/>
      <point x="120" y="250" type="line"/>
      <point x="120" y="290" type="line" smooth="yes"/>
      <point x="120" y="405"/>
      <point x="145" y="460"/>
      <point x="300" y="460" type="curve"/>
      <point x="450.0" y="460.0"/>
      <point x="475.0" y="432.5"/>
      <point x="475" y="350" type="curve"/>
      <point x="475" y="315" type="line"/>
      <point x="525" y="315" type="line"/>
      <point x="525" y="360" type="line"/>
      <point x="525.0" y="456.428571429"/>
      <point x="470.0" y="510.0"/>
    </contour>
    <contour>
      <point x="300" y="40" type="curve"/>
      <point x="145" y="40"/>
      <point x="120" y="95"/>
      <point x="120" y="210" type="curve" smooth="yes"/>
      <point x="120" y="250" type="line"/>
      <point x="70" y="250" type="line"/>
      <point x="70" y="210" type="line"/>
      <point x="70" y="60"/>
      <point x="120" y="-10"/>
      <point x="300" y="-10" type="curve"/>
      <point x="470.0" y="-10.0"/>
      <point x="525.0" y="43.5714285714"/>
      <point x="525" y="140" type="curve"/>
      <point x="525" y="185" type="line"/>
      <point x="475" y="185" type="line"/>
      <point x="475" y="150" type="line"/>
      <point x="475.0" y="67.5"/>
      <point x="450.0" y="40.0"/>
    </contour>
    <contour>
      <point x="1050.0" y="500.0" type="move" name="top"/>
    </contour>
  </outline>
</glyph>
<glyph name="g" format="1">
  <advance width="600"/>
  <unicode hex="0067"/>
  <outline>
    <contour>
      <point x="475" y="70" type="curve"/>
      <point x="475" y="240" type="line"/>
      <point x="475.0" y="111.75"/>
      <point x="450.0" y="50.0"/>
      <point x="300" y="50" type="curve" smooth="yes"/>
      <point x="170.0" y="50.0"/>
      <point x="125.0" y="88.0"/>
      <point x="125" y="240" type="curve"/>
      <point x="125" y="250" type="line"/>
      <point x="75" y="250" type="line"/>
      <point x="75" y="240" type="line"/>
      <point x="75.0" y="76.8"/>
      <point x="130.0" y="0.0"/>
      <point x="300" y="0" type="curve" smooth="yes"/>
      <point x="405.0" y="0.0"/>
      <point x="447.707163998" y="24.5119399958"/>
    </contour>
    <contour>
      <point x="480" y="420" type="line"/>
      <point x="450" y="480"/>
      <point x="410" y="510"/>
      <point x="300" y="510" type="curve" smooth="yes"/>
      <point x="130" y="510"/>
      <point x="75" y="430"/>
      <point x="75" y="260" type="curve"/>
      <point x="75" y="250" type="line"/>
      <point x="125" y="250" type="line"/>
      <point x="125" y="260" type="line"/>
      <point x="125" y="420"/>
      <point x="170" y="460"/>
      <point x="300" y="460" type="curve" smooth="yes"/>
      <point x="450" y="460"/>
      <point x="475" y="395"/>
      <point x="475" y="260" type="curve"/>
      <point x="475" y="375" type="line"/>
    </contour>
    <contour>
      <point x="200" y="30" type="move"/>
      <point x="120" y="30"/>
      <point x="75.0" y="-12.9545454545"/>
      <point x="75" y="-75" type="curve" smooth="yes"/>
      <point x="75" y="-165"/>
      <point x="125" y="-210"/>
      <point x="300" y="-210" type="curve" smooth="yes"/>
      <point x="470" y="-210"/>
      <point x="525" y="-150"/>
      <point x="525" y="-30" type="curve" smooth="yes"/>
      <point x="525" y="500" type="line"/>
      <point x="490" y="500" type="line"/>
      <point x="480" y="420" type="line"/>
      <point x="475" y="375" type="line"/>
      <point x="475" y="-30" type="line" smooth="yes"/>
      <point x="475" y="-125"/>
      <point x="445" y="-160"/>
      <point x="300" y="-160" type="curve" smooth="yes"/>
      <point x="155" y="-160"/>
      <point x="125" y="-140"/>
      <point x="125" y="-75" type="curve" smooth="yes"/>
      <point x="125" y="-25"/>
      <point x="167.24137931" y="0.0"/>
      <point x="300" y="0" type="curve"/>
    </contour>
  </outline>
</glyph>
<glyph name="i" format="1">
  <advance width="200"/>
  <unicode hex="0069"/>
  <outline>
    <contour>
      <point x="75" y="0" type="line"/>
      <point x="125" y="0" type="line"/>
      <point x="125" y="500" type="line"/>
      <point x="75" y="500" type="line"/>
    </contour>
    <contour>
      <point x="70" y="640" type="line"/>
      <point x="130" y="640" type="line"/>
      <point x="130" y="700" type="line"/>
      <point x="70" y="700" type="line"/>
    </contour>
  </outline>
</glyph>
<glyph name="n" format="1">
  <advance width="600"/>
  <unicode hex="006E"/>
  <outline>
    <contour>
      <point x="75.0" y="0.0" type="line"/>
      <point x="125.0" y="0.0" type="line"/>
      <point x="125.0" y="381.0" type="line"/>
      <point x="120" y="420" type="line"/>
      <point x="110" y="500" type="line"/>
      <point x="75.0" y="500.0" type="line"/>
    </contour>
    <contour>
      <point x="120" y="420" type="curve"/>
      <point x="125.0" y="381.0" type="line"/>
      <point x="125.0" y="260.0" type="line"/>
      <point x="125.0" y="393.0"/>
      <point x="150.0" y="460.0"/>
      <point x="300.0" y="460.0" type="curve" smooth="yes"/>
      <point x="430.0" y="460.0"/>
      <point x="475.0" y="420.0"/>
      <point x="475.0" y="260.0" type="curve"/>
      <point x="475.0" y="0.0" type="line"/>
      <point x="525.0" y="0.0" type="line"/>
      <point x="525.0" y="290.0" type="line"/>
      <point x="525.0" y="440.0"/>
      <point x="465" y="510"/>
      <point x="315" y="510" type="curve"/>
      <point x="195" y="510"/>
      <point x="130" y="470"/>
    </contour>
    <contour>
      <point x="300.0" y="500.0" type="move" name="top"/>
    </contour>
  </outline>
</glyph>
<glyph name="s" format="1">
  <advance width="600"/>
  <unicode hex="0073"/>
  <outline>
    <contour>
      <point x="535" y="125" type="curve" smooth="yes"/>
      <point x="535" y="220"/>
      <point x="485" y="255"/>
      <point x="300" y="275" type="curve" smooth="yes"/>
      <point x="181.658141314" y="289.201023042"/>
      <point x="125.0" y="310.0"/>
      <point x="125" y="375" type="curve" smooth="yes"/>
      <point x="125.0" y="435.0"/>
      <point x="162.837837838" y="460.0"/>
      <point x="300" y="460" type="curve" smooth="yes"/>
      <point x="445.0" y="460.0"/>
      <point x="475.0" y="432.5"/>
      <point x="475" y="350" type="curve"/>
      <point x="475" y="330" type="line"/>
      <point x="525" y="330" type="line"/>
      <point x="525" y="360" type="line"/>
      <point x="525.0" y="456.428571429"/>
      <point x="470.0" y="510.0"/>
      <point x="300" y="510" type="curve" smooth="yes"/>
      <point x="137.234042553" y="510.0"/>
      <point x="75.0" y="460.0"/>
      <point x="75" y="375" type="curve" smooth="yes"/>
      <point x="75.0" y="280.0"/>
      <point x="122.779399826" y="244.158983803"/>
      <point x="300" y="225" type="curve" smooth="yes"/>
      <point x="425" y="210"/>
      <point x="485.0" y="190.0"/>
      <point x="485" y="125" type="curve" smooth="yes"/>
      <point x="485" y="65"/>
      <point x="445" y="40"/>
      <point x="300" y="40" type="curve" smooth="yes"/>
      <point x="155.0" y="40.0"/>
      <point x="125.0" y="67.5"/>
      <point x="125" y="150" type="curve"/>
      <point x="125" y="170" type="line"/>
      <point x="75" y="170" type="line"/>
      <point x="75" y="140" type="line"/>
      <point x="75.0" y="43.5714285714"/>
      <point x="130.0" y="-10.0"/>
      <point x="300" y="-10" type="curve" smooth="yes"/>
      <point x="470" y="-10"/>
      <point x="535" y="40"/>
    </contour>
  </outline>
</glyph>
<glyph name="w" format="1">
  <advance width="600"/>
  <unicode hex="0077"/>
  <outline>
    <contour>
      <point x="190" y="0" type="curve"/>
      <point x="205" y="60" type="line"/>
      <point x="155" y="155"/>
      <point x="125" y="240"/>
      <point x="125" y="350" type="curve" smooth="yes"/>
      <point x="125" y="500" type="line"/>
      <point x="75" y="500" type="line"/>
      <point x="75" y="350" type="line" smooth="yes"/>
      <point x="75" y="225"/>
      <point x="125" y="100"/>
    </contour>
    <contour>
      <point x="275" y="500" type="line"/>
      <point x="275" y="300" type="line" smooth="yes"/>
      <point x="275" y="210"/>
      <point x="250" y="145"/>
      <point x="195" y="60" type="curve"/>
      <point x="190" y="0" type="line"/>
      <point x="210" y="0" type="line"/>
      <point x="248.52304242" y="62.5999439333"/>
      <point x="285.734589093" y="118.428082436"/>
      <point x="300" y="185" type="curve"/>
      <point x="314.265410907" y="118.428082436"/>
      <point x="351.47695758" y="62.5999439333"/>
      <point x="390" y="0" type="curve"/>
      <point x="410" y="0" type="line"/>
      <point x="405" y="60" type="line"/>
      <point x="350" y="145"/>
      <point x="325" y="210"/>
      <point x="325" y="300" type="curve" smooth="yes"/>
      <point x="325" y="500" type="line"/>
    </contour>
    <contour>
      <point x="410" y="0" type="line"/>
      <point x="475" y="100"/>
      <point x="525" y="225"/>
      <point x="525" y="350" type="curve" smooth="yes"/>
      <point x="525" y="500" type="line"/>
      <point x="475" y="500" type="line"/>
      <point x="475" y="350" type="line" smooth="yes"/>
      <point x="475" y="240"/>
      <point x="445" y="155"/>
      <point x="395" y="60" type="curve"/>
    </contour>
  </outline>
</glyph>
<glyph name="x" format="1">
  <advance width="600"/>
  <unicode hex="0078"/>
  <outline>
    <contour>
      <point x="305" y="230" type="curve"/>
      <point x="345" y="260" type="line"/>
      <point x="183.348846836" y="320.619182436"/>
      <point x="125" y="370"/>
      <point x="125" y="455" type="curve" smooth="yes"/>
      <point x="125" y="500" type="line"/>
      <point x="75" y="500" type="line"/>
      <point x="75" y="455" type="line" smooth="yes"/>
      <point x="75" y="365"/>
      <point x="135.253744163" y="279.925369364"/>
    </contour>
    <contour>
      <point x="295" y="230" type="line"/>
      <point x="464.746255837" y="279.925369364"/>
      <point x="525" y="365"/>
      <point x="525" y="455" type="curve" smooth="yes"/>
      <point x="525" y="500" type="line"/>
      <point x="475" y="500" type="line"/>
      <point x="475" y="455" type="line" smooth="yes"/>
      <point x="475" y="370"/>
      <point x="416.651153164" y="320.619182436"/>
      <point x="255" y="260" type="curve"/>
    </contour>
    <contour>
      <point x="305" y="280" type="line"/>
      <point x="135.190160349" y="230.055929514"/>
      <point x="75" y="135"/>
      <point x="75" y="45" type="curve" smooth="yes"/>
      <point x="75" y="0" type="line"/>
      <point x="125" y="0" type="line"/>
      <point x="125" y="45" type="line" smooth="yes"/>
      <point x="125" y="130"/>
      <point x="183.292177023" y="189.359566384"/>
      <point x="345" y="250" type="curve"/>
    </contour>
    <contour>
      <point x="295" y="280" type="curve"/>
      <point x="255" y="250" type="line"/>
      <point x="416.707822977" y="189.359566384"/>
      <point x="475" y="130"/>
      <point x="475" y="45" type="curve" smooth="yes"/>
      <point x="475" y="0" type="line"/>
      <point x="525" y="0" type="line"/>
      <point x="525" y="45" type="line" smooth="yes"/>
      <point x="525" y="135"/>
      <point x="464.809839651" y="230.055929514"/>
    </contour>
  </outline>
</glyph>
<glyph name="z" format="1">
  <advance width="600"/>
  <unicode hex="007A"/>
  <outline>
    <contour>
      <point x="50" y="450" type="line"/>
      <point x="325" y="450" type="line"/>
      <point x="510" y="460" type="line"/>
      <point x="550" y="480" type="line"/>
      <point x="550" y="500" type="line"/>
      <point x="50" y="500" type="line"/>
    </contour>
    <contour>
      <point x="40" y="0" type="line"/>
      <point x="550" y="0" type="line"/>
      <point x="550" y="50" type="line"/>
      <point x="265" y="50" type="line"/>
      <point x="80" y="40" type="line"/>
      <point x="40" y="20" type="line"/>
    </contour>
    <contour>
      <point x="90" y="0" type="line"/>
      <point x="550" y="480" type="line"/>
      <point x="490" y="490" type="line"/>
      <point x="40" y="20" type="line"/>
    </contour>
    <contour>
      <point x="300.0" y="500.0" type="move" name="top"/>
    </contour>
  </outline>
</glyph>
<glyph name="currency" format="1">
  <advance width="400"/>
  <unicode hex="00A4"/>
  <outline>
    <contour>
      <point x="280" y="350" type="curve"/>
      <point x="280.0" y="295.0"/>
      <point x="261.538461538" y="270.0"/>
      <point x="200" y="270" type="curve"/>
      <point x="144.615384615" y="270.0"/>
      <point x="120.0" y="295.0"/>
      <point x="120" y="350" type="curve"/>
      <point x="120.0" y="410.0"/>
      <point x="144.615384615" y="430.0"/>
      <point x="200" y="430" type="curve"/>
      <point x="261.538461538" y="430.0"/>
      <point x="280.0" y="410.0"/>
    </contour>
    <contour>
      <point x="325" y="350" type="curve"/>
      <point x="325.0" y="440.0"/>
      <point x="279.166666667" y="475.0"/>
      <point x="200" y="475" type="curve"/>
      <point x="120.833333333" y="475.0"/>
      <point x="75.0" y="440.0"/>
      <point x="75" y="350" type="curve"/>
      <point x="75.0" y="265.0"/>
      <point x="120.833333333" y="225.0"/>
      <point x="200" y="225" type="curve"/>
      <point x="279.166666667" y="225.0"/>
      <point x="325.0" y="265.0"/>
    </contour>
    <contour>
      <point x="105" y="290" type="line"/>
      <point x="20" y="205" type="line"/>
      <point x="55" y="170" type="line"/>
      <point x="140" y="255" type="line"/>
    </contour>
    <contour>
      <point x="380" y="495" type="line"/>
      <point x="345" y="530" type="line"/>
      <point x="250" y="435" type="line"/>
      <point x="285" y="400" type="line"/>
    </contour>
    <contour>
      <point x="295" y="290" type="line"/>
      <point x="260" y="255" type="line"/>
      <point x="345" y="170" type="line"/>
      <point x="380" y="205" type="line"/>
    </contour>
    <contour>
      <point x="20" y="495" type="line"/>
      <point x="115" y="400" type="line"/>
      <point x="150" y="435" type="line"/>
      <point x="55" y="530" type="line"/>
    </contour>
  </outline>
</glyph>
<glyph name="dieresis" format="1">
  <advance width="200"/>
  <unicode hex="00A8"/>
  <outline>
    <contour>
      <point x="15" y="600" type="line"/>
      <point x="55" y="600" type="line"/>
      <point x="55" y="700" type="line"/>
      <point x="5" y="700" type="line"/>
    </contour>
    <contour>
      <point x="145" y="600" type="line"/>
      <point x="185" y="600" type="line"/>
      <point x="195" y="700" type="line"/>
      <point x="145" y="700" type="line"/>
    </contour>
    <contour>
      <point x="100.0" y="500.0" type="move" name="_top"/>
    </contour>
    <contour>
      <point x="70.0" y="500.0" type="move" name="_top"/>
    </contour>
  </outline>
</glyph>
<glyph name="copyright" format="1">
  <advance width="800"/>
  <unicode hex="00A9"/>
  <outline>
    <contour>
      <point x="430" y="700" type="curve" smooth="yes"/>
      <point x="400" y="700" type="line"/>
      <point x="400" y="650" type="line"/>
      <point x="620" y="650"/>
      <point x="675" y="560"/>
      <point x="675" y="410" type="curve" smooth="yes"/>
      <point x="675" y="350" type="line"/>
      <point x="725" y="350" type="line"/>
      <point x="725" y="430" type="line"/>
      <point x="725" y="590"/>
      <point x="635" y="700"/>
    </contour>
    <contour>
      <point x="430" y="0" type="line" smooth="yes"/>
      <point x="635" y="0"/>
      <point x="725" y="110"/>
      <point x="725" y="270" type="curve"/>
      <point x="725" y="350" type="line"/>
      <point x="675" y="350" type="line"/>
      <point x="675" y="290" type="line" smooth="yes"/>
      <point x="675" y="125"/>
      <point x="620" y="50"/>
      <point x="400" y="50" type="curve"/>
      <point x="400" y="0" type="line"/>
    </contour>
    <contour>
      <point x="525" y="380" type="line"/>
      <point x="525.0" y="452.692307692"/>
      <point x="485.0" y="485.0"/>
      <point x="400" y="485" type="curve" smooth="yes"/>
      <point x="315.0" y="485.0"/>
      <point x="265.0" y="460.0"/>
      <point x="265" y="360" type="curve"/>
      <point x="265" y="350" type="line"/>
      <point x="320" y="350" type="line"/>
      <point x="320" y="360" type="line" smooth="yes"/>
      <point x="320" y="420.0"/>
      <point x="345.0" y="435.0"/>
      <point x="400" y="435" type="curve" smooth="yes"/>
      <point x="445.0" y="435.0"/>
      <point x="475.0" y="416.666666667"/>
      <point x="475" y="380" type="curve"/>
      <point x="475" y="370" type="line"/>
      <point x="525" y="370" type="line"/>
    </contour>
    <contour>
      <point x="525" y="320" type="curve"/>
      <point x="525" y="330" type="line"/>
      <point x="475" y="330" type="line"/>
      <point x="475" y="320" type="line"/>
      <point x="475.0" y="283.333333333"/>
      <point x="445.0" y="265.0"/>
      <point x="400" y="265" type="curve" smooth="yes"/>
      <point x="345.0" y="265.0"/>
      <point x="320" y="280.0"/>
      <point x="320" y="340" type="curve" smooth="yes"/>
      <point x="320" y="350" type="line"/>
      <point x="265" y="350" type="line"/>
      <point x="265" y="340" type="line"/>
      <point x="265.0" y="240.0"/>
      <point x="315.0" y="215.0"/>
      <point x="400" y="215" type="curve" smooth="yes"/>
      <point x="485.0" y="215.0"/>
      <point x="525.0" y="247.307692308"/>
    </contour>
    <contour>
      <point x="370" y="700" type="line" smooth="yes"/>
      <point x="165" y="700"/>
      <point x="75" y="590"/>
      <point x="75" y="430" type="curve"/>
      <point x="75" y="350" type="line"/>
      <point x="125" y="350" type="line"/>
      <point x="125" y="410" type="line" smooth="yes"/>
      <point x="125" y="575"/>
      <point x="180" y="650"/>
      <point x="400" y="650" type="curve"/>
      <point x="400" y="700" type="line"/>
    </contour>
    <contour>
      <point x="370" y="0" type="curve" smooth="yes"/>
      <point x="400" y="0" type="line"/>
      <point x="400" y="50" type="line"/>
      <point x="180" y="50"/>
      <point x="125" y="125"/>
      <point x="125" y="290" type="curve" smooth="yes"/>
      <point x="125" y="350" type="line"/>
      <point x="75" y="350" type="line"/>
      <point x="75" y="270" type="line"/>
      <point x="75" y="110"/>
      <point x="165" y="0"/>
    </contour>
    <contour>
      <point x="300.0" y="650.0" type="move" name="top"/>
    </contour>
  </outline>
</glyph>
<glyph name="registered" format="1">
  <advance width="800"/>
  <unicode hex="00AE"/>
  <outline>
    <contour>
      <point x="325" y="200" type="line"/>
      <point x="325" y="500" type="line"/>
      <point x="275" y="500" type="line"/>
      <point x="275" y="200" type="line"/>
    </contour>
    <contour>
      <point x="470" y="385" type="curve"/>
      <point x="470.0" y="343.0"/>
      <point x="455.0" y="325.0"/>
      <point x="395" y="325" type="curve"/>
      <point x="320" y="325" type="line"/>
      <point x="310" y="275" type="line"/>
      <point x="385" y="275" type="line"/>
      <point x="435.0" y="275.0"/>
      <point x="468.728955657" y="256.439399083"/>
      <point x="475" y="200" type="curve"/>
      <point x="525" y="200" type="line"/>
      <point x="525.0" y="250.0"/>
      <point x="505" y="285"/>
      <point x="460" y="290" type="curve"/>
      <point x="460" y="300" type="line"/>
      <point x="497.495446347" y="309.373861587"/>
      <point x="530" y="345"/>
      <point x="530" y="395" type="curve"/>
      <point x="530.0" y="463.47826087"/>
      <point x="488.064516129" y="500.0"/>
      <point x="400" y="500" type="curve"/>
      <point x="310" y="500" type="line"/>
      <point x="310" y="450" type="line"/>
      <point x="395" y="450" type="line"/>
      <point x="455.0" y="450.0"/>
      <point x="470.0" y="432.666666667"/>
    </contour>
    <contour>
      <point x="430" y="700" type="curve" smooth="yes"/>
      <point x="400" y="700" type="line"/>
      <point x="400" y="650" type="line"/>
      <point x="620" y="650"/>
      <point x="675" y="560"/>
      <point x="675" y="410" type="curve" smooth="yes"/>
      <point x="675" y="350" type="line"/>
      <point x="725" y="350" type="line"/>
      <point x="725" y="430" type="line"/>
      <point x="725" y="590"/>
      <point x="635" y="700"/>
    </contour>
    <contour>
      <point x="430" y="0" type="line" smooth="yes"/>
      <point x="635" y="0"/>
      <point x="725" y="110"/>
      <point x="725" y="270" type="curve"/>
      <point x="725" y="350" type="line"/>
      <point x="675" y="350" type="line"/>
      <point x="675" y="290" type="line" smooth="yes"/>
      <point x="675" y="125"/>
      <point x="620" y="50"/>
      <point x="400" y="50" type="curve"/>
      <point x="400" y="0" type="line"/>
    </contour>
    <contour>
      <point x="370" y="700" type="line" smooth="yes"/>
      <point x="165" y="700"/>
      <point x="75" y="590"/>
      <point x="75" y="430" type="curve"/>
      <point x="75" y="350" type="line"/>
      <point x="125" y="350" type="line"/>
      <point x="125" y="410" type="line" smooth="yes"/>
      <point x="125" y="575"/>
      <point x="180" y="650"/>
      <point x="400" y="650" type="curve"/>
      <point x="400" y="700" type="line"/>
    </contour>
    <contour>
      <point x="370" y="0" type="curve" smooth="yes"/>
      <point x="400" y="0" type="line"/>
      <point x="400" y="50" type="line"/>
      <point x="180" y="50"/>
      <point x="125" y="125"/>
      <point x="125" y="290" type="curve" smooth="yes"/>
      <point x="125" y="350" type="line"/>
      <point x="75" y="350" type="line"/>
      <point x="75" y="270" type="line"/>
      <point x="75" y="110"/>
      <point x="165" y="0"/>
    </contour>
    <contour>
      <point x="300.0" y="650.0" type="move" name="top"/>
    </contour>
  </outline>
</glyph>
<glyph name="degree" format="1">
  <advance width="400"/>
  <unicode hex="00B0"/>
  <outline>
    <contour>
      <point x="285" y="550" type="curve"/>
      <point x="285" y="470"/>
      <point x="260" y="440"/>
      <point x="200" y="440" type="curve"/>
      <point x="140" y="440"/>
      <point x="115" y="470"/>
      <point x="115" y="550" type="curve"/>
      <point x="115" y="630"/>
      <point x="140" y="660"/>
      <point x="200" y="660" type="curve"/>
      <point x="260" y="660"/>
      <point x="285" y="630"/>
    </contour>
    <contour>
      <point x="335" y="550" type="curve"/>
      <point x="335" y="660"/>
      <point x="285" y="710"/>
      <point x="200" y="710" type="curve"/>
      <point x="115" y="710"/>
      <point x="65" y="660"/>
      <point x="65" y="550" type="curve"/>
      <point x="65" y="440"/>
      <point x="115" y="390"/>
      <point x="200" y="390" type="curve"/>
      <point x="285" y="390"/>
      <point x="335" y="440"/>
    </contour>
  </outline>
</glyph>
<glyph name="cedilla" format="1">
  <advance width="200"/>
  <unicode hex="00B8"/>
  <outline>
    <contour>
      <point x="80" y="0" type="line"/>
      <point x="70" y="-85" type="line"/>
      <point x="110" y="-85"/>
      <point x="135" y="-85"/>
      <point x="135" y="-115" type="curve" smooth="yes"/>
      <point x="135.0" y="-141.666666667"/>
      <point x="118.75" y="-155.0"/>
      <point x="70" y="-155" type="curve"/>
      <point x="30" y="-155" type="line"/>
      <point x="20" y="-200" type="line"/>
      <point x="70" y="-200" type="line"/>
      <point x="140.0" y="-200.0"/>
      <point x="180.0" y="-176.388888889"/>
      <point x="180" y="-115" type="curve" smooth="yes"/>
      <point x="180" y="-70"/>
      <point x="160" y="-50"/>
      <point x="115" y="-50" type="curve"/>
      <point x="115" y="0" type="line"/>
    </contour>
    <contour>
      <point x="95.0" y="0.0" type="move" name="_bottom"/>
    </contour>
  </outline>
</glyph>
<glyph name="ordmasculine" format="1">
  <advance width="400"/>
  <unicode hex="00BA"/>
  <outline>
    <contour>
      <point x="350" y="225" type="line"/>
      <point x="350" y="275" type="line"/>
      <point x="50" y="275" type="line"/>
      <point x="50" y="225" type="line"/>
    </contour>
    <component base="o.superior"/>
  </outline>
</glyph>
<glyph name="Eth" format="1">
  <advance width="600"/>
  <unicode hex="00D0"/>
  <outline>
    <contour>
      <point x="250" y="225" type="line"/>
      <point x="250" y="275" type="line"/>
      <point x="0" y="275" type="line"/>
      <point x="0" y="225" type="line"/>
    </contour>
    <component base="D"/>
  </outline>
</glyph>
<glyph name="multiply" format="1">
  <advance width="600"/>
  <unicode hex="00D7"/>
  <outline>
    <contour>
      <point x="495" y="410" type="line"/>
      <point x="460" y="445" type="line"/>
      <point x="340" y="325" type="line"/>
      <point x="300" y="280" type="line"/>
      <point x="260" y="325" type="line"/>
      <point x="140" y="445" type="line"/>
      <point x="105" y="410" type="line"/>
      <point x="225" y="290" type="line" smooth="yes"/>
      <point x="270" y="250" type="line"/>
      <point x="225" y="210" type="line"/>
      <point x="105" y="90" type="line"/>
      <point x="140" y="55" type="line"/>
      <point x="260" y="175" type="line" smooth="yes"/>
      <point x="300" y="220" type="line"/>
      <point x="340" y="175" type="line"/>
      <point x="460" y="55" type="line"/>
      <point x="495" y="90" type="line"/>
      <point x="375" y="210" type="line"/>
      <point x="330" y="250" type="line"/>
      <point x="375" y="290" type="line"/>
    </contour>
  </outline>
</glyph>
<glyph name="Thorn" format="1">
  <advance width="600"/>
  <unicode hex="00DE"/>
  <outline>
    <contour>
      <point x="375" y="500" type="curve"/>
      <point x="110" y="500" type="line"/>
      <point x="110" y="450" type="line"/>
      <point x="375" y="450" type="line"/>
      <point x="440.625" y="450.0"/>
      <point x="480" y="425"/>
      <point x="480" y="350" type="curve"/>
      <point x="525" y="350" type="line"/>
      <point x="525" y="450"/>
      <point x="470" y="500"/>
    </contour>
    <contour>
      <point x="375" y="250" type="curve"/>
      <point x="125" y="250" type="line"/>
      <point x="100" y="200" type="line"/>
      <point x="375" y="200" type="line"/>
      <point x="470" y="200"/>
      <point x="525" y="250"/>
      <point x="525" y="350" type="curve"/>
      <point x="480" y="350" type="line"/>
      <point x="480" y="275"/>
      <point x="440.625" y="250.0"/>
    </contour>
    <contour>
      <point x="125" y="0" type="line"/>
      <point x="125" y="700" type="line"/>
      <point x="80" y="700" type="line"/>
      <point x="80" y="0" type="line"/>
    </contour>
  </outline>
</glyph>
<glyph name="eth" format="1">
  <advance width="600"/>
  <unicode hex="00F0"/>
  <outline>
    <contour>
      <point x="300" y="40" type="curve"/>
      <point x="145.0" y="40.0"/>
      <point x="120" y="96.6666666667"/>
      <point x="120" y="210" type="curve" smooth="yes"/>
      <point x="120" y="250" type="line"/>
      <point x="70" y="250" type="line"/>
      <point x="70" y="210" type="line"/>
      <point x="70.0" y="80.0"/>
      <point x="124.117647059" y="-10.0"/>
      <point x="300" y="-10" type="curve"/>
      <point x="475.882352941" y="-10.0"/>
      <point x="530" y="80"/>
      <point x="530" y="260" type="curve" smooth="yes"/>
      <point x="530.0" y="450.0"/>
      <point x="465" y="560"/>
      <point x="265" y="700" type="curve"/>
      <point x="200" y="700" type="line"/>
      <point x="200" y="685" type="line"/>
      <point x="410" y="535"/>
      <point x="480" y="460"/>
      <point x="480" y="260" type="curve" smooth="yes"/>
      <point x="480" y="90"/>
      <point x="455.0" y="40.0"/>
    </contour>
    <contour>
      <point x="480" y="375" type="line"/>
      <point x="464.919311947" y="450.403440263"/>
      <point x="410" y="510"/>
      <point x="265" y="510" type="curve" smooth="yes"/>
      <point x="132.045454545" y="510.0"/>
      <point x="70.0" y="440.0"/>
      <point x="70" y="290" type="curve"/>
      <point x="70" y="250" type="line"/>
      <point x="120" y="250" type="line"/>
      <point x="120" y="260" type="line"/>
      <point x="120.0" y="420.0"/>
      <point x="165.0" y="460.0"/>
      <point x="295" y="460" type="curve" smooth="yes"/>
      <point x="455.0" y="460.0"/>
      <point x="480.0" y="393.333333333"/>
      <point x="480" y="260" type="curve"/>
    </contour>
    <contour>
      <point x="175" y="530" type="line"/>
      <point x="475" y="650" type="line"/>
      <point x="475" y="700" type="line"/>
      <point x="175" y="580" type="line"/>
    </contour>
    <contour>
      <point x="900.0" y="500.0" type="move" name="top"/>
    </contour>
  </outline>
</glyph>
<glyph name="dotlessi" format="1">
  <advance width="200"/>
  <unicode hex="0131"/>
  <outline>
    <contour>
      <point x="75" y="0" type="line"/>
      <point x="125" y="0" type="line"/>
      <point x="125" y="500" type="line"/>
      <point x="75" y="500" type="line"/>
    </contour>
    <contour>
      <point x="100" y="500" type="move" name="top"/>
    </contour>
  </outline>
</glyph>
<glyph name="IJ" format="1">
  <advance width="400"/>
  <unicode hex="0132"/>
  <outline>
    <contour>
      <point x="75" y="130" type="line"/>
      <point x="75" y="35"/>
      <point x="120" y="-10"/>
      <point x="200" y="-10" type="curve" smooth="yes"/>
      <point x="285" y="-10"/>
      <point x="325" y="45"/>
      <point x="325" y="140" type="curve"/>
      <point x="325" y="700" type="line"/>
      <point x="275" y="700" type="line"/>
      <point x="275" y="140" type="line" smooth="yes"/>
      <point x="275" y="65"/>
      <point x="250" y="40"/>
      <point x="200" y="40" type="curve" smooth="yes"/>
      <point x="145" y="40"/>
      <point x="125" y="60"/>
      <point x="125" y="130" type="curve"/>
      <point x="125" y="200" type="line"/>
      <point x="75" y="200" type="line"/>
    </contour>
    <contour>
      <point x="75" y="300" type="line"/>
      <point x="125" y="300" type="line"/>
      <point x="125" y="700" type="line"/>
      <point x="75" y="700" type="line"/>
    </contour>
    <contour>
      <point x="100" y="650" type="move" name="top"/>
    </contour>
  </outline>
</glyph>
<glyph name="lslash" format="1">
  <advance width="200"/>
  <unicode hex="0142"/>
  <outline>
    <contour>
      <point x="0" y="340" type="line"/>
      <point x="200" y="405" type="line"/>
      <point x="200" y="450" type="line"/>
      <point x="0" y="385" type="line"/>
    </contour>
    <component base="l"/>
  </outline>
</glyph>
<glyph name="OE" format="1">
  <advance width="600"/>
  <unicode hex="0152"/>
  <outline>
    <contour>
      <point x="275" y="560" type="curve" smooth="yes"/>
      <point x="275" y="140" type="line" smooth="yes"/>
      <point x="275" y="60.0"/>
      <point x="245.0" y="40.0"/>
      <point x="200" y="40" type="curve"/>
      <point x="155.0" y="40.0"/>
      <point x="125" y="60.0"/>
      <point x="125" y="140" type="curve" smooth="yes"/>
      <point x="125" y="560" type="line" smooth="yes"/>
      <point x="125" y="640.0"/>
      <point x="155.0" y="660.0"/>
      <point x="200" y="660" type="curve"/>
      <point x="245.0" y="660.0"/>
      <point x="275" y="640.0"/>
    </contour>
    <contour>
      <point x="330" y="0" type="line"/>
      <point x="550" y="0" type="line"/>
      <point x="550" y="50" type="line"/>
      <point x="325" y="50" type="line"/>
      <point x="325" y="225" type="line"/>
      <point x="500" y="225" type="line"/>
      <point x="500" y="275" type="line"/>
      <point x="325" y="275" type="line"/>
      <point x="325" y="650" type="line"/>
      <point x="550" y="650" type="line"/>
      <point x="550" y="700" type="line"/>
      <point x="330" y="700" type="line"/>
      <point x="290" y="665" type="line"/>
      <point x="265.844574553" y="698.817595626"/>
      <point x="231.5" y="710.0"/>
      <point x="200" y="710" type="curve"/>
      <point x="130" y="710"/>
      <point x="75" y="655"/>
      <point x="75" y="560" type="curve"/>
      <point x="75" y="140" type="line"/>
      <point x="75" y="45"/>
      <point x="130" y="-10"/>
      <point x="200" y="-10" type="curve"/>
      <point x="231.5" y="-10.0"/>
      <point x="265.7022292" y="-3.87643328006"/>
      <point x="290" y="35" type="curve"/>
    </contour>
  </outline>
</glyph>
<glyph name="tilde" format="1">
  <advance width="200"/>
  <unicode hex="02DC"/>
  <outline>
    <contour>
      <point x="180" y="575" type="curve"/>
      <point x="120" y="575"/>
      <point x="56.1290322581" y="660.0"/>
      <point x="20" y="660" type="curve" smooth="yes"/>
      <point x="-0.833333333333" y="660.0"/>
      <point x="-5" y="645"/>
      <point x="-5" y="620" type="curve" smooth="yes"/>
      <point x="-5" y="580" type="line"/>
      <point x="-5" y="580"/>
      <point x="-50" y="580"/>
      <point x="-50" y="580" type="curve"/>
      <point x="-50" y="625" type="line" smooth="yes"/>
      <point x="-50" y="675"/>
      <point x="-26.6666666667" y="705.0"/>
      <point x="20" y="705" type="curve"/>
      <point x="75" y="705"/>
      <point x="145.0" y="620.0"/>
      <point x="180" y="620" type="curve" smooth="yes"/>
      <point x="200" y="620"/>
      <point x="205" y="635"/>
      <point x="205" y="660" type="curve" smooth="yes"/>
      <point x="205" y="700" type="line"/>
      <point x="205" y="700"/>
      <point x="250" y="700"/>
      <point x="250" y="700" type="curve"/>
      <point x="250" y="655" type="line" smooth="yes"/>
      <point x="250" y="605"/>
      <point x="225" y="575"/>
    </contour>
    <contour>
      <point x="100.0" y="500.0" type="move" name="_top"/>
    </contour>
  </outline>
</glyph>
<glyph name="afii57664" format="1">
  <advance width="598"/>
  <unicode hex="05D0"/>
  <outline>
    <contour>
      <point x="399" y="146" type="line"/>
      <point x="506" y="192"/>
      <point x="525" y="266"/>
      <point x="525" y="405" type="curve" smooth="yes"/>
      <point x="525" y="500" type="line"/>
      <point x="475" y="500" type="line"/>
      <point x="475" y="405" type="line" smooth="yes"/>
      <point x="475" y="268"/>
      <point x="467" y="229"/>
      <point x="361" y="172" type="curve"/>
    </contour>
    <contour>
      <point x="172" y="355" type="line"/>
      <point x="90" y="330"/>
      <point x="75" y="250.092592593"/>
      <point x="75" y="135" type="curve" smooth="yes"/>
      <point x="75" y="0" type="line"/>
      <point x="125" y="0" type="line"/>
      <point x="125" y="135" type="line" smooth="yes"/>
      <point x="125" y="262.688172043"/>
      <point x="133" y="303"/>
      <point x="212" y="325" type="curve"/>
    </contour>
    <contour>
      <point x="400" y="450" type="line"/>
      <point x="505" y="450" type="line"/>
      <point x="505" y="500" type="line"/>
      <point x="400" y="500" type="line"/>
    </contour>
    <contour>
      <point x="500" y="0" type="line"/>
      <point x="550" y="0" type="line"/>
      <point x="550" y="20" type="line"/>
      <point x="103" y="500" type="line"/>
      <point x="49" y="500" type="line"/>
      <point x="49" y="483" type="line"/>
    </contour>
  </outline>
</glyph>
<glyph name="afii57665" format="1">
  <advance width="600"/>
  <unicode hex="05D1"/>
  <outline>
    <contour>
      <point x="50" y="0" type="line"/>
      <point x="551" y="0" type="line"/>
      <point x="551" y="50" type="line"/>
      <point x="50" y="50" type="line"/>
    </contour>
    <contour>
      <point x="245" y="500" type="curve"/>
      <point x="50" y="500" type="line"/>
      <point x="50" y="450" type="line"/>
      <point x="245" y="450" type="line"/>
      <point x="357" y="450"/>
      <point x="375" y="395"/>
      <point x="375" y="280" type="curve" smooth="yes"/>
      <point x="375" y="50" type="line"/>
      <point x="425" y="50" type="line"/>
      <point x="425" y="280" type="line"/>
      <point x="425" y="425"/>
      <point x="386" y="500"/>
    </contour>
  </outline>
</glyph>
<glyph name="afii57667" format="1">
  <advance width="400"/>
  <unicode hex="05D3"/>
  <outline>
    <contour>
      <point x="0" y="450" type="line"/>
      <point x="400" y="450" type="line"/>
      <point x="400" y="500" type="line"/>
      <point x="0" y="500" type="line"/>
    </contour>
    <contour>
      <point x="325" y="-100" type="line"/>
      <point x="325" y="451" type="line"/>
      <point x="295" y="500" type="line"/>
      <point x="275" y="500" type="line"/>
      <point x="275" y="-100" type="line"/>
    </contour>
  </outline>
</glyph>
<glyph name="afii57668" format="1">
  <advance width="600"/>
  <unicode hex="05D4"/>
  <outline>
    <contour>
      <point x="345" y="500" type="curve"/>
      <point x="30" y="500" type="line"/>
      <point x="30" y="450" type="line"/>
      <point x="345" y="450" type="line"/>
      <point x="457" y="450"/>
      <point x="475" y="395"/>
      <point x="475" y="280" type="curve" smooth="yes"/>
      <point x="475" y="0" type="line"/>
      <point x="525" y="0" type="line"/>
      <point x="525" y="280" type="line"/>
      <point x="525" y="425"/>
      <point x="486" y="500"/>
    </contour>
    <contour>
      <point x="75" y="0" type="line"/>
      <point x="125" y="0" type="line"/>
      <point x="125" y="300" type="line" smooth="yes"/>
      <point x="75" y="300" type="line"/>
    </contour>
  </outline>
</glyph>
<glyph name="afii57669" format="1">
  <advance width="200"/>
  <unicode hex="05D5"/>
  <outline>
    <contour>
      <point x="75" y="0" type="line"/>
      <point x="125" y="0" type="line"/>
      <point x="125" y="500" type="line"/>
      <point x="75" y="500" type="line"/>
    </contour>
    <contour>
      <point x="0" y="450" type="line"/>
      <point x="105" y="450" type="line"/>
      <point x="105" y="500" type="line"/>
      <point x="0" y="500" type="line"/>
    </contour>
  </outline>
</glyph>
<glyph name="afii57670" format="1">
  <advance width="418.0"/>
  <unicode hex="05D6"/>
  <outline>
    <contour>
      <point x="159" y="444" type="line"/>
      <point x="138" y="444"/>
      <point x="121" y="445"/>
      <point x="103" y="448" type="curve" smooth="yes" name="inserted"/>
      <point x="85" y="451"/>
      <point x="68" y="456"/>
      <point x="47" y="465" type="curve"/>
      <point x="55" y="489"/>
      <point x="63" y="512"/>
      <point x="72" y="538" type="curve"/>
      <point x="100" y="529"/>
      <point x="120" y="525"/>
      <point x="140" y="522" type="curve" smooth="yes" name="inserted"/>
      <point x="161" y="520"/>
      <point x="181" y="520"/>
      <point x="212" y="520" type="curve" smooth="yes"/>
      <point x="376" y="520" type="line"/>
      <point x="376" y="444" type="line"/>
      <point x="246" y="444" type="line"/>
      <point x="316" y="0" type="line"/>
      <point x="228" y="0" type="line"/>
    </contour>
  </outline>
</glyph>
<glyph name="afii57671" format="1">
  <advance width="600"/>
  <unicode hex="05D7"/>
  <outline>
    <contour>
      <point x="345" y="500" type="curve"/>
      <point x="30" y="500" type="line"/>
      <point x="30" y="450" type="line"/>
      <point x="345" y="450" type="line"/>
      <point x="457" y="450"/>
      <point x="475" y="395"/>
      <point x="475" y="280" type="curve" smooth="yes"/>
      <point x="475" y="0" type="line"/>
      <point x="525" y="0" type="line"/>
      <point x="525" y="280" type="line"/>
      <point x="525" y="425"/>
      <point x="486" y="500"/>
    </contour>
    <contour>
      <point x="75" y="0" type="line"/>
      <point x="125" y="0" type="line"/>
      <point x="125" y="302" type="line" smooth="yes"/>
      <point x="125" y="358"/>
      <point x="133" y="416"/>
      <point x="155" y="460" type="curve"/>
      <point x="105" y="460" type="line"/>
      <point x="83" y="415"/>
      <point x="75" y="360"/>
      <point x="75" y="301" type="curve" smooth="yes"/>
    </contour>
  </outline>
</glyph>
<glyph name="afii57672" format="1">
  <advance width="600"/>
  <unicode hex="05D8"/>
  <outline>
    <contour>
      <point x="270" y="0" type="curve" smooth="yes"/>
      <point x="300" y="0" type="line"/>
      <point x="300" y="50" type="line"/>
      <point x="175" y="50"/>
      <point x="125" y="95"/>
      <point x="125" y="240" type="curve" smooth="yes"/>
      <point x="125" y="500" type="line"/>
      <point x="75" y="500" type="line"/>
      <point x="75" y="220" type="line"/>
      <point x="75" y="70"/>
      <point x="145" y="0"/>
    </contour>
    <contour>
      <point x="330" y="0" type="line" smooth="yes"/>
      <point x="455" y="0"/>
      <point x="525" y="70"/>
      <point x="525" y="220" type="curve"/>
      <point x="525" y="360" type="line"/>
      <point x="475" y="360" type="line"/>
      <point x="475" y="240" type="line" smooth="yes"/>
      <point x="475" y="95"/>
      <point x="425" y="50"/>
      <point x="300" y="50" type="curve"/>
      <point x="300" y="0" type="line"/>
    </contour>
    <contour>
      <point x="275" y="370" type="curve"/>
      <point x="275" y="250" type="line"/>
      <point x="325" y="250" type="line"/>
      <point x="325" y="370" type="line"/>
      <point x="325" y="440"/>
      <point x="345" y="460"/>
      <point x="400" y="460" type="curve" smooth="yes"/>
      <point x="445" y="460"/>
      <point x="475" y="440"/>
      <point x="475" y="360" type="curve"/>
      <point x="525" y="360" type="line"/>
      <point x="525" y="465"/>
      <point x="475" y="510"/>
      <point x="400" y="510" type="curve" smooth="yes"/>
      <point x="320" y="510"/>
      <point x="275" y="470"/>
    </contour>
    <contour>
      <point x="300.0" y="650.0" type="move" name="top"/>
    </contour>
  </outline>
</glyph>
<glyph name="afii57673" format="1">
  <advance width="200"/>
  <unicode hex="05D9"/>
  <outline>
    <contour>
      <point x="125" y="250" type="line"/>
      <point x="125" y="500" type="line"/>
      <point x="75" y="500" type="line"/>
      <point x="75" y="250" type="line"/>
    </contour>
  </outline>
</glyph>
<glyph name="afii57674" format="1">
  <advance width="400"/>
  <unicode hex="05DA"/>
  <outline>
    <contour>
      <point x="0" y="450" type="line"/>
      <point x="305" y="450" type="line"/>
      <point x="295" y="500" type="line"/>
      <point x="0" y="500" type="line"/>
    </contour>
    <contour>
      <point x="325" y="-100" type="line"/>
      <point x="325" y="451" type="line"/>
      <point x="295" y="500" type="line"/>
      <point x="275" y="500" type="line"/>
      <point x="275" y="-100" type="line"/>
    </contour>
  </outline>
</glyph>
<glyph name="afii57675" format="1">
  <advance width="500"/>
  <unicode hex="05DB"/>
  <outline>
    <contour>
      <point x="245.0" y="500.0" type="curve"/>
      <point x="50.0" y="500.0" type="line"/>
      <point x="50.0" y="450.0" type="line"/>
      <point x="245.0" y="450.0" type="line"/>
      <point x="357.0" y="450.0"/>
      <point x="375.0" y="395.0"/>
      <point x="375.0" y="280.0" type="curve" smooth="yes"/>
      <point x="375.0" y="0.0" type="line"/>
      <point x="405" y="0" type="line"/>
      <point x="425" y="49" type="line"/>
      <point x="425.0" y="280.0" type="line"/>
      <point x="425.0" y="425.0"/>
      <point x="386.0" y="500.0"/>
    </contour>
    <contour>
      <point x="50" y="0" type="line"/>
      <point x="401" y="0" type="line"/>
      <point x="411" y="50" type="line"/>
      <point x="50" y="50" type="line"/>
    </contour>
    <contour>
      <point x="50" y="450" type="move"/>
    </contour>
  </outline>
</glyph>
<glyph name="afii57676" format="1">
  <advance width="601"/>
  <unicode hex="05DC"/>
  <outline>
    <contour>
      <point x="526" y="500" type="line"/>
      <point x="75" y="500" type="line"/>
      <point x="75" y="450" type="line"/>
      <point x="476" y="450" type="line"/>
      <point x="476" y="430" type="line" smooth="yes"/>
      <point x="476" y="281.0"/>
      <point x="450" y="192"/>
      <point x="93" y="50" type="curve"/>
      <point x="93" y="0" type="line"/>
      <point x="110" y="0" type="line"/>
      <point x="481" y="146"/>
      <point x="526" y="266.0"/>
      <point x="526" y="430" type="curve" smooth="yes"/>
    </contour>
    <contour>
      <point x="75" y="490" type="line"/>
      <point x="125" y="490" type="line"/>
      <point x="125" y="651" type="line" smooth="yes"/>
      <point x="75" y="651" type="line"/>
    </contour>
  </outline>
</glyph>
<glyph name="afii57677" format="1">
  <advance width="600"/>
  <unicode hex="05DD"/>
  <outline>
    <contour>
      <point x="360" y="450" type="line"/>
      <point x="465" y="450"/>
      <point x="480" y="405"/>
      <point x="480" y="310" type="curve" smooth="yes"/>
      <point x="480" y="0" type="line"/>
      <point x="530" y="0" type="line"/>
      <point x="530" y="310" type="line"/>
      <point x="530" y="435"/>
      <point x="493" y="500"/>
      <point x="360" y="500" type="curve"/>
      <point x="70" y="500" type="line"/>
      <point x="70" y="450" type="line"/>
    </contour>
    <contour>
      <point x="139" y="450" type="line"/>
      <point x="94" y="426"/>
      <point x="70" y="374"/>
      <point x="70" y="290" type="curve"/>
      <point x="70" y="0" type="line"/>
      <point x="120" y="0" type="line"/>
      <point x="120" y="290" type="line" smooth="yes"/>
      <point x="120" y="358"/>
      <point x="141" y="425"/>
      <point x="202" y="450" type="curve"/>
    </contour>
    <contour>
      <point x="104" y="0" type="line"/>
      <point x="504" y="0" type="line"/>
      <point x="504" y="50" type="line"/>
      <point x="104" y="50" type="line"/>
    </contour>
    <contour>
      <point x="300" y="500" type="move" name="top"/>
    </contour>
  </outline>
</glyph>
<glyph name="afii57678" format="1">
  <advance width="600"/>
  <unicode hex="05DE"/>
  <outline>
    <contour>
      <point x="351" y="0" type="line"/>
      <point x="504" y="0" type="line"/>
      <point x="504" y="50" type="line"/>
      <point x="351" y="50" type="line"/>
    </contour>
    <contour>
      <point x="65" y="0" type="line"/>
      <point x="115" y="0" type="line"/>
      <point x="144" y="341" type="line"/>
      <point x="139" y="421" type="line"/>
      <point x="124" y="500" type="line"/>
      <point x="75" y="500" type="line"/>
      <point x="98" y="384" type="line"/>
    </contour>
    <contour>
      <point x="139" y="421" type="curve"/>
      <point x="144" y="341" type="line"/>
      <point x="159" y="418"/>
      <point x="203" y="460"/>
      <point x="300" y="460" type="curve" smooth="yes"/>
      <point x="430" y="460"/>
      <point x="475" y="420"/>
      <point x="475" y="260" type="curve"/>
      <point x="475" y="0" type="line"/>
      <point x="525" y="0" type="line"/>
      <point x="525" y="290" type="line"/>
      <point x="525" y="440"/>
      <point x="465" y="510"/>
      <point x="315" y="510" type="curve"/>
      <point x="206.692307692" y="510.0"/>
      <point x="164.848798789" y="470.70922844"/>
    </contour>
    <contour>
      <point x="300.0" y="500.0" type="move" name="top"/>
    </contour>
  </outline>
</glyph>
<glyph name="afii57679" format="1">
  <advance width="200"/>
  <unicode hex="05DF"/>
  <outline>
    <contour>
      <point x="0" y="450" type="line"/>
      <point x="105" y="450" type="line"/>
      <point x="105" y="500" type="line"/>
      <point x="0" y="500" type="line"/>
    </contour>
    <contour>
      <point x="125" y="-100" type="line"/>
      <point x="125" y="500" type="line"/>
      <point x="75" y="500" type="line"/>
      <point x="75" y="-100" type="line"/>
    </contour>
  </outline>
</glyph>
<glyph name="afii57680" format="1">
  <advance width="300"/>
  <unicode hex="05E0"/>
  <outline>
    <contour>
      <point x="85" y="500" type="curve"/>
      <point x="50" y="500" type="line"/>
      <point x="50" y="450" type="line"/>
      <point x="85" y="450" type="line"/>
      <point x="162.538461538" y="450.0"/>
      <point x="175" y="425.0"/>
      <point x="175" y="280" type="curve" smooth="yes"/>
      <point x="175" y="0" type="line"/>
      <point x="205" y="0" type="line"/>
      <point x="225" y="49" type="line"/>
      <point x="225" y="280" type="line"/>
      <point x="225.0" y="455.0"/>
      <point x="194.666666667" y="500.0"/>
    </contour>
    <contour>
      <point x="50" y="0" type="line"/>
      <point x="201" y="0" type="line"/>
      <point x="211" y="50" type="line"/>
      <point x="50" y="50" type="line"/>
    </contour>
    <contour>
      <point x="50" y="450" type="move"/>
    </contour>
  </outline>
</glyph>
<glyph name="afii57681" format="1">
  <advance width="575"/>
  <unicode hex="05E1"/>
  <outline>
    <contour>
      <point x="300" y="40" type="curve"/>
      <point x="143" y="40"/>
      <point x="120" y="95"/>
      <point x="120" y="210" type="curve" smooth="yes"/>
      <point x="120" y="250" type="line"/>
      <point x="70" y="250" type="line"/>
      <point x="70" y="210" type="line"/>
      <point x="70" y="60"/>
      <point x="120" y="-10"/>
      <point x="300" y="-10" type="curve"/>
      <point x="480" y="-10"/>
      <point x="530" y="60"/>
      <point x="530" y="210" type="curve"/>
      <point x="530" y="250" type="line"/>
      <point x="480" y="250" type="line"/>
      <point x="480" y="210" type="line" smooth="yes"/>
      <point x="480" y="95"/>
      <point x="457" y="40"/>
    </contour>
    <contour>
      <point x="360" y="450" type="line"/>
      <point x="465" y="450"/>
      <point x="480.0" y="405.0"/>
      <point x="480.0" y="310.0" type="curve" smooth="yes"/>
      <point x="480.0" y="250.0" type="line"/>
      <point x="530.0" y="250.0" type="line"/>
      <point x="530.0" y="310.0" type="line"/>
      <point x="530.0" y="435.0"/>
      <point x="493" y="500"/>
      <point x="360" y="500" type="curve"/>
      <point x="70.0" y="500.0" type="line"/>
      <point x="70.0" y="450.0" type="line"/>
    </contour>
    <contour>
      <point x="139" y="450" type="line"/>
      <point x="94" y="426"/>
      <point x="70.0" y="374.0"/>
      <point x="70.0" y="290.0" type="curve"/>
      <point x="70.0" y="250.0" type="line"/>
      <point x="120.0" y="250.0" type="line"/>
      <point x="120.0" y="290.0" type="line" smooth="yes"/>
      <point x="120.0" y="358.0"/>
      <point x="141" y="425"/>
      <point x="202" y="450" type="curve"/>
    </contour>
    <contour>
      <point x="300" y="500" type="move" name="top"/>
    </contour>
  </outline>
</glyph>
<glyph name="afii57682" format="1">
  <advance width="561.0"/>
  <unicode hex="05E2"/>
  <outline>
    <contour>
      <point x="352" y="419" type="line"/>
      <point x="359" y="444"/>
      <point x="366" y="468"/>
      <point x="373" y="493" type="curve"/>
      <point x="521" y="454" type="line"/>
      <point x="523" y="431"/>
      <point x="524" y="407"/>
      <point x="524" y="384" type="curve"/>
      <point x="517" y="328"/>
      <point x="505" y="274"/>
      <point x="484" y="224" type="curve" smooth="yes" name="inserted"/>
      <point x="463" y="173"/>
      <point x="434" y="126"/>
      <point x="394" y="84" type="curve" smooth="yes"/>
      <point x="352" y="39"/>
      <point x="299" y="5"/>
      <point x="237" y="-26" type="curve" smooth="yes"/>
      <point x="191" y="-47"/>
      <point x="142" y="-65"/>
      <point x="86" y="-80" type="curve"/>
      <point x="61" y="-3" type="line"/>
      <point x="113" y="12"/>
      <point x="168" y="30"/>
      <point x="225" y="56" type="curve"/>
      <point x="189" y="150"/>
      <point x="155" y="242"/>
      <point x="119" y="336" type="curve" smooth="yes"/>
      <point x="109" y="360"/>
      <point x="104" y="372"/>
      <point x="93" y="384" type="curve" smooth="yes"/>
      <point x="80" y="395"/>
      <point x="63" y="403"/>
      <point x="29" y="419" type="curve"/>
      <point x="41" y="443"/>
      <point x="54" y="467"/>
      <point x="67" y="491" type="curve"/>
      <point x="104" y="476"/>
      <point x="129" y="466"/>
      <point x="148" y="451" type="curve" smooth="yes"/>
      <point x="166" y="438"/>
      <point x="178" y="421"/>
      <point x="189" y="393" type="curve" smooth="yes"/>
      <point x="196" y="376"/>
      <point x="202" y="359"/>
      <point x="210" y="338" type="curve" smooth="yes" name="inserted"/>
      <point x="218" y="317"/>
      <point x="228" y="290"/>
      <point x="241" y="252" type="curve" smooth="yes" name="inserted"/>
      <point x="255" y="214"/>
      <point x="272" y="166"/>
      <point x="296" y="99" type="curve"/>
      <point x="340" y="131"/>
      <point x="371" y="173"/>
      <point x="394" y="223" type="curve" smooth="yes"/>
      <point x="416" y="273"/>
      <point x="429" y="329"/>
      <point x="437" y="396" type="curve"/>
    </contour>
  </outline>
</glyph>
<glyph name="afii57683" format="1">
  <advance width="543.0"/>
  <unicode hex="05E3"/>
  <outline>
    <contour>
      <point x="159" y="385" type="line"/>
      <point x="215" y="374"/>
      <point x="272" y="362"/>
      <point x="327" y="350" type="curve" smooth="yes"/>
      <point x="361" y="343"/>
      <point x="395" y="330"/>
      <point x="422" y="307" type="curve" smooth="yes"/>
      <point x="448" y="282"/>
      <point x="467" y="246"/>
      <point x="467" y="189" type="curve" smooth="yes"/>
      <point x="467" y="-316" type="line"/>
      <point x="380" y="-316" type="line"/>
      <point x="380" y="177" type="line" smooth="yes"/>
      <point x="380" y="212"/>
      <point x="375" y="234"/>
      <point x="363" y="249" type="curve" smooth="yes"/>
      <point x="350" y="264"/>
      <point x="330" y="272"/>
      <point x="298" y="279" type="curve" smooth="yes"/>
      <point x="269" y="285"/>
      <point x="241" y="291"/>
      <point x="212" y="297" type="curve"/>
      <point x="156" y="170" type="line"/>
      <point x="257" y="110" type="line"/>
      <point x="217" y="45" type="line"/>
      <point x="52" y="143" type="line"/>
    </contour>
  </outline>
</glyph>
<glyph name="afii57684" format="1">
  <advance width="539"/>
  <unicode hex="05E4"/>
  <outline>
    <contour>
      <point x="165" y="543" type="line"/>
      <point x="179" y="540"/>
      <point x="202" y="535"/>
      <point x="230" y="530" type="curve" smooth="yes" name="inserted"/>
      <point x="258" y="524"/>
      <point x="288" y="518"/>
      <point x="317" y="511" type="curve" smooth="yes" name="inserted"/>
      <point x="345" y="504"/>
      <point x="368" y="497"/>
      <point x="383" y="492" type="curve" smooth="yes"/>
      <point x="419" y="478"/>
      <point x="441" y="459"/>
      <point x="455" y="435" type="curve" smooth="yes" name="inserted"/>
      <point x="468" y="410"/>
      <point x="472" y="381"/>
      <point x="472" y="347" type="curve" smooth="yes"/>
      <point x="472" y="99" type="line" smooth="yes"/>
      <point x="472" y="83"/>
      <point x="471" y="69"/>
      <point x="469" y="54" type="curve" smooth="yes"/>
      <point x="466" y="39"/>
      <point x="463" y="21"/>
      <point x="458" y="0" type="curve"/>
      <point x="45" y="0" type="line"/>
      <point x="45" y="76" type="line"/>
      <point x="387" y="76" type="line"/>
      <point x="387" y="336" type="line" smooth="yes"/>
      <point x="387" y="370"/>
      <point x="383" y="391"/>
      <point x="372" y="405" type="curve" smooth="yes" name="inserted"/>
      <point x="360" y="420"/>
      <point x="342" y="427"/>
      <point x="312" y="435" type="curve" smooth="yes"/>
      <point x="283" y="442"/>
      <point x="249" y="450"/>
      <point x="220" y="457" type="curve"/>
      <point x="163" y="328" type="line"/>
      <point x="263" y="269" type="line"/>
      <point x="223" y="203" type="line"/>
      <point x="58" y="301" type="line"/>
    </contour>
  </outline>
</glyph>
<glyph name="afii57685" format="1">
  <advance width="548"/>
  <unicode hex="05E5"/>
  <outline>
    <contour>
      <point x="343" y="377" type="line"/>
      <point x="488" y="336" type="line"/>
      <point x="490" y="313" name="inserted"/>
      <point x="490" y="291"/>
      <point x="488" y="268" type="curve"/>
      <point x="467" y="215"/>
      <point x="447" y="170"/>
      <point x="419" y="122" type="curve" smooth="yes"/>
      <point x="398" y="86"/>
      <point x="379" y="62"/>
      <point x="358" y="42" type="curve" smooth="yes" name="inserted"/>
      <point x="336" y="22"/>
      <point x="312" y="7"/>
      <point x="284" y="-12" type="curve"/>
      <point x="329" y="-120" type="line" smooth="yes"/>
      <point x="342" y="-152"/>
      <point x="351" y="-172"/>
      <point x="360" y="-189" type="curve" smooth="yes"/>
      <point x="368" y="-205"/>
      <point x="374" y="-217"/>
      <point x="383" y="-228" type="curve" smooth="yes" name="inserted"/>
      <point x="392" y="-239"/>
      <point x="401" y="-249"/>
      <point x="415" y="-262" type="curve"/>
      <point x="393" y="-283" name="inserted"/>
      <point x="372" y="-303"/>
      <point x="350" y="-322" type="curve"/>
      <point x="335" y="-306" type="line" smooth="yes"/>
      <point x="304" y="-271"/>
      <point x="286" y="-239"/>
      <point x="270" y="-201" type="curve" smooth="yes"/>
      <point x="38" y="342" type="line"/>
      <point x="118" y="375" type="line"/>
      <point x="251" y="61" type="line"/>
      <point x="272" y="74"/>
      <point x="290" y="87"/>
      <point x="307" y="105" type="curve" smooth="yes" name="inserted"/>
      <point x="323" y="122"/>
      <point x="339" y="143"/>
      <point x="354" y="172" type="curve" smooth="yes"/>
      <point x="370" y="202"/>
      <point x="389" y="241"/>
      <point x="402" y="280" type="curve"/>
      <point x="321" y="303" type="line"/>
    </contour>
  </outline>
</glyph>
<glyph name="afii57686" format="1">
  <advance width="600"/>
  <unicode hex="05E6"/>
  <outline>
    <contour>
      <point x="550" y="0" type="line"/>
      <point x="550" y="20" type="line"/>
      <point x="510" y="40" type="line"/>
      <point x="325" y="50" type="line"/>
      <point x="40" y="50" type="line"/>
      <point x="40" y="0" type="line"/>
    </contour>
    <contour>
      <point x="500" y="0" type="line"/>
      <point x="550" y="20" type="line"/>
      <point x="91" y="500" type="line"/>
      <point x="40" y="500" type="line"/>
      <point x="40" y="480" type="line"/>
    </contour>
    <contour>
      <point x="399" y="146" type="line"/>
      <point x="506" y="192"/>
      <point x="525" y="266"/>
      <point x="525" y="405" type="curve" smooth="yes"/>
      <point x="525" y="500" type="line"/>
      <point x="475" y="500" type="line"/>
      <point x="475" y="405" type="line" smooth="yes"/>
      <point x="475" y="268"/>
      <point x="467" y="229"/>
      <point x="361" y="172" type="curve"/>
    </contour>
    <contour>
      <point x="400" y="450" type="line"/>
      <point x="505" y="450" type="line"/>
      <point x="505" y="500" type="line"/>
      <point x="400" y="500" type="line"/>
    </contour>
    <contour>
      <point x="290.0" y="500.0" type="move" name="top"/>
    </contour>
  </outline>
</glyph>
<glyph name="afii57687" format="1">
  <advance width="601"/>
  <unicode hex="05E7"/>
  <outline>
    <contour>
      <point x="526" y="500" type="line"/>
      <point x="75" y="500" type="line"/>
      <point x="75" y="450" type="line"/>
      <point x="476" y="450" type="line"/>
      <point x="476" y="394" type="line" smooth="yes"/>
      <point x="476" y="229"/>
      <point x="460" y="199"/>
      <point x="249" y="50" type="curve"/>
      <point x="249" y="0" type="line"/>
      <point x="266" y="0" type="line"/>
      <point x="492" y="152"/>
      <point x="526" y="216"/>
      <point x="526" y="394" type="curve" smooth="yes"/>
    </contour>
    <contour>
      <point x="75" y="-200" type="line"/>
      <point x="125" y="-200" type="line"/>
      <point x="125" y="300" type="line" smooth="yes"/>
      <point x="75" y="300" type="line"/>
    </contour>
  </outline>
</glyph>
<glyph name="afii57688" format="1">
  <advance width="500"/>
  <unicode hex="05E8"/>
  <outline>
    <contour>
      <point x="245" y="500" type="curve"/>
      <point x="50" y="500" type="line"/>
      <point x="50" y="450" type="line"/>
      <point x="245" y="450" type="line"/>
      <point x="357" y="450"/>
      <point x="375" y="395"/>
      <point x="375" y="280" type="curve" smooth="yes"/>
      <point x="375" y="0" type="line"/>
      <point x="425" y="0" type="line"/>
      <point x="425" y="280" type="line"/>
      <point x="425" y="425"/>
      <point x="386" y="500"/>
    </contour>
  </outline>
</glyph>
<glyph name="afii57689" format="1">
  <advance width="600"/>
  <unicode hex="05E9"/>
  <outline>
    <contour>
      <point x="275" y="50" type="curve" smooth="yes"/>
      <point x="164" y="50" type="line"/>
      <point x="120" y="500" type="line"/>
      <point x="70" y="500" type="line"/>
      <point x="118" y="0" type="line"/>
      <point x="275" y="0" type="line" smooth="yes"/>
      <point x="471" y="0"/>
      <point x="525" y="82.9523809524"/>
      <point x="525" y="260" type="curve" smooth="yes"/>
      <point x="525" y="500" type="line"/>
      <point x="475" y="500" type="line"/>
      <point x="475" y="260" type="line" smooth="yes"/>
      <point x="475" y="118.25"/>
      <point x="447.222222222" y="50"/>
    </contour>
    <contour>
      <point x="140" y="228" type="line"/>
      <point x="287.350692793" y="254.062027297"/>
      <point x="323.590353779" y="302.24051916"/>
      <point x="325" y="384" type="curve" smooth="yes"/>
      <point x="327" y="500" type="line"/>
      <point x="277" y="500" type="line"/>
      <point x="275" y="384" type="line" smooth="yes"/>
      <point x="273.901000694" y="320.258040241"/>
      <point x="235.841874109" y="292.964502351"/>
      <point x="138" y="271" type="curve"/>
    </contour>
  </outline>
</glyph>
<glyph name="afii57690" format="1">
  <advance width="600"/>
  <unicode hex="05EA"/>
  <outline>
    <contour>
      <point x="345" y="500" type="curve"/>
      <point x="50" y="500" type="line"/>
      <point x="50" y="450" type="line"/>
      <point x="345" y="450" type="line"/>
      <point x="457" y="450"/>
      <point x="475" y="395"/>
      <point x="475" y="280" type="curve" smooth="yes"/>
      <point x="475" y="0" type="line"/>
      <point x="525" y="0" type="line"/>
      <point x="525" y="280" type="line"/>
      <point x="525" y="425"/>
      <point x="486" y="500"/>
    </contour>
    <contour>
      <point x="51" y="0" type="line"/>
      <point x="201" y="0" type="line"/>
      <point x="186" y="50" type="line"/>
      <point x="51" y="50" type="line"/>
    </contour>
    <contour>
      <point x="155" y="0" type="line"/>
      <point x="201" y="0" type="line"/>
      <point x="201" y="18" type="line"/>
      <point x="155" y="212" type="line" smooth="yes"/>
      <point x="135" y="298"/>
      <point x="133.940328525" y="397.880657049"/>
      <point x="165" y="460" type="curve"/>
      <point x="115" y="460" type="line"/>
      <point x="83.8809842066" y="396.347467695"/>
      <point x="84" y="301"/>
      <point x="105" y="211" type="curve" smooth="yes"/>
    </contour>
  </outline>
</glyph>
<glyph name="fraction" format="1">
  <advance width="0"/>
  <unicode hex="2044"/>
  <outline>
    <contour>
      <point x="-360" y="0" type="line"/>
      <point x="-290" y="0" type="line"/>
      <point x="360" y="700" type="line"/>
      <point x="290" y="700" type="line"/>
    </contour>
  </outline>
</glyph>
<glyph name="Euro" format="1">
  <advance width="600"/>
  <unicode hex="20AC"/>
  <outline>
    <contour>
      <point x="330" y="700" type="curve" smooth="yes"/>
      <point x="300" y="700" type="line"/>
      <point x="300" y="650" type="line"/>
      <point x="440" y="650"/>
      <point x="475" y="625"/>
      <point x="475" y="460" type="curve" smooth="yes"/>
      <point x="475" y="450" type="line"/>
      <point x="525" y="450" type="line"/>
      <point x="525" y="480" type="line"/>
      <point x="525" y="645"/>
      <point x="460" y="700"/>
    </contour>
    <contour>
      <point x="270" y="700" type="line" smooth="yes"/>
      <point x="130" y="700"/>
      <point x="75" y="645"/>
      <point x="75" y="480" type="curve" smooth="yes"/>
      <point x="75" y="350" type="line"/>
      <point x="125" y="350" type="line"/>
      <point x="125" y="460" type="line" smooth="yes"/>
      <point x="125" y="625"/>
      <point x="150" y="650"/>
      <point x="300" y="650" type="curve"/>
      <point x="300" y="700" type="line"/>
    </contour>
    <contour>
      <point x="330" y="0" type="line" smooth="yes"/>
      <point x="460" y="0"/>
      <point x="525" y="55"/>
      <point x="525" y="220" type="curve"/>
      <point x="525" y="250" type="line"/>
      <point x="475" y="250" type="line"/>
      <point x="475" y="240" type="line" smooth="yes"/>
      <point x="475" y="75"/>
      <point x="440" y="50"/>
      <point x="300" y="50" type="curve"/>
      <point x="300" y="0" type="line"/>
    </contour>
    <contour>
      <point x="270" y="0" type="curve" smooth="yes"/>
      <point x="300" y="0" type="line"/>
      <point x="300" y="50" type="line"/>
      <point x="150" y="50"/>
      <point x="125" y="75"/>
      <point x="125" y="240" type="curve" smooth="yes"/>
      <point x="125" y="350" type="line"/>
      <point x="75" y="350" type="line"/>
      <point x="75" y="220" type="line" smooth="yes"/>
      <point x="75" y="55"/>
      <point x="130" y="0"/>
    </contour>
    <contour>
      <point x="15" y="400" type="line"/>
      <point x="390" y="400" type="line"/>
      <point x="395" y="450" type="line"/>
      <point x="20" y="450" type="line"/>
    </contour>
    <contour>
      <point x="0" y="250" type="line"/>
      <point x="370" y="250" type="line"/>
      <point x="375" y="300" type="line"/>
      <point x="5" y="300" type="line"/>
    </contour>
  </outline>
</glyph>
<glyph name="leftwardsarrow" format="1">
  <advance width="600"/>
  <unicode hex="2190"/>
  <outline>
    <contour>
      <point x="575" y="225" type="line"/>
      <point x="575" y="275" type="line"/>
      <point x="275" y="275" type="line"/>
      <point x="50" y="265" type="line"/>
      <point x="50" y="235" type="line"/>
      <point x="275" y="225" type="line"/>
    </contour>
    <contour>
      <point x="25" y="265" type="line"/>
      <point x="25" y="240" type="line"/>
      <point x="85" y="255" type="line"/>
      <point x="80" y="260" type="line"/>
      <point x="180" y="350" type="line"/>
      <point x="320" y="485" type="line"/>
      <point x="320" y="500" type="line"/>
      <point x="260" y="500" type="line"/>
    </contour>
    <contour>
      <point x="25" y="235" type="line"/>
      <point x="260" y="0" type="line"/>
      <point x="320" y="0" type="line"/>
      <point x="320" y="15" type="line"/>
      <point x="180" y="150" type="line"/>
      <point x="80" y="240" type="line"/>
      <point x="85" y="245" type="line"/>
      <point x="85" y="270" type="line"/>
      <point x="25" y="260" type="line"/>
    </contour>
  </outline>
</glyph>
<glyph name="rightarrowoverleftarrow" format="1">
  <advance width="1000"/>
  <unicode hex="21C4"/>
  <outline>
    <contour>
      <point x="100" y="425" type="line"/>
      <point x="405" y="425" type="line"/>
      <point x="405" y="475" type="line"/>
      <point x="100" y="475" type="line"/>
    </contour>
    <contour>
      <point x="595" y="25" type="line"/>
      <point x="900" y="25" type="line"/>
      <point x="900" y="75" type="line"/>
      <point x="595" y="75" type="line"/>
    </contour>
    <component base="leftwardsarrow" xScale="-1.0000000000000009" xyScale="-1.3877787807814457e-16" yxScale="1.3877787807814457e-16" yScale="-1.0000000000000009" xOffset="950" yOffset="700"/>
    <component base="leftwardsarrow" xScale="1.0000000000000009" xyScale="3.3306690738754696e-16" yxScale="-3.3306690738754696e-16" yScale="1.0000000000000009" xOffset="50" yOffset="-200"/>
  </outline>
</glyph>
<glyph name="squarewithblacksmallsquare" format="1">
  <advance width="1000"/>
  <unicode hex="25A3"/>
  <outline>
    <contour>
      <point x="400" y="150" type="line"/>
      <point x="600" y="150" type="line"/>
      <point x="600" y="350" type="line"/>
      <point x="400" y="350" type="line"/>
    </contour>
    <component base="whitelargesquare"/>
  </outline>
</glyph>
<glyph name="squarewithverticalfill" format="1">
  <advance width="1000"/>
  <unicode hex="25A5"/>
  <outline>
    <contour>
      <point x="525" y="-150" type="line"/>
      <point x="525" y="650" type="line"/>
      <point x="475" y="650" type="line"/>
      <point x="475" y="-150" type="line"/>
    </contour>
    <contour>
      <point x="315" y="-150" type="line"/>
      <point x="315" y="650" type="line"/>
      <point x="265" y="650" type="line"/>
      <point x="265" y="-150" type="line"/>
    </contour>
    <contour>
      <point x="735" y="-150" type="line"/>
      <point x="735" y="650" type="line"/>
      <point x="685" y="650" type="line"/>
      <point x="685" y="-150" type="line"/>
    </contour>
    <component base="whitelargesquare"/>
  </outline>
</glyph>
<glyph name="squareuprighttolowleftfill" format="1">
  <advance width="1000"/>
  <unicode hex="25A8"/>
  <outline>
    <contour>
      <point x="625" y="-160" type="line"/>
      <point x="695" y="-160" type="line"/>
      <point x="910" y="55" type="line"/>
      <point x="910" y="125" type="line"/>
    </contour>
    <contour>
      <point x="385" y="655" type="line"/>
      <point x="315" y="655" type="line"/>
      <point x="100" y="440" type="line"/>
      <point x="100" y="370" type="line"/>
    </contour>
    <contour>
      <point x="340" y="-160" type="line"/>
      <point x="410" y="-160" type="line"/>
      <point x="910" y="340" type="line"/>
      <point x="910" y="410" type="line"/>
    </contour>
    <contour>
      <point x="665" y="655" type="line"/>
      <point x="595" y="655" type="line"/>
      <point x="95" y="155" type="line"/>
      <point x="95" y="85" type="line"/>
    </contour>
    <contour>
      <point x="910" y="620" type="line"/>
      <point x="910" y="655" type="line"/>
      <point x="875" y="655" type="line"/>
      <point x="100" y="-120" type="line"/>
      <point x="100" y="-155" type="line"/>
      <point x="135" y="-155" type="line"/>
    </contour>
    <component base="whitelargesquare"/>
  </outline>
</glyph>
<glyph name="blackdiamond" format="1">
  <advance width="1000"/>
  <unicode hex="25C6"/>
  <outline>
    <contour>
      <point x="500" y="-245" type="line"/>
      <point x="995" y="250" type="line"/>
      <point x="500" y="745" type="line"/>
      <point x="5" y="250" type="line"/>
    </contour>
  </outline>
</glyph>
<glyph name="diamondwithblacksmalldiamond" format="1">
  <advance width="1000"/>
  <unicode hex="25C8"/>
  <outline>
    <contour>
      <point x="500" y="55" type="line"/>
      <point x="700" y="250" type="line"/>
      <point x="500" y="450" type="line"/>
      <point x="305" y="250" type="line"/>
    </contour>
    <component base="whitediamond"/>
  </outline>
</glyph>
<glyph name="whitecircle" format="1">
  <advance width="1000"/>
  <unicode hex="25CB"/>
  <outline>
    <contour>
      <point x="500" y="-210" type="curve" smooth="yes"/>
      <point x="800" y="-210"/>
      <point x="960" y="-55"/>
      <point x="960" y="250" type="curve" smooth="yes"/>
      <point x="960" y="550"/>
      <point x="800" y="710"/>
      <point x="500" y="710" type="curve" smooth="yes"/>
      <point x="200" y="710"/>
      <point x="40" y="550"/>
      <point x="40" y="250" type="curve" smooth="yes"/>
      <point x="40" y="-55"/>
      <point x="200" y="-210"/>
    </contour>
    <contour>
      <point x="500" y="-160" type="curve" smooth="yes"/>
      <point x="232.3611111111111" y="-160.0"/>
      <point x="90.0" y="-25.0"/>
      <point x="90" y="250" type="curve" smooth="yes"/>
      <point x="90.0" y="520.0"/>
      <point x="232.3611111111111" y="660.0"/>
      <point x="500" y="660" type="curve" smooth="yes"/>
      <point x="767.6388888888889" y="660.0"/>
      <point x="910.0" y="520.0"/>
      <point x="910" y="250" type="curve" smooth="yes"/>
      <point x="910.0" y="-25.0"/>
      <point x="767.6388888888889" y="-160.0"/>
    </contour>
  </outline>
</glyph>
<glyph name="circlewithverticalfill" format="1">
  <advance width="1000"/>
  <unicode hex="25CD"/>
  <outline>
    <contour>
      <point x="325" y="-145" type="line"/>
      <point x="325" y="660" type="line"/>
      <point x="275" y="660" type="line"/>
      <point x="275" y="-145" type="line"/>
    </contour>
    <contour>
      <point x="725" y="-145" type="line"/>
      <point x="725" y="660" type="line"/>
      <point x="675" y="660" type="line"/>
      <point x="675" y="-145" type="line"/>
    </contour>
    <contour>
      <point x="525" y="-190" type="line"/>
      <point x="525" y="700" type="line"/>
      <point x="475" y="700" type="line"/>
      <point x="475" y="-190" type="line"/>
    </contour>
    <component base="whitecircle"/>
  </outline>
</glyph>
<glyph name="blackcircle" format="1">
  <advance width="1000"/>
  <unicode hex="25CF"/>
  <outline>
    <contour>
      <point x="500" y="-210" type="curve" smooth="yes"/>
      <point x="800" y="-210"/>
      <point x="960" y="-55"/>
      <point x="960" y="250" type="curve" smooth="yes"/>
      <point x="960" y="550"/>
      <point x="800" y="710"/>
      <point x="500" y="710" type="curve" smooth="yes"/>
      <point x="200" y="710"/>
      <point x="40" y="550"/>
      <point x="40" y="250" type="curve" smooth="yes"/>
      <point x="40" y="-55"/>
      <point x="200" y="-210"/>
    </contour>
  </outline>
</glyph>
<glyph name="circlewithlowerhalfblack" format="1">
  <advance width="1000"/>
  <unicode hex="25D2"/>
  <outline>
    <contour>
      <point x="915" y="250" type="curve"/>
      <point x="85" y="250" type="line"/>
      <point x="85" y="-20"/>
      <point x="230" y="-165"/>
      <point x="500" y="-165" type="curve" smooth="yes"/>
      <point x="775" y="-165"/>
      <point x="915" y="-20"/>
    </contour>
    <component base="whitecircle"/>
  </outline>
</glyph>
<glyph name="circleupleftquadrantwhite" format="1">
  <advance width="1000"/>
  <unicode hex="25D5"/>
  <outline>
    <contour>
      <point x="85" y="250" type="line"/>
      <point x="85" y="-25"/>
      <point x="230" y="-165"/>
      <point x="500" y="-165" type="curve" smooth="yes"/>
      <point x="770" y="-165"/>
      <point x="915" y="-25"/>
      <point x="915" y="250" type="curve" smooth="yes"/>
      <point x="915" y="520"/>
      <point x="770" y="665"/>
      <point x="500" y="665" type="curve"/>
      <point x="500" y="250" type="line"/>
    </contour>
    <component base="whitecircle"/>
  </outline>
</glyph>
<glyph name="squareupleftdiagonalhalfblack" format="1">
  <advance width="1000"/>
  <unicode hex="25E9"/>
  <outline>
    <contour>
      <point x="80" y="-170" type="line"/>
      <point x="920" y="670" type="line"/>
      <point x="80" y="670" type="line"/>
    </contour>
    <component base="whitelargesquare"/>
  </outline>
</glyph>
<glyph name="squareverticalbisectingline" format="1">
  <advance width="1000"/>
  <unicode hex="25EB"/>
  <outline>
    <contour>
      <point x="525" y="-150" type="line"/>
      <point x="525" y="650" type="line"/>
      <point x="475" y="650" type="line"/>
      <point x="475" y="-150" type="line"/>
    </contour>
    <component base="whitelargesquare"/>
  </outline>
</glyph>
<glyph name="squarewithlowerrightquadrant" format="1">
  <advance width="1000"/>
  <unicode hex="25F2"/>
  <outline>
    <contour>
      <point x="900" y="225" type="line"/>
      <point x="900" y="275" type="line"/>
      <point x="475" y="275" type="line"/>
      <point x="475" y="225" type="line"/>
    </contour>
    <contour>
      <point x="475" y="225" type="line"/>
      <point x="525" y="225" type="line"/>
      <point x="525" y="650" type="line"/>
      <point x="475" y="650" type="line"/>
    </contour>
    <component base="whitelargesquare"/>
  </outline>
</glyph>
<glyph name="skullandcrossbones" format="1">
  <advance width="1000"/>
  <unicode hex="2620"/>
  <outline>
    <contour>
      <point x="350" y="125" type="line"/>
      <point x="300" y="125" type="line"/>
      <point x="300" y="-25" type="line"/>
      <point x="315" y="-200" type="line"/>
      <point x="335" y="-200" type="line"/>
      <point x="350" y="-25" type="line"/>
    </contour>
    <contour>
      <point x="510" y="100" type="line"/>
      <point x="485" y="100" type="line"/>
      <point x="475" y="-50" type="line"/>
      <point x="490" y="-200" type="line"/>
      <point x="510" y="-200" type="line"/>
      <point x="525" y="-50" type="line"/>
    </contour>
    <contour>
      <point x="700" y="125" type="line"/>
      <point x="650" y="125" type="line"/>
      <point x="650" y="-25" type="line"/>
      <point x="665" y="-200" type="line"/>
      <point x="685" y="-200" type="line"/>
      <point x="700" y="-25" type="line"/>
    </contour>
    <contour>
      <point x="350" y="150" type="curve"/>
      <point x="180" y="185"/>
      <point x="90" y="270"/>
      <point x="90" y="400" type="curve" smooth="yes"/>
      <point x="90" y="565"/>
      <point x="230" y="660"/>
      <point x="500" y="660" type="curve" smooth="yes"/>
      <point x="770" y="660"/>
      <point x="910" y="565"/>
      <point x="910" y="400" type="curve" smooth="yes"/>
      <point x="910" y="270"/>
      <point x="820" y="185"/>
      <point x="650" y="150" type="curve" smooth="yes"/>
      <point x="650" y="150"/>
      <point x="650" y="100"/>
      <point x="650" y="100" type="curve"/>
      <point x="850" y="135"/>
      <point x="960" y="235"/>
      <point x="960" y="400" type="curve" smooth="yes"/>
      <point x="960" y="600"/>
      <point x="800" y="710"/>
      <point x="500" y="710" type="curve" smooth="yes"/>
      <point x="200" y="710"/>
      <point x="40" y="600"/>
      <point x="40" y="400" type="curve" smooth="yes"/>
      <point x="40" y="235"/>
      <point x="150" y="135"/>
      <point x="350" y="100" type="curve" smooth="yes"/>
      <point x="350" y="100"/>
      <point x="350" y="150"/>
    </contour>
    <contour>
      <point x="490" y="385" type="line"/>
      <point x="425" y="220" type="line" smooth="yes"/>
      <point x="425" y="200" type="line"/>
      <point x="465" y="200" type="line"/>
      <point x="500" y="305" type="line"/>
      <point x="535" y="200" type="line"/>
      <point x="575" y="200" type="line"/>
      <point x="575" y="220" type="line"/>
      <point x="510" y="385" type="line"/>
    </contour>
    <contour>
      <point x="310" y="-75" type="line"/>
      <point x="670" y="-75" type="line"/>
      <point x="670" y="-25" type="line"/>
      <point x="310" y="-25" type="line"/>
    </contour>
    <component base="roundeddot" xOffset="220" yOffset="385"/>
    <component base="roundeddot" xOffset="580" yOffset="385"/>
  </outline>
</glyph>
<glyph name="whitesmilingface" format="1">
  <advance width="1000"/>
  <unicode hex="263A"/>
  <outline>
    <contour>
      <point x="500" y="50" type="curve" smooth="yes"/>
      <point x="613.3333333333334" y="50.0"/>
      <point x="659.8401662305812" y="74.12091426819671"/>
      <point x="670" y="130" type="curve"/>
      <point x="330" y="130" type="line"/>
      <point x="340.15983376941875" y="74.1209142681967"/>
      <point x="386.6666666666667" y="50.0"/>
    </contour>
    <component base="whitecircle"/>
    <component base="roundeddot" xOffset="220" yOffset="330"/>
    <component base="roundeddot" xOffset="580" yOffset="330"/>
  </outline>
</glyph>
<glyph name="blacksmilingface" format="1">
  <advance width="1000"/>
  <unicode hex="263B"/>
  <outline>
    <contour>
      <point x="500" y="50" type="curve" smooth="yes"/>
      <point x="615" y="50"/>
      <point x="660" y="75"/>
      <point x="670" y="130" type="curve"/>
      <point x="330" y="130" type="line"/>
      <point x="340" y="75"/>
      <point x="385" y="50"/>
    </contour>
    <contour>
      <point x="500" y="-210" type="curve" smooth="yes"/>
      <point x="200" y="-210"/>
      <point x="40" y="-55"/>
      <point x="40" y="250" type="curve" smooth="yes"/>
      <point x="40" y="550"/>
      <point x="200" y="710"/>
      <point x="500" y="710" type="curve" smooth="yes"/>
      <point x="800" y="710"/>
      <point x="960" y="550"/>
      <point x="960" y="250" type="curve" smooth="yes"/>
      <point x="960" y="-55"/>
      <point x="800" y="-210"/>
    </contour>
    <component base="roundeddot" xOffset="220" yOffset="330"/>
    <component base="roundeddot" xOffset="580" yOffset="330"/>
  </outline>
</glyph>
<glyph name="dottedsquare" format="1">
  <advance width="1000"/>
  <unicode hex="2B1A"/>
  <outline>
    <contour>
      <point x="500" y="120" type="curve" smooth="yes"/>
      <point x="415.0" y="120.0"/>
      <point x="370.0" y="163.33333333333334"/>
      <point x="370" y="250" type="curve" smooth="yes"/>
      <point x="370.0" y="335.0"/>
      <point x="416.94444444444446" y="380.0"/>
      <point x="500" y="380" type="curve" smooth="yes"/>
      <point x="585.0" y="380.0"/>
      <point x="630.0" y="336.66666666666663"/>
      <point x="630" y="250" type="curve" smooth="yes"/>
      <point x="630.0" y="163.33333333333334"/>
      <point x="585.0" y="120.0"/>
    </contour>
    <component base="whitelargesquare"/>
  </outline>
</glyph>
<glyph name="uniFB2A" format="1">
  <advance width="716.0"/>
  <unicode hex="FB2A"/>
  <outline>
    <contour>
      <point x="604" y="679" type="curve" smooth="yes"/>
      <point x="630" y="679"/>
      <point x="650" y="659"/>
      <point x="650" y="634" type="curve" smooth="yes"/>
      <point x="650" y="607"/>
      <point x="630" y="587"/>
      <point x="604" y="587" type="curve" smooth="yes"/>
      <point x="579" y="587"/>
      <point x="559" y="608"/>
      <point x="559" y="634" type="curve" smooth="yes"/>
      <point x="559" y="658"/>
      <point x="579" y="679"/>
    </contour>
    <contour>
      <point x="100" y="270" type="line" smooth="yes"/>
      <point x="95" y="334"/>
      <point x="93" y="374"/>
      <point x="90" y="407" type="curve" smooth="yes" name="inserted"/>
      <point x="86" y="439"/>
      <point x="80" y="464"/>
      <point x="67" y="495" type="curve"/>
      <point x="90" y="508"/>
      <point x="116" y="518"/>
      <point x="142" y="528" type="curve"/>
      <point x="154" y="503"/>
      <point x="162" y="483"/>
      <point x="168" y="457" type="curve" smooth="yes" name="inserted"/>
      <point x="173" y="430"/>
      <point x="176" y="399"/>
      <point x="179" y="353" type="curve" smooth="yes"/>
      <point x="200" y="73" type="line"/>
      <point x="212" y="72" name="inserted"/>
      <point x="223" y="72"/>
      <point x="235" y="72" type="curve" smooth="yes"/>
      <point x="348" y="72"/>
      <point x="432" y="108"/>
      <point x="489" y="171" type="curve" smooth="yes" name="inserted"/>
      <point x="545" y="233"/>
      <point x="572" y="321"/>
      <point x="572" y="425" type="curve" smooth="yes"/>
      <point x="572" y="453"/>
      <point x="570" y="481"/>
      <point x="567" y="510" type="curve"/>
      <point x="595" y="517"/>
      <point x="621" y="522"/>
      <point x="652" y="527" type="curve"/>
      <point x="657" y="498"/>
      <point x="660" y="468"/>
      <point x="660" y="435" type="curve" smooth="yes"/>
      <point x="660" y="288"/>
      <point x="619" y="178"/>
      <point x="543" y="104" type="curve" smooth="yes" name="inserted"/>
      <point x="467" y="29"/>
      <point x="359" y="-8"/>
      <point x="223" y="-8" type="curve" smooth="yes"/>
      <point x="190" y="-8"/>
      <point x="157" y="-7"/>
      <point x="122" y="-2" type="curve"/>
    </contour>
    <contour>
      <point x="403" y="527" type="line"/>
      <point x="408" y="511" name="inserted"/>
      <point x="410" y="495"/>
      <point x="410" y="480" type="curve" smooth="yes"/>
      <point x="410" y="460"/>
      <point x="407" y="441"/>
      <point x="402" y="421" type="curve" smooth="yes"/>
      <point x="392" y="387"/>
      <point x="378" y="355"/>
      <point x="363" y="321" type="curve" smooth="yes"/>
      <point x="308" y="199" type="line"/>
      <point x="234" y="232" type="line"/>
      <point x="288" y="353" type="line" smooth="yes"/>
      <point x="307" y="395"/>
      <point x="317" y="420"/>
      <point x="323" y="442" type="curve" smooth="yes"/>
      <point x="325" y="452" name="inserted"/>
      <point x="326" y="462"/>
      <point x="326" y="473" type="curve" smooth="yes"/>
      <point x="326" y="483" name="inserted"/>
      <point x="325" y="496"/>
      <point x="323" y="511" type="curve"/>
    </contour>
  </outline>
</glyph>
<glyph name="uniFB2E" format="1">
  <advance width="576"/>
  <unicode hex="FB2E"/>
  <outline>
    <contour>
      <point x="59" y="-140" type="line"/>
      <point x="59" y="-121"/>
      <point x="59" y="-97"/>
      <point x="59" y="-69" type="curve" smooth="yes" name="inserted"/>
      <point x="60" y="-41"/>
      <point x="60" y="-11"/>
      <point x="61" y="18" type="curve" smooth="yes"/>
      <point x="62" y="68"/>
      <point x="68" y="106"/>
      <point x="80" y="138" type="curve" smooth="yes" name="inserted"/>
      <point x="91" y="170"/>
      <point x="108" y="196"/>
      <point x="131" y="223" type="curve"/>
      <point x="108" y="257"/>
      <point x="92" y="283"/>
      <point x="82" y="306" type="curve" smooth="yes"/>
      <point x="71" y="329"/>
      <point x="64" y="354"/>
      <point x="59" y="375" type="curve"/>
      <point x="83" y="386"/>
      <point x="111" y="395"/>
      <point x="140" y="402" type="curve"/>
      <point x="142" y="393"/>
      <point x="144" y="386"/>
      <point x="147" y="378" type="curve" smooth="yes"/>
      <point x="154" y="357"/>
      <point x="161" y="336"/>
      <point x="175" y="311" type="curve" smooth="yes" name="inserted"/>
      <point x="188" y="286"/>
      <point x="207" y="256"/>
      <point x="238" y="217" type="curve" smooth="yes"/>
      <point x="249" y="203"/>
      <point x="258" y="193"/>
      <point x="272" y="177" type="curve" smooth="yes" name="inserted"/>
      <point x="286" y="161"/>
      <point x="305" y="139"/>
      <point x="338" y="102" type="curve" smooth="yes"/>
      <point x="340" y="99" type="line"/>
      <point x="364" y="116"/>
      <point x="378" y="135"/>
      <point x="389" y="158" type="curve" smooth="yes" name="inserted"/>
      <point x="400" y="180"/>
      <point x="408" y="206"/>
      <point x="417" y="235" type="curve" smooth="yes"/>
      <point x="424" y="261"/>
      <point x="431" y="287"/>
      <point x="438" y="314" type="curve"/>
      <point x="365" y="328" type="line"/>
      <point x="378" y="398" type="line"/>
      <point x="518" y="373" type="line"/>
      <point x="521" y="309" type="line"/>
      <point x="514" y="276"/>
      <point x="502" y="236"/>
      <point x="493" y="203" type="curve" smooth="yes"/>
      <point x="480" y="161"/>
      <point x="470" y="132"/>
      <point x="455" y="107" type="curve" smooth="yes" name="inserted"/>
      <point x="440" y="82"/>
      <point x="421" y="62"/>
      <point x="391" y="40" type="curve"/>
      <point x="511" y="-101" type="line"/>
      <point x="450" y="-155" type="line"/>
      <point x="183" y="154" type="line"/>
      <point x="162" y="128"/>
      <point x="154" y="94"/>
      <point x="150" y="57" type="curve" smooth="yes" name="inserted"/>
      <point x="145" y="20"/>
      <point x="147" y="-21"/>
      <point x="146" y="-60" type="curve" smooth="yes"/>
      <point x="145" y="-81"/>
      <point x="146" y="-104"/>
      <point x="145" y="-140" type="curve"/>
    </contour>
    <contour>
      <point x="396" y="-211" type="line"/>
      <point x="396" y="-270" type="line"/>
      <point x="162" y="-270" type="line"/>
      <point x="162" y="-211" type="line"/>
    </contour>
  </outline>
</glyph>
<glyph name="uniFB2F" format="1">
  <advance width="576"/>
  <unicode hex="FB2F"/>
  <outline>
    <contour>
      <point x="59" y="-265" type="line"/>
      <point x="59" y="-246"/>
      <point x="59" y="-222"/>
      <point x="59" y="-194" type="curve" smooth="yes" name="inserted"/>
      <point x="60" y="-166"/>
      <point x="60" y="-136"/>
      <point x="61" y="-107" type="curve" smooth="yes"/>
      <point x="62" y="-57"/>
      <point x="68" y="-19"/>
      <point x="80" y="13" type="curve" smooth="yes" name="inserted"/>
      <point x="91" y="45"/>
      <point x="108" y="71"/>
      <point x="131" y="98" type="curve"/>
      <point x="108" y="132"/>
      <point x="92" y="158"/>
      <point x="82" y="181" type="curve" smooth="yes"/>
      <point x="71" y="204"/>
      <point x="64" y="229"/>
      <point x="59" y="250" type="curve"/>
      <point x="83" y="261"/>
      <point x="111" y="270"/>
      <point x="140" y="277" type="curve"/>
      <point x="142" y="268"/>
      <point x="144" y="261"/>
      <point x="147" y="253" type="curve" smooth="yes"/>
      <point x="154" y="232"/>
      <point x="161" y="211"/>
      <point x="175" y="186" type="curve" smooth="yes" name="inserted"/>
      <point x="188" y="161"/>
      <point x="207" y="131"/>
      <point x="238" y="92" type="curve" smooth="yes"/>
      <point x="249" y="78"/>
      <point x="258" y="68"/>
      <point x="272" y="52" type="curve" smooth="yes" name="inserted"/>
      <point x="286" y="36"/>
      <point x="305" y="14"/>
      <point x="338" y="-24" type="curve" smooth="yes"/>
      <point x="340" y="-26" type="line"/>
      <point x="364" y="-9"/>
      <point x="378" y="10"/>
      <point x="389" y="33" type="curve" smooth="yes" name="inserted"/>
      <point x="400" y="55"/>
      <point x="408" y="81"/>
      <point x="417" y="110" type="curve" smooth="yes"/>
      <point x="424" y="136"/>
      <point x="431" y="162"/>
      <point x="438" y="189" type="curve"/>
      <point x="365" y="203" type="line"/>
      <point x="378" y="273" type="line"/>
      <point x="518" y="248" type="line"/>
      <point x="521" y="184" type="line"/>
      <point x="514" y="151"/>
      <point x="502" y="111"/>
      <point x="493" y="78" type="curve" smooth="yes"/>
      <point x="480" y="36"/>
      <point x="470" y="7"/>
      <point x="455" y="-18" type="curve" smooth="yes" name="inserted"/>
      <point x="440" y="-43"/>
      <point x="421" y="-63"/>
      <point x="391" y="-86" type="curve"/>
      <point x="511" y="-226" type="line"/>
      <point x="450" y="-280" type="line"/>
      <point x="183" y="29" type="line"/>
      <point x="162" y="3"/>
      <point x="154" y="-31"/>
      <point x="150" y="-68" type="curve" smooth="yes" name="inserted"/>
      <point x="145" y="-105"/>
      <point x="147" y="-146"/>
      <point x="146" y="-185" type="curve" smooth="yes"/>
      <point x="145" y="-206"/>
      <point x="146" y="-229"/>
      <point x="145" y="-265" type="curve"/>
    </contour>
    <contour>
      <point x="396" y="-336" type="line"/>
      <point x="396" y="-395" type="line"/>
      <point x="307" y="-395" type="line"/>
      <point x="317" y="-520" type="line"/>
      <point x="239" y="-520" type="line"/>
      <point x="249" y="-395" type="line"/>
      <point x="162" y="-395" type="line"/>
      <point x="162" y="-336" type="line"/>
    </contour>
  </outline>
</glyph>
<glyph name="uniFB30" format="1">
  <advance width="576"/>
  <unicode hex="FB30"/>
  <outline>
    <contour>
      <point x="59" y="-25" type="line"/>
      <point x="59" y="-6"/>
      <point x="59" y="18"/>
      <point x="59" y="46" type="curve" smooth="yes" name="inserted"/>
      <point x="60" y="74"/>
      <point x="60" y="104"/>
      <point x="61" y="133" type="curve" smooth="yes"/>
      <point x="62" y="183"/>
      <point x="68" y="221"/>
      <point x="80" y="253" type="curve" smooth="yes" name="inserted"/>
      <point x="91" y="285"/>
      <point x="108" y="311"/>
      <point x="131" y="338" type="curve"/>
      <point x="108" y="372"/>
      <point x="92" y="398"/>
      <point x="82" y="421" type="curve" smooth="yes"/>
      <point x="71" y="444"/>
      <point x="64" y="469"/>
      <point x="59" y="490" type="curve"/>
      <point x="83" y="501"/>
      <point x="111" y="510"/>
      <point x="140" y="517" type="curve"/>
      <point x="142" y="508"/>
      <point x="144" y="501"/>
      <point x="147" y="493" type="curve" smooth="yes"/>
      <point x="154" y="472"/>
      <point x="161" y="451"/>
      <point x="175" y="426" type="curve" smooth="yes" name="inserted"/>
      <point x="188" y="401"/>
      <point x="207" y="371"/>
      <point x="238" y="332" type="curve" smooth="yes"/>
      <point x="249" y="318"/>
      <point x="258" y="308"/>
      <point x="272" y="292" type="curve" smooth="yes" name="inserted"/>
      <point x="286" y="276"/>
      <point x="305" y="254"/>
      <point x="338" y="217" type="curve" smooth="yes"/>
      <point x="340" y="214" type="line"/>
      <point x="364" y="231"/>
      <point x="378" y="250"/>
      <point x="389" y="273" type="curve" smooth="yes" name="inserted"/>
      <point x="400" y="295"/>
      <point x="408" y="321"/>
      <point x="417" y="350" type="curve" smooth="yes"/>
      <point x="424" y="376"/>
      <point x="431" y="402"/>
      <point x="438" y="429" type="curve"/>
      <point x="365" y="443" type="line"/>
      <point x="378" y="513" type="line"/>
      <point x="518" y="488" type="line"/>
      <point x="521" y="424" type="line"/>
      <point x="514" y="391"/>
      <point x="502" y="351"/>
      <point x="493" y="318" type="curve" smooth="yes"/>
      <point x="480" y="276"/>
      <point x="470" y="247"/>
      <point x="455" y="222" type="curve" smooth="yes" name="inserted"/>
      <point x="440" y="197"/>
      <point x="421" y="177"/>
      <point x="391" y="155" type="curve"/>
      <point x="511" y="14" type="line"/>
      <point x="450" y="-40" type="line"/>
      <point x="183" y="269" type="line"/>
      <point x="162" y="243"/>
      <point x="154" y="209"/>
      <point x="150" y="172" type="curve" smooth="yes" name="inserted"/>
      <point x="145" y="135"/>
      <point x="147" y="94"/>
      <point x="146" y="56" type="curve" smooth="yes"/>
      <point x="145" y="34"/>
      <point x="146" y="11"/>
      <point x="145" y="-25" type="curve"/>
    </contour>
    <contour>
      <point x="326" y="405" type="curve" smooth="yes"/>
      <point x="352" y="405"/>
      <point x="372" y="385"/>
      <point x="372" y="360" type="curve" smooth="yes"/>
      <point x="372" y="348"/>
      <point x="366" y="336"/>
      <point x="358" y="328" type="curve" smooth="yes" name="inserted"/>
      <point x="349" y="319"/>
      <point x="338" y="314"/>
      <point x="326" y="314" type="curve" smooth="yes"/>
      <point x="313" y="314"/>
      <point x="302" y="319"/>
      <point x="294" y="328" type="curve" smooth="yes" name="inserted"/>
      <point x="285" y="336"/>
      <point x="281" y="348"/>
      <point x="281" y="360" type="curve" smooth="yes"/>
      <point x="281" y="385"/>
      <point x="300" y="405"/>
    </contour>
  </outline>
</glyph>
<glyph name="uniFB31" format="1">
  <advance width="561"/>
  <unicode hex="FB31"/>
  <outline>
    <contour>
      <point x="222" y="444" type="line" smooth="yes"/>
      <point x="193" y="444"/>
      <point x="171" y="444"/>
      <point x="149" y="447" type="curve" smooth="yes" name="inserted"/>
      <point x="127" y="449"/>
      <point x="106" y="454"/>
      <point x="80" y="465" type="curve"/>
      <point x="89" y="489"/>
      <point x="97" y="512"/>
      <point x="106" y="538" type="curve"/>
      <point x="134" y="529"/>
      <point x="153" y="525"/>
      <point x="174" y="522" type="curve" smooth="yes" name="inserted"/>
      <point x="194" y="520"/>
      <point x="215" y="520"/>
      <point x="245" y="520" type="curve" smooth="yes"/>
      <point x="260" y="520" type="line" smooth="yes"/>
      <point x="302" y="520"/>
      <point x="344" y="512"/>
      <point x="377" y="486" type="curve" smooth="yes"/>
      <point x="409" y="461"/>
      <point x="431" y="418"/>
      <point x="431" y="346" type="curve" smooth="yes"/>
      <point x="431" y="76" type="line"/>
      <point x="523" y="76" type="line"/>
      <point x="523" y="0" type="line"/>
      <point x="49" y="0" type="line"/>
      <point x="49" y="76" type="line"/>
      <point x="344" y="76" type="line"/>
      <point x="344" y="334" type="line" smooth="yes"/>
      <point x="344" y="375"/>
      <point x="339" y="403"/>
      <point x="324" y="420" type="curve" smooth="yes" name="inserted"/>
      <point x="309" y="437"/>
      <point x="284" y="444"/>
      <point x="244" y="444" type="curve" smooth="yes"/>
    </contour>
    <contour>
      <point x="198" y="307" type="curve" smooth="yes"/>
      <point x="224" y="307"/>
      <point x="244" y="287"/>
      <point x="244" y="262" type="curve" smooth="yes"/>
      <point x="244" y="249"/>
      <point x="239" y="238"/>
      <point x="230" y="229" type="curve" smooth="yes" name="inserted"/>
      <point x="222" y="221"/>
      <point x="211" y="216"/>
      <point x="198" y="216" type="curve" smooth="yes"/>
      <point x="185" y="216"/>
      <point x="174" y="221"/>
      <point x="166" y="229" type="curve" smooth="yes" name="inserted"/>
      <point x="158" y="238"/>
      <point x="153" y="249"/>
      <point x="153" y="262" type="curve" smooth="yes"/>
      <point x="153" y="286"/>
      <point x="173" y="307"/>
    </contour>
  </outline>
</glyph>
<glyph name="uniFB32" format="1">
  <advance width="417"/>
  <unicode hex="FB32"/>
  <outline>
    <contour>
      <point x="307" y="506" type="line"/>
      <point x="307" y="238" type="line" smooth="yes"/>
      <point x="307" y="205"/>
      <point x="318" y="178"/>
      <point x="330" y="148" type="curve" smooth="yes"/>
      <point x="349" y="95"/>
      <point x="366" y="43"/>
      <point x="380" y="-14" type="curve"/>
      <point x="299" y="-14" type="line"/>
      <point x="290" y="21"/>
      <point x="278" y="61"/>
      <point x="265" y="96" type="curve" smooth="yes"/>
      <point x="253" y="128" type="line"/>
      <point x="231" y="103"/>
      <point x="218" y="87"/>
      <point x="207" y="74" type="curve" smooth="yes" name="inserted"/>
      <point x="195" y="62"/>
      <point x="186" y="52"/>
      <point x="175" y="41" type="curve" smooth="yes"/>
      <point x="139" y="5"/>
      <point x="100" y="-19"/>
      <point x="46" y="-27" type="curve"/>
      <point x="39" y="-2"/>
      <point x="34" y="24"/>
      <point x="29" y="50" type="curve"/>
      <point x="52" y="56"/>
      <point x="70" y="61"/>
      <point x="87" y="70" type="curve" smooth="yes" name="inserted"/>
      <point x="103" y="79"/>
      <point x="117" y="90"/>
      <point x="134" y="109" type="curve" smooth="yes"/>
      <point x="224" y="207" type="line"/>
      <point x="224" y="430" type="line"/>
      <point x="110" y="430" type="line"/>
      <point x="110" y="506" type="line"/>
    </contour>
    <contour>
      <point x="122" y="311" type="curve" smooth="yes"/>
      <point x="148" y="311"/>
      <point x="168" y="291"/>
      <point x="168" y="266" type="curve" smooth="yes"/>
      <point x="168" y="253"/>
      <point x="163" y="242"/>
      <point x="154" y="233" type="curve" smooth="yes" name="inserted"/>
      <point x="146" y="225"/>
      <point x="135" y="220"/>
      <point x="122" y="220" type="curve" smooth="yes"/>
      <point x="109" y="220"/>
      <point x="98" y="225"/>
      <point x="90" y="233" type="curve" smooth="yes" name="inserted"/>
      <point x="82" y="242"/>
      <point x="77" y="253"/>
      <point x="77" y="266" type="curve" smooth="yes"/>
      <point x="77" y="290"/>
      <point x="97" y="311"/>
    </contour>
  </outline>
</glyph>
<glyph name="uniFB33" format="1">
  <advance width="545"/>
  <unicode hex="FB33"/>
  <outline>
    <contour>
      <point x="191" y="444" type="line" smooth="yes"/>
      <point x="161" y="444"/>
      <point x="139" y="444"/>
      <point x="117" y="447" type="curve" smooth="yes" name="inserted"/>
      <point x="95" y="449"/>
      <point x="75" y="454"/>
      <point x="49" y="465" type="curve"/>
      <point x="57" y="489"/>
      <point x="65" y="512"/>
      <point x="74" y="538" type="curve"/>
      <point x="102" y="529"/>
      <point x="122" y="525"/>
      <point x="142" y="522" type="curve" smooth="yes" name="inserted"/>
      <point x="163" y="520"/>
      <point x="183" y="520"/>
      <point x="214" y="520" type="curve" smooth="yes"/>
      <point x="500" y="520" type="line"/>
      <point x="500" y="444" type="line"/>
      <point x="399" y="444" type="line"/>
      <point x="399" y="0" type="line"/>
      <point x="312" y="0" type="line"/>
      <point x="312" y="444" type="line"/>
    </contour>
    <contour>
      <point x="192" y="307" type="curve" smooth="yes"/>
      <point x="218" y="307"/>
      <point x="238" y="287"/>
      <point x="238" y="262" type="curve" smooth="yes"/>
      <point x="238" y="249"/>
      <point x="233" y="238"/>
      <point x="224" y="229" type="curve" smooth="yes" name="inserted"/>
      <point x="216" y="221"/>
      <point x="205" y="216"/>
      <point x="192" y="216" type="curve" smooth="yes"/>
      <point x="179" y="216"/>
      <point x="168" y="221"/>
      <point x="160" y="229" type="curve" smooth="yes" name="inserted"/>
      <point x="152" y="238"/>
      <point x="147" y="249"/>
      <point x="147" y="262" type="curve" smooth="yes"/>
      <point x="147" y="286"/>
      <point x="167" y="307"/>
    </contour>
  </outline>
</glyph>
<glyph name="uniFB34" format="1">
  <advance width="564.0"/>
  <unicode hex="FB34"/>
  <outline>
    <contour>
      <point x="213" y="444" type="line" smooth="yes"/>
      <point x="183" y="444"/>
      <point x="161" y="444"/>
      <point x="139" y="447" type="curve" smooth="yes" name="inserted"/>
      <point x="117" y="449"/>
      <point x="97" y="454"/>
      <point x="71" y="465" type="curve"/>
      <point x="79" y="489"/>
      <point x="87" y="512"/>
      <point x="96" y="538" type="curve"/>
      <point x="124" y="529"/>
      <point x="144" y="525"/>
      <point x="164" y="522" type="curve" smooth="yes" name="inserted"/>
      <point x="185" y="520"/>
      <point x="205" y="520"/>
      <point x="236" y="520" type="curve" smooth="yes"/>
      <point x="333" y="520" type="line" smooth="yes"/>
      <point x="375" y="520"/>
      <point x="417" y="512"/>
      <point x="450" y="486" type="curve" smooth="yes"/>
      <point x="482" y="460"/>
      <point x="504" y="416"/>
      <point x="504" y="343" type="curve" smooth="yes"/>
      <point x="504" y="0" type="line"/>
      <point x="418" y="0" type="line"/>
      <point x="418" y="334" type="line" smooth="yes"/>
      <point x="418" y="376"/>
      <point x="413" y="403"/>
      <point x="398" y="420" type="curve" smooth="yes" name="inserted"/>
      <point x="383" y="437"/>
      <point x="357" y="444"/>
      <point x="317" y="444" type="curve" smooth="yes"/>
    </contour>
    <contour>
      <point x="292" y="345" type="curve" smooth="yes"/>
      <point x="318" y="345"/>
      <point x="338" y="325"/>
      <point x="338" y="300" type="curve" smooth="yes"/>
      <point x="338" y="288"/>
      <point x="333" y="276"/>
      <point x="324" y="268" type="curve" smooth="yes" name="inserted"/>
      <point x="316" y="259"/>
      <point x="305" y="254"/>
      <point x="292" y="254" type="curve" smooth="yes"/>
      <point x="279" y="254"/>
      <point x="268" y="259"/>
      <point x="260" y="268" type="curve" smooth="yes" name="inserted"/>
      <point x="252" y="276"/>
      <point x="247" y="288"/>
      <point x="247" y="300" type="curve" smooth="yes"/>
      <point x="247" y="325"/>
      <point x="267" y="345"/>
    </contour>
    <contour>
      <point x="79" y="157" type="line" smooth="yes"/>
      <point x="79" y="187"/>
      <point x="78" y="208"/>
      <point x="81" y="229" type="curve" smooth="yes" name="inserted"/>
      <point x="83" y="250"/>
      <point x="85" y="270"/>
      <point x="92" y="295" type="curve"/>
      <point x="120" y="291"/>
      <point x="148" y="287"/>
      <point x="176" y="283" type="curve"/>
      <point x="172" y="258"/>
      <point x="169" y="241"/>
      <point x="167" y="222" type="curve" smooth="yes" name="inserted"/>
      <point x="166" y="203"/>
      <point x="165" y="183"/>
      <point x="165" y="155" type="curve" smooth="yes"/>
      <point x="165" y="0" type="line"/>
      <point x="79" y="0" type="line"/>
    </contour>
  </outline>
</glyph>
<glyph name="uniFB35" format="1">
  <advance width="328"/>
  <unicode hex="FB35"/>
  <outline>
    <contour>
      <point x="240" y="520" type="line"/>
      <point x="240" y="0" type="line"/>
      <point x="153" y="0" type="line"/>
      <point x="153" y="444" type="line"/>
      <point x="66" y="444" type="line"/>
      <point x="66" y="520" type="line"/>
    </contour>
    <contour>
      <point x="50" y="307" type="curve" smooth="yes"/>
      <point x="76" y="307"/>
      <point x="96" y="287"/>
      <point x="96" y="262" type="curve" smooth="yes"/>
      <point x="96" y="249"/>
      <point x="91" y="238"/>
      <point x="82" y="229" type="curve" smooth="yes" name="inserted"/>
      <point x="74" y="221"/>
      <point x="63" y="216"/>
      <point x="50" y="216" type="curve" smooth="yes"/>
      <point x="37" y="216"/>
      <point x="26" y="221"/>
      <point x="18" y="229" type="curve" smooth="yes" name="inserted"/>
      <point x="10" y="238"/>
      <point x="5" y="249"/>
      <point x="5" y="262" type="curve" smooth="yes"/>
      <point x="5" y="286"/>
      <point x="25" y="307"/>
    </contour>
  </outline>
</glyph>
<glyph name="uniFB36" format="1">
  <advance width="418.0"/>
  <unicode hex="FB36"/>
  <outline>
    <contour>
      <point x="159" y="444" type="line"/>
      <point x="138" y="444"/>
      <point x="121" y="445"/>
      <point x="103" y="448" type="curve" smooth="yes" name="inserted"/>
      <point x="85" y="451"/>
      <point x="68" y="456"/>
      <point x="47" y="465" type="curve"/>
      <point x="55" y="489"/>
      <point x="63" y="512"/>
      <point x="72" y="538" type="curve"/>
      <point x="100" y="529"/>
      <point x="120" y="525"/>
      <point x="140" y="522" type="curve" smooth="yes" name="inserted"/>
      <point x="161" y="520"/>
      <point x="181" y="520"/>
      <point x="212" y="520" type="curve" smooth="yes"/>
      <point x="376" y="520" type="line"/>
      <point x="376" y="444" type="line"/>
      <point x="246" y="444" type="line"/>
      <point x="316" y="0" type="line"/>
      <point x="228" y="0" type="line"/>
    </contour>
    <contour>
      <point x="83" y="307" type="curve" smooth="yes"/>
      <point x="109" y="307"/>
      <point x="129" y="287"/>
      <point x="129" y="262" type="curve" smooth="yes"/>
      <point x="129" y="249"/>
      <point x="123" y="238"/>
      <point x="115" y="229" type="curve" smooth="yes" name="inserted"/>
      <point x="106" y="221"/>
      <point x="95" y="216"/>
      <point x="83" y="216" type="curve" smooth="yes"/>
      <point x="70" y="216"/>
      <point x="59" y="221"/>
      <point x="51" y="229" type="curve" smooth="yes" name="inserted"/>
      <point x="42" y="238"/>
      <point x="38" y="249"/>
      <point x="38" y="262" type="curve" smooth="yes"/>
      <point x="38" y="286"/>
      <point x="57" y="307"/>
    </contour>
  </outline>
</glyph>
<glyph name="uniFB38" format="1">
  <advance width="625.0"/>
  <unicode hex="FB38"/>
  <outline>
    <contour>
      <point x="92" y="269" type="line" smooth="yes"/>
      <point x="88" y="332"/>
      <point x="87" y="372"/>
      <point x="84" y="405" type="curve" smooth="yes" name="inserted"/>
      <point x="81" y="438"/>
      <point x="75" y="462"/>
      <point x="63" y="493" type="curve"/>
      <point x="87" y="506"/>
      <point x="113" y="517"/>
      <point x="138" y="526" type="curve"/>
      <point x="151" y="502"/>
      <point x="158" y="481"/>
      <point x="163" y="455" type="curve" smooth="yes" name="inserted"/>
      <point x="168" y="429"/>
      <point x="170" y="397"/>
      <point x="173" y="351" type="curve" smooth="yes"/>
      <point x="188" y="69" type="line"/>
      <point x="197" y="68"/>
      <point x="207" y="68"/>
      <point x="216" y="68" type="curve" smooth="yes"/>
      <point x="292" y="68"/>
      <point x="358" y="90"/>
      <point x="406" y="140" type="curve" smooth="yes" name="inserted"/>
      <point x="454" y="190"/>
      <point x="482" y="264"/>
      <point x="482" y="371" type="curve" smooth="yes"/>
      <point x="482" y="395"/>
      <point x="480" y="415"/>
      <point x="477" y="430" type="curve"/>
      <point x="445" y="438"/>
      <point x="417" y="443"/>
      <point x="383" y="447" type="curve"/>
      <point x="374" y="423"/>
      <point x="368" y="405"/>
      <point x="361" y="387" type="curve" smooth="yes" name="inserted"/>
      <point x="355" y="368"/>
      <point x="349" y="350"/>
      <point x="342" y="327" type="curve"/>
      <point x="273" y="350" type="line"/>
      <point x="289" y="409"/>
      <point x="309" y="466"/>
      <point x="330" y="524" type="curve"/>
      <point x="414" y="519"/>
      <point x="483" y="503"/>
      <point x="550" y="489" type="curve"/>
      <point x="559" y="451"/>
      <point x="563" y="413"/>
      <point x="563" y="364" type="curve" smooth="yes"/>
      <point x="563" y="247"/>
      <point x="529" y="160"/>
      <point x="473" y="98" type="curve" smooth="yes"/>
      <point x="433" y="55"/>
      <point x="390" y="29"/>
      <point x="344" y="13" type="curve" smooth="yes" name="inserted"/>
      <point x="297" y="-3"/>
      <point x="248" y="-8"/>
      <point x="197" y="-8" type="curve" smooth="yes"/>
      <point x="165" y="-8"/>
      <point x="135" y="-6"/>
      <point x="109" y="-3" type="curve"/>
    </contour>
    <contour>
      <point x="301" y="255" type="curve" smooth="yes"/>
      <point x="327" y="255"/>
      <point x="347" y="235"/>
      <point x="347" y="210" type="curve" smooth="yes"/>
      <point x="347" y="197"/>
      <point x="341" y="186"/>
      <point x="333" y="177" type="curve" smooth="yes" name="inserted"/>
      <point x="324" y="169"/>
      <point x="313" y="164"/>
      <point x="301" y="164" type="curve" smooth="yes"/>
      <point x="288" y="164"/>
      <point x="277" y="169"/>
      <point x="269" y="177" type="curve" smooth="yes" name="inserted"/>
      <point x="260" y="186"/>
      <point x="256" y="197"/>
      <point x="256" y="210" type="curve" smooth="yes"/>
      <point x="256" y="234"/>
      <point x="275" y="255"/>
    </contour>
  </outline>
</glyph>
<glyph name="uniFB39" format="1">
  <advance width="330.0"/>
  <unicode hex="FB39"/>
  <outline>
    <contour>
      <point x="258" y="739" type="line"/>
      <point x="258" y="577" type="line" smooth="yes"/>
      <point x="258" y="541"/>
      <point x="257" y="519"/>
      <point x="255" y="499" type="curve" smooth="yes"/>
      <point x="253" y="479"/>
      <point x="250" y="462"/>
      <point x="245" y="439" type="curve"/>
      <point x="160" y="452" type="line"/>
      <point x="163" y="472"/>
      <point x="166" y="487"/>
      <point x="168" y="506" type="curve" smooth="yes"/>
      <point x="170" y="524"/>
      <point x="171" y="546"/>
      <point x="171" y="579" type="curve" smooth="yes"/>
      <point x="171" y="663" type="line"/>
      <point x="57" y="663" type="line"/>
      <point x="57" y="739" type="line"/>
    </contour>
    <contour>
      <point x="61" y="576" type="curve" smooth="yes"/>
      <point x="87" y="576"/>
      <point x="107" y="556"/>
      <point x="107" y="531" type="curve" smooth="yes"/>
      <point x="107" y="519"/>
      <point x="102" y="507"/>
      <point x="93" y="499" type="curve" smooth="yes" name="inserted"/>
      <point x="85" y="490"/>
      <point x="74" y="485"/>
      <point x="61" y="485" type="curve" smooth="yes"/>
      <point x="48" y="485"/>
      <point x="37" y="490"/>
      <point x="29" y="499" type="curve" smooth="yes" name="inserted"/>
      <point x="21" y="507"/>
      <point x="16" y="519"/>
      <point x="16" y="531" type="curve" smooth="yes"/>
      <point x="16" y="556"/>
      <point x="36" y="576"/>
    </contour>
  </outline>
</glyph>
<glyph name="uniFB3A" format="1">
  <advance width="495.0"/>
  <unicode hex="FB3A"/>
  <outline>
    <contour>
      <point x="188" y="286" type="line" smooth="yes"/>
      <point x="158" y="286"/>
      <point x="136" y="286"/>
      <point x="114" y="289" type="curve" smooth="yes" name="inserted"/>
      <point x="92" y="292"/>
      <point x="72" y="297"/>
      <point x="46" y="307" type="curve"/>
      <point x="54" y="331"/>
      <point x="62" y="355"/>
      <point x="71" y="380" type="curve"/>
      <point x="99" y="371"/>
      <point x="119" y="367"/>
      <point x="139" y="365" type="curve" smooth="yes" name="inserted"/>
      <point x="160" y="362"/>
      <point x="180" y="362"/>
      <point x="211" y="362" type="curve" smooth="yes"/>
      <point x="401" y="362" type="line"/>
      <point x="407" y="342"/>
      <point x="410" y="327"/>
      <point x="412" y="316" type="curve" smooth="yes"/>
      <point x="414" y="304"/>
      <point x="415" y="295"/>
      <point x="415" y="284" type="curve" smooth="yes"/>
      <point x="415" y="-315" type="line"/>
      <point x="328" y="-315" type="line"/>
      <point x="328" y="286" type="line"/>
    </contour>
    <contour>
      <point x="194" y="149" type="curve" smooth="yes"/>
      <point x="220" y="149"/>
      <point x="240" y="129"/>
      <point x="240" y="104" type="curve" smooth="yes"/>
      <point x="240" y="92"/>
      <point x="235" y="80"/>
      <point x="226" y="72" type="curve" smooth="yes" name="inserted"/>
      <point x="218" y="63"/>
      <point x="207" y="58"/>
      <point x="194" y="58" type="curve" smooth="yes"/>
      <point x="181" y="58"/>
      <point x="170" y="63"/>
      <point x="162" y="72" type="curve" smooth="yes" name="inserted"/>
      <point x="154" y="80"/>
      <point x="149" y="92"/>
      <point x="149" y="104" type="curve" smooth="yes"/>
      <point x="149" y="129"/>
      <point x="169" y="149"/>
    </contour>
  </outline>
</glyph>
<glyph name="uniFB3B" format="1">
  <advance width="513"/>
  <unicode hex="FB3B"/>
  <outline>
    <contour>
      <point x="216" y="444" type="line" smooth="yes"/>
      <point x="187" y="444"/>
      <point x="165" y="444"/>
      <point x="143" y="447" type="curve" smooth="yes" name="inserted"/>
      <point x="121" y="449"/>
      <point x="100" y="454"/>
      <point x="74" y="465" type="curve"/>
      <point x="83" y="489"/>
      <point x="91" y="512"/>
      <point x="100" y="538" type="curve"/>
      <point x="128" y="529"/>
      <point x="147" y="525"/>
      <point x="168" y="522" type="curve" smooth="yes" name="inserted"/>
      <point x="188" y="520"/>
      <point x="209" y="520"/>
      <point x="239" y="520" type="curve" smooth="yes"/>
      <point x="269" y="520" type="line" smooth="yes"/>
      <point x="310" y="520"/>
      <point x="351" y="511"/>
      <point x="383" y="484" type="curve" smooth="yes"/>
      <point x="415" y="457"/>
      <point x="438" y="414"/>
      <point x="441" y="343" type="curve" smooth="yes"/>
      <point x="443" y="305"/>
      <point x="443" y="270"/>
      <point x="444" y="230" type="curve" smooth="yes" name="inserted"/>
      <point x="445" y="190"/>
      <point x="445" y="148"/>
      <point x="445" y="99" type="curve" smooth="yes"/>
      <point x="445" y="83"/>
      <point x="444" y="71"/>
      <point x="442" y="57" type="curve" smooth="yes"/>
      <point x="440" y="42"/>
      <point x="437" y="25"/>
      <point x="431" y="0" type="curve"/>
      <point x="49" y="0" type="line"/>
      <point x="49" y="76" type="line"/>
      <point x="360" y="76" type="line"/>
      <point x="360" y="158"/>
      <point x="358" y="247"/>
      <point x="355" y="334" type="curve" smooth="yes"/>
      <point x="354" y="376"/>
      <point x="348" y="403"/>
      <point x="334" y="420" type="curve" smooth="yes" name="inserted"/>
      <point x="319" y="437"/>
      <point x="294" y="444"/>
      <point x="254" y="444" type="curve" smooth="yes"/>
    </contour>
    <contour>
      <point x="206" y="307" type="curve" smooth="yes"/>
      <point x="232" y="307"/>
      <point x="252" y="287"/>
      <point x="252" y="262" type="curve" smooth="yes"/>
      <point x="252" y="249"/>
      <point x="246" y="238"/>
      <point x="238" y="229" type="curve" smooth="yes" name="inserted"/>
      <point x="229" y="221"/>
      <point x="218" y="216"/>
      <point x="206" y="216" type="curve" smooth="yes"/>
      <point x="193" y="216"/>
      <point x="182" y="221"/>
      <point x="174" y="229" type="curve" smooth="yes" name="inserted"/>
      <point x="165" y="238"/>
      <point x="161" y="249"/>
      <point x="161" y="262" type="curve" smooth="yes"/>
      <point x="161" y="286"/>
      <point x="180" y="307"/>
    </contour>
  </outline>
</glyph>
<glyph name="uniFB3C" format="1">
  <advance width="501.0"/>
  <unicode hex="FB3C"/>
  <outline>
    <contour>
      <point x="147" y="642" type="line"/>
      <point x="147" y="500" type="line"/>
      <point x="435" y="500" type="line"/>
      <point x="441" y="477"/>
      <point x="444" y="464"/>
      <point x="446" y="453" type="curve"/>
      <point x="447" y="440"/>
      <point x="448" y="431"/>
      <point x="448" y="419" type="curve" smooth="yes"/>
      <point x="448" y="311" type="line" smooth="yes"/>
      <point x="448" y="232"/>
      <point x="416" y="165"/>
      <point x="353" y="95" type="curve" smooth="yes"/>
      <point x="231" y="-40" type="line"/>
      <point x="170" y="15" type="line"/>
      <point x="284" y="143" type="line" smooth="yes"/>
      <point x="306" y="168"/>
      <point x="326" y="191"/>
      <point x="339" y="217" type="curve" smooth="yes" name="inserted"/>
      <point x="353" y="243"/>
      <point x="361" y="272"/>
      <point x="361" y="308" type="curve" smooth="yes"/>
      <point x="361" y="424" type="line"/>
      <point x="60" y="424" type="line"/>
      <point x="60" y="642" type="line"/>
    </contour>
    <contour>
      <point x="203" y="329" type="curve" smooth="yes"/>
      <point x="229" y="329"/>
      <point x="249" y="309"/>
      <point x="249" y="284" type="curve" smooth="yes"/>
      <point x="249" y="272"/>
      <point x="243" y="260"/>
      <point x="235" y="252" type="curve" smooth="yes" name="inserted"/>
      <point x="226" y="243"/>
      <point x="215" y="238"/>
      <point x="203" y="238" type="curve" smooth="yes"/>
      <point x="190" y="238"/>
      <point x="179" y="243"/>
      <point x="171" y="252" type="curve" smooth="yes" name="inserted"/>
      <point x="162" y="260"/>
      <point x="158" y="272"/>
      <point x="158" y="284" type="curve" smooth="yes"/>
      <point x="158" y="309"/>
      <point x="177" y="329"/>
    </contour>
  </outline>
</glyph>
<glyph name="uniFB3E" format="1">
  <advance width="597.0"/>
  <unicode hex="FB3E"/>
  <outline>
    <contour>
      <point x="53" y="-9" type="line"/>
      <point x="63" y="57"/>
      <point x="71" y="104"/>
      <point x="78" y="143" type="curve" smooth="yes" name="inserted"/>
      <point x="85" y="181"/>
      <point x="89" y="209"/>
      <point x="94" y="238" type="curve" smooth="yes" name="inserted"/>
      <point x="99" y="267"/>
      <point x="103" y="296"/>
      <point x="110" y="335" type="curve"/>
      <point x="113" y="369"/>
      <point x="111" y="389"/>
      <point x="102" y="411" type="curve" smooth="yes" name="inserted"/>
      <point x="93" y="433"/>
      <point x="77" y="454"/>
      <point x="54" y="491" type="curve"/>
      <point x="67" y="499"/>
      <point x="77" y="505"/>
      <point x="88" y="512" type="curve" smooth="yes" name="inserted"/>
      <point x="99" y="519"/>
      <point x="111" y="526"/>
      <point x="130" y="537" type="curve"/>
      <point x="145" y="515"/>
      <point x="156" y="500"/>
      <point x="165" y="486" type="curve" smooth="yes" name="inserted"/>
      <point x="173" y="473"/>
      <point x="179" y="460"/>
      <point x="186" y="445" type="curve"/>
      <point x="214" y="471"/>
      <point x="239" y="492"/>
      <point x="266" y="505" type="curve" smooth="yes" name="inserted"/>
      <point x="292" y="519"/>
      <point x="321" y="527"/>
      <point x="358" y="527" type="curve" smooth="yes"/>
      <point x="446" y="527"/>
      <point x="507" y="482"/>
      <point x="526" y="387" type="curve" smooth="yes"/>
      <point x="531" y="360"/>
      <point x="533" y="318"/>
      <point x="534" y="276" type="curve" smooth="yes" name="inserted"/>
      <point x="535" y="233"/>
      <point x="535" y="191"/>
      <point x="535" y="162" type="curve"/>
      <point x="534" y="116"/>
      <point x="533" y="72"/>
      <point x="531" y="44" type="curve" smooth="yes"/>
      <point x="529" y="29"/>
      <point x="528" y="13"/>
      <point x="526" y="-5" type="curve"/>
      <point x="279" y="-5" type="line"/>
      <point x="279" y="72" type="line"/>
      <point x="447" y="72" type="line"/>
      <point x="447" y="83"/>
      <point x="448" y="94"/>
      <point x="449" y="117" type="curve" smooth="yes" name="inserted"/>
      <point x="449" y="139"/>
      <point x="450" y="173"/>
      <point x="450" y="229" type="curve" smooth="yes"/>
      <point x="450" y="254"/>
      <point x="449" y="281"/>
      <point x="448" y="306" type="curve" smooth="yes" name="inserted"/>
      <point x="446" y="330"/>
      <point x="444" y="352"/>
      <point x="441" y="368" type="curve" smooth="yes"/>
      <point x="434" y="392"/>
      <point x="426" y="413"/>
      <point x="411" y="427" type="curve" smooth="yes" name="inserted"/>
      <point x="396" y="441"/>
      <point x="377" y="449"/>
      <point x="350" y="449" type="curve" smooth="yes"/>
      <point x="320" y="449"/>
      <point x="293" y="439"/>
      <point x="269" y="423" type="curve" smooth="yes" name="inserted"/>
      <point x="244" y="408"/>
      <point x="221" y="386"/>
      <point x="201" y="364" type="curve"/>
      <point x="188" y="290"/>
      <point x="180" y="235"/>
      <point x="173" y="190" type="curve" smooth="yes" name="inserted"/>
      <point x="165" y="145"/>
      <point x="160" y="111"/>
      <point x="155" y="81" type="curve" smooth="yes" name="inserted"/>
      <point x="149" y="50"/>
      <point x="145" y="22"/>
      <point x="140" y="-9" type="curve"/>
    </contour>
    <contour>
      <point x="313" y="302" type="curve" smooth="yes"/>
      <point x="339" y="302"/>
      <point x="359" y="282"/>
      <point x="359" y="257" type="curve" smooth="yes"/>
      <point x="359" y="245"/>
      <point x="354" y="233"/>
      <point x="345" y="225" type="curve" smooth="yes" name="inserted"/>
      <point x="337" y="216"/>
      <point x="326" y="211"/>
      <point x="313" y="211" type="curve" smooth="yes"/>
      <point x="300" y="211"/>
      <point x="289" y="216"/>
      <point x="281" y="225" type="curve" smooth="yes" name="inserted"/>
      <point x="273" y="233"/>
      <point x="268" y="245"/>
      <point x="268" y="257" type="curve" smooth="yes"/>
      <point x="268" y="282"/>
      <point x="288" y="302"/>
    </contour>
  </outline>
</glyph>
<glyph name="uniFB40" format="1">
  <advance width="397.0"/>
  <unicode hex="FB40"/>
  <outline>
    <contour>
      <point x="292" y="520" type="line"/>
      <point x="294" y="503" type="line" smooth="yes"/>
      <point x="296" y="480"/>
      <point x="300" y="440"/>
      <point x="306" y="388" type="curve" smooth="yes" name="inserted"/>
      <point x="311" y="335"/>
      <point x="317" y="274"/>
      <point x="324" y="208" type="curve" smooth="yes" name="inserted"/>
      <point x="327" y="175" name="inserted"/>
      <point x="330" y="143"/>
      <point x="334" y="111" type="curve" smooth="yes"/>
      <point x="336" y="81"/>
      <point x="338" y="64"/>
      <point x="338" y="49" type="curve" smooth="yes" name="inserted"/>
      <point x="338" y="34"/>
      <point x="336" y="21"/>
      <point x="334" y="0" type="curve"/>
      <point x="36" y="0" type="line"/>
      <point x="36" y="76" type="line"/>
      <point x="252" y="76" type="line"/>
      <point x="214" y="444" type="line"/>
      <point x="92" y="444" type="line"/>
      <point x="92" y="520" type="line"/>
    </contour>
    <contour>
      <point x="120" y="307" type="curve" smooth="yes"/>
      <point x="146" y="307"/>
      <point x="166" y="287"/>
      <point x="166" y="262" type="curve" smooth="yes"/>
      <point x="166" y="249"/>
      <point x="161" y="238"/>
      <point x="152" y="229" type="curve" smooth="yes" name="inserted"/>
      <point x="144" y="221"/>
      <point x="133" y="216"/>
      <point x="120" y="216" type="curve" smooth="yes"/>
      <point x="107" y="216"/>
      <point x="96" y="221"/>
      <point x="88" y="229" type="curve" smooth="yes" name="inserted"/>
      <point x="80" y="238"/>
      <point x="75" y="249"/>
      <point x="75" y="262" type="curve" smooth="yes"/>
      <point x="75" y="286"/>
      <point x="95" y="307"/>
    </contour>
  </outline>
</glyph>
<glyph name="uniFB41" format="1">
  <advance width="575"/>
  <unicode hex="FB41"/>
  <outline>
    <contour>
      <point x="346" y="508" type="line" smooth="yes"/>
      <point x="407" y="508"/>
      <point x="450" y="494"/>
      <point x="479" y="462" type="curve" smooth="yes"/>
      <point x="498" y="439"/>
      <point x="509" y="407"/>
      <point x="516" y="373" type="curve" smooth="yes" name="inserted"/>
      <point x="523" y="338"/>
      <point x="525" y="301"/>
      <point x="525" y="267" type="curve" smooth="yes"/>
      <point x="525" y="240" name="inserted"/>
      <point x="523" y="214"/>
      <point x="520" y="187" type="curve" smooth="yes"/>
      <point x="512" y="120"/>
      <point x="489" y="68"/>
      <point x="452" y="32" type="curve" smooth="yes" name="inserted"/>
      <point x="415" y="-4"/>
      <point x="365" y="-23"/>
      <point x="305" y="-23" type="curve" smooth="yes"/>
      <point x="226" y="-23"/>
      <point x="172" y="4"/>
      <point x="138" y="49" type="curve" smooth="yes" name="inserted"/>
      <point x="103" y="94"/>
      <point x="88" y="156"/>
      <point x="88" y="228" type="curve" smooth="yes"/>
      <point x="88" y="268"/>
      <point x="91" y="308"/>
      <point x="105" y="355" type="curve" smooth="yes"/>
      <point x="113" y="383"/>
      <point x="124" y="409"/>
      <point x="139" y="433" type="curve"/>
      <point x="108" y="435"/>
      <point x="84" y="440"/>
      <point x="50" y="453" type="curve"/>
      <point x="58" y="477"/>
      <point x="66" y="501"/>
      <point x="75" y="526" type="curve"/>
      <point x="103" y="517"/>
      <point x="123" y="513"/>
      <point x="143" y="511" type="curve" smooth="yes" name="inserted"/>
      <point x="164" y="508"/>
      <point x="184" y="508"/>
      <point x="215" y="508" type="curve" smooth="yes"/>
    </contour>
    <contour>
      <point x="225" y="432" type="line"/>
      <point x="194" y="387"/>
      <point x="180" y="334"/>
      <point x="177" y="284" type="curve" smooth="yes"/>
      <point x="175" y="263"/>
      <point x="174" y="244"/>
      <point x="174" y="224" type="curve" smooth="yes"/>
      <point x="174" y="178"/>
      <point x="179" y="136"/>
      <point x="200" y="106" type="curve" smooth="yes"/>
      <point x="221" y="72"/>
      <point x="256" y="53"/>
      <point x="303" y="53" type="curve" smooth="yes"/>
      <point x="338" y="53"/>
      <point x="367" y="64"/>
      <point x="390" y="86" type="curve" smooth="yes" name="inserted"/>
      <point x="412" y="107"/>
      <point x="427" y="138"/>
      <point x="433" y="179" type="curve" smooth="yes"/>
      <point x="436" y="209"/>
      <point x="438" y="233"/>
      <point x="438" y="258" type="curve" smooth="yes"/>
      <point x="438" y="293"/>
      <point x="435" y="323"/>
      <point x="430" y="358" type="curve" smooth="yes"/>
      <point x="425" y="386"/>
      <point x="418" y="404"/>
      <point x="404" y="416" type="curve" smooth="yes" name="inserted"/>
      <point x="389" y="427"/>
      <point x="366" y="432"/>
      <point x="332" y="432" type="curve" smooth="yes"/>
    </contour>
    <contour>
      <point x="304" y="295" type="curve" smooth="yes"/>
      <point x="330" y="295"/>
      <point x="350" y="275"/>
      <point x="350" y="250" type="curve" smooth="yes"/>
      <point x="350" y="238"/>
      <point x="344" y="226"/>
      <point x="336" y="218" type="curve" smooth="yes" name="inserted"/>
      <point x="327" y="209"/>
      <point x="316" y="204"/>
      <point x="304" y="204" type="curve" smooth="yes"/>
      <point x="291" y="204"/>
      <point x="280" y="209"/>
      <point x="272" y="218" type="curve" smooth="yes" name="inserted"/>
      <point x="263" y="226"/>
      <point x="259" y="238"/>
      <point x="259" y="250" type="curve" smooth="yes"/>
      <point x="259" y="275"/>
      <point x="278" y="295"/>
    </contour>
  </outline>
</glyph>
<glyph name="uniFB43" format="1">
  <advance width="543.0"/>
  <unicode hex="FB43"/>
  <outline>
    <contour>
      <point x="159" y="385" type="line"/>
      <point x="215" y="374"/>
      <point x="272" y="362"/>
      <point x="327" y="350" type="curve" smooth="yes"/>
      <point x="361" y="343"/>
      <point x="395" y="330"/>
      <point x="422" y="307" type="curve" smooth="yes"/>
      <point x="448" y="282"/>
      <point x="467" y="246"/>
      <point x="467" y="189" type="curve" smooth="yes"/>
      <point x="467" y="-316" type="line"/>
      <point x="380" y="-316" type="line"/>
      <point x="380" y="177" type="line" smooth="yes"/>
      <point x="380" y="212"/>
      <point x="375" y="234"/>
      <point x="363" y="249" type="curve" smooth="yes"/>
      <point x="350" y="264"/>
      <point x="330" y="272"/>
      <point x="298" y="279" type="curve" smooth="yes"/>
      <point x="269" y="285"/>
      <point x="241" y="291"/>
      <point x="212" y="297" type="curve"/>
      <point x="156" y="170" type="line"/>
      <point x="257" y="110" type="line"/>
      <point x="217" y="45" type="line"/>
      <point x="52" y="143" type="line"/>
    </contour>
    <contour>
      <point x="280" y="240" type="curve" smooth="yes"/>
      <point x="306" y="240"/>
      <point x="326" y="220"/>
      <point x="326" y="195" type="curve" smooth="yes"/>
      <point x="326" y="183"/>
      <point x="321" y="171"/>
      <point x="312" y="163" type="curve" smooth="yes" name="inserted"/>
      <point x="304" y="154"/>
      <point x="293" y="149"/>
      <point x="280" y="149" type="curve" smooth="yes"/>
      <point x="267" y="149"/>
      <point x="256" y="154"/>
      <point x="248" y="163" type="curve" smooth="yes" name="inserted"/>
      <point x="240" y="171"/>
      <point x="235" y="183"/>
      <point x="235" y="195" type="curve" smooth="yes"/>
      <point x="235" y="220"/>
      <point x="255" y="240"/>
    </contour>
  </outline>
</glyph>
<glyph name="uniFB44" format="1">
  <advance width="539"/>
  <unicode hex="FB44"/>
  <outline>
    <contour>
      <point x="165" y="543" type="line"/>
      <point x="179" y="540"/>
      <point x="202" y="535"/>
      <point x="230" y="530" type="curve" smooth="yes" name="inserted"/>
      <point x="258" y="524"/>
      <point x="288" y="518"/>
      <point x="317" y="511" type="curve" smooth="yes" name="inserted"/>
      <point x="345" y="504"/>
      <point x="368" y="497"/>
      <point x="383" y="492" type="curve" smooth="yes"/>
      <point x="419" y="478"/>
      <point x="441" y="459"/>
      <point x="455" y="435" type="curve" smooth="yes" name="inserted"/>
      <point x="468" y="410"/>
      <point x="472" y="381"/>
      <point x="472" y="347" type="curve" smooth="yes"/>
      <point x="472" y="99" type="line" smooth="yes"/>
      <point x="472" y="83"/>
      <point x="471" y="69"/>
      <point x="469" y="54" type="curve" smooth="yes"/>
      <point x="466" y="39"/>
      <point x="463" y="21"/>
      <point x="458" y="0" type="curve"/>
      <point x="45" y="0" type="line"/>
      <point x="45" y="76" type="line"/>
      <point x="387" y="76" type="line"/>
      <point x="387" y="336" type="line" smooth="yes"/>
      <point x="387" y="370"/>
      <point x="383" y="391"/>
      <point x="372" y="405" type="curve" smooth="yes" name="inserted"/>
      <point x="360" y="420"/>
      <point x="342" y="427"/>
      <point x="312" y="435" type="curve" smooth="yes"/>
      <point x="283" y="442"/>
      <point x="249" y="450"/>
      <point x="220" y="457" type="curve"/>
      <point x="163" y="328" type="line"/>
      <point x="263" y="269" type="line"/>
      <point x="223" y="203" type="line"/>
      <point x="58" y="301" type="line"/>
    </contour>
    <contour>
      <point x="283" y="396" type="curve" smooth="yes"/>
      <point x="309" y="396"/>
      <point x="329" y="376"/>
      <point x="329" y="351" type="curve" smooth="yes"/>
      <point x="329" y="338"/>
      <point x="324" y="327"/>
      <point x="315" y="318" type="curve" smooth="yes" name="inserted"/>
      <point x="307" y="310"/>
      <point x="296" y="305"/>
      <point x="283" y="305" type="curve" smooth="yes"/>
      <point x="270" y="305"/>
      <point x="259" y="310"/>
      <point x="251" y="318" type="curve" smooth="yes" name="inserted"/>
      <point x="243" y="327"/>
      <point x="238" y="338"/>
      <point x="238" y="351" type="curve" smooth="yes"/>
      <point x="238" y="375"/>
      <point x="258" y="396"/>
    </contour>
  </outline>
</glyph>
<glyph name="uniFB46" format="1">
  <advance width="555"/>
  <unicode hex="FB46"/>
  <outline>
    <contour>
      <point x="166" y="289" type="line" smooth="yes"/>
      <point x="123" y="338"/>
      <point x="94" y="379"/>
      <point x="76" y="417" type="curve" smooth="yes"/>
      <point x="57" y="455"/>
      <point x="49" y="483"/>
      <point x="42" y="510" type="curve"/>
      <point x="67" y="520"/>
      <point x="95" y="529"/>
      <point x="123" y="537" type="curve"/>
      <point x="126" y="528"/>
      <point x="128" y="521"/>
      <point x="131" y="513" type="curve" smooth="yes"/>
      <point x="137" y="492"/>
      <point x="144" y="471"/>
      <point x="158" y="446" type="curve" smooth="yes" name="inserted"/>
      <point x="171" y="420"/>
      <point x="190" y="390"/>
      <point x="222" y="352" type="curve" smooth="yes"/>
      <point x="232" y="339"/>
      <point x="240" y="330"/>
      <point x="251" y="317" type="curve" smooth="yes" name="inserted"/>
      <point x="263" y="303"/>
      <point x="278" y="286"/>
      <point x="303" y="258" type="curve"/>
      <point x="324" y="271"/>
      <point x="338" y="285"/>
      <point x="350" y="303" type="curve" smooth="yes" name="inserted"/>
      <point x="363" y="321"/>
      <point x="372" y="342"/>
      <point x="383" y="370" type="curve" smooth="yes"/>
      <point x="393" y="396"/>
      <point x="400" y="420"/>
      <point x="407" y="446" type="curve"/>
      <point x="336" y="467" type="line"/>
      <point x="356" y="536" type="line"/>
      <point x="492" y="497" type="line"/>
      <point x="489" y="433" type="line"/>
      <point x="479" y="400"/>
      <point x="466" y="361"/>
      <point x="454" y="331" type="curve" smooth="yes"/>
      <point x="440" y="298"/>
      <point x="428" y="274"/>
      <point x="412" y="253" type="curve" smooth="yes" name="inserted"/>
      <point x="395" y="233"/>
      <point x="376" y="216"/>
      <point x="352" y="202" type="curve"/>
      <point x="465" y="69" type="line"/>
      <point x="463" y="52"/>
      <point x="461" y="31"/>
      <point x="453" y="0" type="curve"/>
      <point x="57" y="0" type="line"/>
      <point x="57" y="76" type="line"/>
      <point x="350" y="76" type="line"/>
    </contour>
    <contour>
      <point x="296" y="425" type="curve" smooth="yes"/>
      <point x="322" y="425"/>
      <point x="342" y="405"/>
      <point x="342" y="380" type="curve" smooth="yes"/>
      <point x="342" y="368"/>
      <point x="336" y="356"/>
      <point x="328" y="348" type="curve" smooth="yes" name="inserted"/>
      <point x="319" y="339"/>
      <point x="308" y="334"/>
      <point x="296" y="334" type="curve" smooth="yes"/>
      <point x="283" y="334"/>
      <point x="272" y="339"/>
      <point x="264" y="348" type="curve" smooth="yes" name="inserted"/>
      <point x="255" y="356"/>
      <point x="251" y="368"/>
      <point x="251" y="380" type="curve" smooth="yes"/>
      <point x="251" y="405"/>
      <point x="270" y="425"/>
    </contour>
  </outline>
</glyph>
<glyph name="uniFB47" format="1">
  <advance width="578.0"/>
  <unicode hex="FB47"/>
  <outline>
    <contour>
      <point x="220" y="286" type="line" smooth="yes"/>
      <point x="190" y="286"/>
      <point x="168" y="286"/>
      <point x="146" y="289" type="curve" smooth="yes" name="inserted"/>
      <point x="124" y="292"/>
      <point x="104" y="297"/>
      <point x="78" y="307" type="curve"/>
      <point x="86" y="331"/>
      <point x="94" y="355"/>
      <point x="103" y="380" type="curve"/>
      <point x="131" y="371"/>
      <point x="151" y="367"/>
      <point x="171" y="365" type="curve" smooth="yes" name="inserted"/>
      <point x="192" y="362"/>
      <point x="212" y="362"/>
      <point x="243" y="362" type="curve" smooth="yes"/>
      <point x="508" y="362" type="line"/>
      <point x="513" y="343"/>
      <point x="515" y="330"/>
      <point x="518" y="319" type="curve" smooth="yes"/>
      <point x="521" y="297"/>
      <point x="522" y="275"/>
      <point x="522" y="251" type="curve" smooth="yes"/>
      <point x="522" y="181" type="line" smooth="yes"/>
      <point x="522" y="146"/>
      <point x="520" y="117"/>
      <point x="512" y="89" type="curve" smooth="yes" name="inserted"/>
      <point x="505" y="61"/>
      <point x="491" y="35"/>
      <point x="468" y="8" type="curve" smooth="yes"/>
      <point x="419" y="-49"/>
      <point x="373" y="-99"/>
      <point x="325" y="-152" type="curve"/>
      <point x="259" y="-92" type="line"/>
      <point x="315" y="-33" type="line" smooth="yes"/>
      <point x="345" y="-1"/>
      <point x="375" y="31"/>
      <point x="398" y="60" type="curve" smooth="yes"/>
      <point x="417" y="82"/>
      <point x="426" y="103"/>
      <point x="431" y="126" type="curve" smooth="yes" name="inserted"/>
      <point x="435" y="149"/>
      <point x="436" y="174"/>
      <point x="436" y="206" type="curve" smooth="yes"/>
      <point x="436" y="232"/>
      <point x="435" y="259"/>
      <point x="434" y="286" type="curve"/>
    </contour>
    <contour>
      <point x="303" y="202" type="curve" smooth="yes"/>
      <point x="329" y="202"/>
      <point x="349" y="182"/>
      <point x="349" y="157" type="curve" smooth="yes"/>
      <point x="349" y="145"/>
      <point x="344" y="133"/>
      <point x="335" y="125" type="curve" smooth="yes" name="inserted"/>
      <point x="327" y="116"/>
      <point x="316" y="111"/>
      <point x="303" y="111" type="curve" smooth="yes"/>
      <point x="290" y="111"/>
      <point x="279" y="116"/>
      <point x="271" y="125" type="curve" smooth="yes" name="inserted"/>
      <point x="263" y="133"/>
      <point x="258" y="145"/>
      <point x="258" y="157" type="curve" smooth="yes"/>
      <point x="258" y="182"/>
      <point x="278" y="202"/>
    </contour>
    <contour>
      <point x="91" y="30" type="line" smooth="yes"/>
      <point x="91" y="59"/>
      <point x="91" y="81"/>
      <point x="92" y="103" type="curve" smooth="yes" name="inserted"/>
      <point x="94" y="125"/>
      <point x="97" y="145"/>
      <point x="103" y="168" type="curve"/>
      <point x="131" y="164"/>
      <point x="159" y="160"/>
      <point x="188" y="156" type="curve"/>
      <point x="184" y="131"/>
      <point x="181" y="114"/>
      <point x="179" y="95" type="curve" smooth="yes" name="inserted"/>
      <point x="178" y="76"/>
      <point x="177" y="56"/>
      <point x="177" y="28" type="curve" smooth="yes"/>
      <point x="177" y="-315" type="line"/>
      <point x="91" y="-315" type="line"/>
    </contour>
  </outline>
</glyph>
<glyph name="uniFB48" format="1">
  <advance width="504"/>
  <unicode hex="FB48"/>
  <outline>
    <contour>
      <point x="198" y="444" type="line" smooth="yes"/>
      <point x="168" y="444"/>
      <point x="146" y="444"/>
      <point x="124" y="447" type="curve" smooth="yes" name="inserted"/>
      <point x="102" y="449"/>
      <point x="82" y="454"/>
      <point x="56" y="465" type="curve"/>
      <point x="64" y="489"/>
      <point x="72" y="512"/>
      <point x="81" y="538" type="curve"/>
      <point x="109" y="529"/>
      <point x="129" y="525"/>
      <point x="149" y="522" type="curve" smooth="yes" name="inserted"/>
      <point x="170" y="520"/>
      <point x="190" y="520"/>
      <point x="221" y="520" type="curve" smooth="yes"/>
      <point x="268" y="520" type="line" smooth="yes"/>
      <point x="310" y="520"/>
      <point x="352" y="512"/>
      <point x="385" y="486" type="curve" smooth="yes"/>
      <point x="417" y="460"/>
      <point x="440" y="416"/>
      <point x="440" y="343" type="curve" smooth="yes"/>
      <point x="440" y="0" type="line"/>
      <point x="353" y="0" type="line"/>
      <point x="353" y="334" type="line" smooth="yes"/>
      <point x="353" y="375"/>
      <point x="348" y="403"/>
      <point x="333" y="420" type="curve" smooth="yes" name="inserted"/>
      <point x="317" y="437"/>
      <point x="292" y="444"/>
      <point x="252" y="444" type="curve" smooth="yes"/>
    </contour>
    <contour>
      <point x="204" y="307" type="curve" smooth="yes"/>
      <point x="230" y="307"/>
      <point x="250" y="287"/>
      <point x="250" y="262" type="curve" smooth="yes"/>
      <point x="250" y="249"/>
      <point x="245" y="238"/>
      <point x="236" y="229" type="curve" smooth="yes" name="inserted"/>
      <point x="228" y="221"/>
      <point x="217" y="216"/>
      <point x="204" y="216" type="curve" smooth="yes"/>
      <point x="191" y="216"/>
      <point x="180" y="221"/>
      <point x="172" y="229" type="curve" smooth="yes" name="inserted"/>
      <point x="164" y="238"/>
      <point x="159" y="249"/>
      <point x="159" y="262" type="curve" smooth="yes"/>
      <point x="159" y="286"/>
      <point x="179" y="307"/>
    </contour>
  </outline>
</glyph>
<glyph name="uniFB49" format="1">
  <advance width="716.0"/>
  <unicode hex="FB49"/>
  <outline>
    <contour>
      <point x="100" y="270" type="line" smooth="yes"/>
      <point x="95" y="334"/>
      <point x="93" y="374"/>
      <point x="90" y="407" type="curve" smooth="yes" name="inserted"/>
      <point x="86" y="439"/>
      <point x="80" y="464"/>
      <point x="67" y="495" type="curve"/>
      <point x="90" y="508"/>
      <point x="116" y="518"/>
      <point x="142" y="528" type="curve"/>
      <point x="154" y="503"/>
      <point x="162" y="483"/>
      <point x="168" y="457" type="curve" smooth="yes" name="inserted"/>
      <point x="173" y="430"/>
      <point x="176" y="399"/>
      <point x="179" y="353" type="curve" smooth="yes"/>
      <point x="200" y="73" type="line"/>
      <point x="212" y="72" name="inserted"/>
      <point x="223" y="72"/>
      <point x="235" y="72" type="curve" smooth="yes"/>
      <point x="348" y="72"/>
      <point x="432" y="108"/>
      <point x="489" y="171" type="curve" smooth="yes" name="inserted"/>
      <point x="545" y="233"/>
      <point x="572" y="321"/>
      <point x="572" y="425" type="curve" smooth="yes"/>
      <point x="572" y="453"/>
      <point x="570" y="481"/>
      <point x="567" y="510" type="curve"/>
      <point x="595" y="517"/>
      <point x="621" y="522"/>
      <point x="652" y="527" type="curve"/>
      <point x="657" y="498"/>
      <point x="660" y="468"/>
      <point x="660" y="435" type="curve" smooth="yes"/>
      <point x="660" y="288"/>
      <point x="619" y="178"/>
      <point x="543" y="104" type="curve" smooth="yes" name="inserted"/>
      <point x="467" y="29"/>
      <point x="359" y="-8"/>
      <point x="223" y="-8" type="curve" smooth="yes"/>
      <point x="190" y="-8"/>
      <point x="157" y="-7"/>
      <point x="122" y="-2" type="curve"/>
    </contour>
    <contour>
      <point x="403" y="527" type="line"/>
      <point x="408" y="511" name="inserted"/>
      <point x="410" y="495"/>
      <point x="410" y="480" type="curve" smooth="yes"/>
      <point x="410" y="460"/>
      <point x="407" y="441"/>
      <point x="402" y="421" type="curve" smooth="yes"/>
      <point x="392" y="387"/>
      <point x="378" y="355"/>
      <point x="363" y="321" type="curve" smooth="yes"/>
      <point x="308" y="199" type="line"/>
      <point x="234" y="232" type="line"/>
      <point x="288" y="353" type="line" smooth="yes"/>
      <point x="307" y="395"/>
      <point x="317" y="420"/>
      <point x="323" y="442" type="curve" smooth="yes"/>
      <point x="325" y="452" name="inserted"/>
      <point x="326" y="462"/>
      <point x="326" y="473" type="curve" smooth="yes"/>
      <point x="326" y="483" name="inserted"/>
      <point x="325" y="496"/>
      <point x="323" y="511" type="curve"/>
    </contour>
    <contour>
      <point x="446" y="325" type="curve" smooth="yes"/>
      <point x="472" y="325"/>
      <point x="492" y="305"/>
      <point x="492" y="280" type="curve" smooth="yes"/>
      <point x="492" y="268"/>
      <point x="487" y="256"/>
      <point x="478" y="248" type="curve" smooth="yes" name="inserted"/>
      <point x="470" y="239"/>
      <point x="459" y="234"/>
      <point x="446" y="234" type="curve" smooth="yes"/>
      <point x="433" y="234"/>
      <point x="422" y="239"/>
      <point x="414" y="248" type="curve" smooth="yes" name="inserted"/>
      <point x="406" y="256"/>
      <point x="401" y="268"/>
      <point x="401" y="280" type="curve" smooth="yes"/>
      <point x="401" y="305"/>
      <point x="421" y="325"/>
    </contour>
  </outline>
</glyph>
<glyph name="uniFB4A" format="1">
  <advance width="590.0"/>
  <unicode hex="FB4A"/>
  <outline>
    <contour>
      <point x="142" y="75" type="line"/>
      <point x="121" y="139"/>
      <point x="109" y="197"/>
      <point x="109" y="254" type="curve" smooth="yes"/>
      <point x="109" y="320"/>
      <point x="124" y="380"/>
      <point x="162" y="444" type="curve"/>
      <point x="145" y="445"/>
      <point x="130" y="446"/>
      <point x="114" y="449" type="curve" smooth="yes" name="inserted"/>
      <point x="97" y="452"/>
      <point x="81" y="457"/>
      <point x="62" y="465" type="curve"/>
      <point x="71" y="489"/>
      <point x="79" y="512"/>
      <point x="88" y="538" type="curve"/>
      <point x="116" y="529"/>
      <point x="135" y="525"/>
      <point x="156" y="522" type="curve" smooth="yes" name="inserted"/>
      <point x="176" y="520"/>
      <point x="197" y="520"/>
      <point x="227" y="520" type="curve" smooth="yes"/>
      <point x="357" y="520" type="line" smooth="yes"/>
      <point x="399" y="520"/>
      <point x="442" y="512"/>
      <point x="475" y="486" type="curve" smooth="yes"/>
      <point x="508" y="460"/>
      <point x="530" y="416"/>
      <point x="530" y="343" type="curve" smooth="yes"/>
      <point x="530" y="0" type="line"/>
      <point x="444" y="0" type="line"/>
      <point x="444" y="334" type="line" smooth="yes"/>
      <point x="444" y="375"/>
      <point x="439" y="403"/>
      <point x="425" y="420" type="curve" smooth="yes" name="inserted"/>
      <point x="410" y="437"/>
      <point x="386" y="444"/>
      <point x="346" y="444" type="curve" smooth="yes"/>
      <point x="248" y="444" type="line"/>
      <point x="210" y="392"/>
      <point x="197" y="328"/>
      <point x="197" y="261" type="curve" smooth="yes"/>
      <point x="197" y="207"/>
      <point x="206" y="154"/>
      <point x="220" y="107" type="curve" smooth="yes"/>
      <point x="236" y="53" type="line"/>
      <point x="235" y="36"/>
      <point x="234" y="19"/>
      <point x="231" y="0" type="curve"/>
      <point x="33" y="0" type="line"/>
      <point x="33" y="75" type="line"/>
    </contour>
    <contour>
      <point x="318" y="307" type="curve" smooth="yes"/>
      <point x="344" y="307"/>
      <point x="364" y="287"/>
      <point x="364" y="262" type="curve" smooth="yes"/>
      <point x="364" y="249"/>
      <point x="358" y="238"/>
      <point x="350" y="229" type="curve" smooth="yes" name="inserted"/>
      <point x="341" y="221"/>
      <point x="330" y="216"/>
      <point x="318" y="216" type="curve" smooth="yes"/>
      <point x="305" y="216"/>
      <point x="294" y="221"/>
      <point x="286" y="229" type="curve" smooth="yes" name="inserted"/>
      <point x="277" y="238"/>
      <point x="273" y="249"/>
      <point x="273" y="262" type="curve" smooth="yes"/>
      <point x="273" y="286"/>
      <point x="292" y="307"/>
    </contour>
  </outline>
</glyph>
<glyph name="uniFB4B" format="1">
  <advance width="328"/>
  <unicode hex="FB4B"/>
  <outline>
    <contour>
      <point x="155" y="683" type="curve" smooth="yes"/>
      <point x="181" y="683"/>
      <point x="201" y="663"/>
      <point x="201" y="638" type="curve" smooth="yes"/>
      <point x="201" y="611"/>
      <point x="181" y="591"/>
      <point x="155" y="591" type="curve" smooth="yes"/>
      <point x="129" y="591"/>
      <point x="110" y="612"/>
      <point x="110" y="638" type="curve" smooth="yes"/>
      <point x="110" y="662"/>
      <point x="129" y="683"/>
    </contour>
    <contour>
      <point x="240" y="520" type="line"/>
      <point x="240" y="0" type="line"/>
      <point x="153" y="0" type="line"/>
      <point x="153" y="444" type="line"/>
      <point x="66" y="444" type="line"/>
      <point x="66" y="520" type="line"/>
    </contour>
  </outline>
</glyph>
<glyph name="whiteuppointingindex" format="1">
  <advance width="600"/>
  <unicode hex="1F446"/>
  <outline>
    <contour>
      <point x="95" y="395" type="curve" smooth="yes"/>
      <point x="95" y="750"/>
      <point x="160" y="760"/>
      <point x="195" y="760" type="curve" smooth="yes"/>
      <point x="225" y="760"/>
      <point x="245" y="740"/>
      <point x="245" y="650" type="curve" smooth="yes"/>
      <point x="245" y="620"/>
      <point x="245" y="535"/>
      <point x="245" y="470" type="curve" smooth="yes"/>
      <point x="245" y="465"/>
      <point x="235" y="465"/>
      <point x="235" y="460" type="curve"/>
      <point x="235" y="395" type="line"/>
      <point x="215" y="395" type="line" smooth="yes"/>
      <point x="215" y="395"/>
      <point x="215" y="600"/>
      <point x="215" y="650" type="curve" smooth="yes"/>
      <point x="215" y="700"/>
      <point x="205" y="730"/>
      <point x="190" y="730" type="curve" smooth="yes"/>
      <point x="160" y="730"/>
      <point x="125" y="625"/>
      <point x="125" y="360" type="curve" smooth="yes"/>
      <point x="125" y="340" type="line"/>
      <point x="115" y="350" type="line"/>
      <point x="100" y="350"/>
      <point x="95" y="375"/>
    </contour>
    <contour>
      <point x="230" y="425" type="line"/>
      <point x="230" y="485"/>
      <point x="255" y="505"/>
      <point x="280" y="505" type="curve"/>
      <point x="307.85714285714283" y="505.0"/>
      <point x="345.0" y="495.0"/>
      <point x="345" y="340" type="curve" smooth="yes"/>
      <point x="345.0" y="225.0"/>
      <point x="307.6666666666667" y="205.0"/>
      <point x="275" y="205" type="curve" smooth="yes"/>
      <point x="235" y="205"/>
      <point x="220" y="240"/>
      <point x="225" y="275" type="curve"/>
      <point x="245" y="305" type="line"/>
      <point x="245" y="285" type="line" smooth="yes"/>
      <point x="245" y="265.0"/>
      <point x="251.0" y="235.0"/>
      <point x="275" y="235" type="curve" smooth="yes"/>
      <point x="303.57142857142856" y="235.0"/>
      <point x="315.0" y="275.0"/>
      <point x="315" y="340" type="curve" smooth="yes"/>
      <point x="315.0" y="420.0"/>
      <point x="303.75" y="475.0"/>
      <point x="270" y="475" type="curve" smooth="yes"/>
      <point x="245.0" y="475.0"/>
      <point x="235.0" y="439.0"/>
      <point x="235" y="415" type="curve"/>
    </contour>
    <contour>
      <point x="325" y="470"/>
      <point x="345" y="490"/>
      <point x="375" y="490" type="curve" smooth="yes"/>
      <point x="407.8125" y="490.0"/>
      <point x="450.0" y="450.0"/>
      <point x="450" y="345" type="curve" smooth="yes"/>
      <point x="450.0" y="245.0"/>
      <point x="417.3333333333333" y="190.0"/>
      <point x="380" y="190" type="curve" smooth="yes"/>
      <point x="350" y="190"/>
      <point x="325" y="215"/>
      <point x="330" y="255" type="curve"/>
      <point x="345" y="340" type="line"/>
      <point x="345" y="265" type="line" smooth="yes"/>
      <point x="345" y="240.0"/>
      <point x="356.6666666666667" y="220.0"/>
      <point x="380" y="220" type="curve" smooth="yes"/>
      <point x="414.2857142857143" y="220.0"/>
      <point x="420.0" y="290.0"/>
      <point x="420" y="345" type="curve" smooth="yes"/>
      <point x="420.0" y="405.0"/>
      <point x="397.77777777777777" y="460.0"/>
      <point x="370" y="460" type="curve" smooth="yes"/>
      <point x="351.25" y="460.0"/>
      <point x="345" y="445.0"/>
      <point x="345" y="425" type="curve" smooth="yes"/>
      <point x="345" y="355" type="line"/>
      <point x="325" y="415" type="line"/>
    </contour>
    <contour>
      <point x="435" y="385" type="line"/>
      <point x="440" y="425"/>
      <point x="445" y="450"/>
      <point x="480" y="450" type="curve" smooth="yes"/>
      <point x="505" y="450"/>
      <point x="555" y="420"/>
      <point x="555" y="320" type="curve" smooth="yes"/>
      <point x="555" y="230"/>
      <point x="515" y="180"/>
      <point x="480" y="180" type="curve" smooth="yes"/>
      <point x="445" y="180"/>
      <point x="430" y="205"/>
      <point x="430" y="270" type="curve"/>
      <point x="450" y="345" type="line"/>
      <point x="450" y="260" type="line" smooth="yes"/>
      <point x="450" y="235.0"/>
      <point x="450.0" y="210.0"/>
      <point x="480" y="210" type="curve" smooth="yes"/>
      <point x="510.0" y="210.0"/>
      <point x="525.0" y="276.0"/>
      <point x="525" y="320" type="curve" smooth="yes"/>
      <point x="525.0" y="375.55555555555554"/>
      <point x="500.0" y="420.0"/>
      <point x="475" y="420" type="curve" smooth="yes"/>
      <point x="450.0" y="420.0"/>
      <point x="450" y="390.0"/>
      <point x="450" y="365" type="curve" smooth="yes"/>
      <point x="450" y="345" type="line"/>
    </contour>
    <contour>
      <point x="510" y="0" type="curve"/>
      <point x="480" y="-25"/>
      <point x="405" y="-45"/>
      <point x="325" y="-45" type="curve" smooth="yes"/>
      <point x="255" y="-45"/>
      <point x="185" y="-30"/>
      <point x="145" y="5" type="curve" smooth="yes"/>
      <point x="80" y="70"/>
      <point x="40" y="220"/>
      <point x="40" y="250" type="curve" smooth="yes"/>
      <point x="40" y="290"/>
      <point x="50" y="320"/>
      <point x="150" y="380" type="curve"/>
      <point x="195" y="410"/>
      <point x="260" y="430"/>
      <point x="285" y="405" type="curve" smooth="yes"/>
      <point x="305" y="385"/>
      <point x="305" y="345"/>
      <point x="225" y="265" type="curve"/>
      <point x="210" y="250" type="line" smooth="yes"/>
      <point x="185" y="225"/>
      <point x="165" y="235"/>
      <point x="160" y="245" type="curve"/>
      <point x="250" y="330"/>
      <point x="279.89840978616485" y="370.10159021383515"/>
      <point x="260" y="390" type="curve" smooth="yes"/>
      <point x="250" y="400"/>
      <point x="215" y="390"/>
      <point x="160" y="350" type="curve" smooth="yes"/>
      <point x="85" y="295"/>
      <point x="70" y="280"/>
      <point x="70" y="250" type="curve"/>
      <point x="70" y="220"/>
      <point x="110" y="100"/>
      <point x="155" y="30" type="curve"/>
      <point x="200" y="60"/>
      <point x="270" y="80"/>
      <point x="340" y="80" type="curve" smooth="yes"/>
      <point x="395" y="80"/>
      <point x="455" y="65"/>
      <point x="495" y="35" type="curve"/>
      <point x="505" y="90"/>
      <point x="510" y="170"/>
      <point x="500" y="205" type="curve"/>
      <point x="525" y="215" type="line"/>
      <point x="540" y="160"/>
      <point x="540" y="60"/>
    </contour>
    <contour>
      <point x="385" y="20" type="curve" smooth="yes"/>
      <point x="385.0" y="35.0"/>
      <point x="378.57142857142856" y="45.0"/>
      <point x="340" y="45" type="curve"/>
      <point x="291.1111111111111" y="45.0"/>
      <point x="285.0" y="35.0"/>
      <point x="285" y="20" type="curve" smooth="yes"/>
      <point x="285.0" y="10.0"/>
      <point x="291.1111111111111" y="-5.0"/>
      <point x="340" y="-5" type="curve"/>
      <point x="378.57142857142856" y="-5.0"/>
      <point x="385.0" y="10.0"/>
    </contour>
  </outline>
</glyph>
<glyph name="clockwisearrows" format="1">
  <advance width="1200"/>
  <unicode hex="1F502"/>
  <outline>
    <contour>
      <point x="915" y="25" type="line"/>
      <point x="915" y="75" type="line"/>
      <point x="640" y="75" type="line"/>
      <point x="415" y="65" type="line"/>
      <point x="415" y="35" type="line"/>
      <point x="640" y="25" type="line"/>
    </contour>
    <contour>
      <point x="390" y="65" type="line"/>
      <point x="390" y="40" type="line"/>
      <point x="450" y="55" type="line"/>
      <point x="445" y="60" type="line"/>
      <point x="545" y="150" type="line"/>
      <point x="610" y="210" type="line"/>
      <point x="610" y="225" type="line"/>
      <point x="550" y="225" type="line"/>
    </contour>
    <contour>
      <point x="390" y="35" type="line"/>
      <point x="625" y="-200" type="line"/>
      <point x="685" y="-200" type="line"/>
      <point x="685" y="-185" type="line"/>
      <point x="545" y="-50" type="line"/>
      <point x="445" y="40" type="line"/>
      <point x="450" y="45" type="line"/>
      <point x="450" y="70" type="line"/>
      <point x="390" y="60" type="line"/>
    </contour>
    <contour>
      <point x="1145" y="280" type="line" smooth="yes"/>
      <point x="1145" y="420"/>
      <point x="1095" y="475"/>
      <point x="925" y="475" type="curve"/>
      <point x="885" y="475" type="line"/>
      <point x="885" y="425" type="line"/>
      <point x="905" y="425" type="line" smooth="yes"/>
      <point x="1070" y="425"/>
      <point x="1095" y="400"/>
      <point x="1095" y="250" type="curve"/>
      <point x="1145" y="250" type="line"/>
    </contour>
    <contour>
      <point x="1145" y="220" type="curve" smooth="yes"/>
      <point x="1145" y="250" type="line"/>
      <point x="1095" y="250" type="line"/>
      <point x="1095" y="100"/>
      <point x="1070" y="75"/>
      <point x="905" y="75" type="curve" smooth="yes"/>
      <point x="885" y="75" type="line"/>
      <point x="885" y="25" type="line"/>
      <point x="925" y="25" type="line"/>
      <point x="1095" y="25"/>
      <point x="1145" y="80"/>
    </contour>
    <contour>
      <point x="285" y="475" type="line"/>
      <point x="285" y="425" type="line"/>
      <point x="560" y="425" type="line"/>
      <point x="785" y="435" type="line"/>
      <point x="785" y="465" type="line"/>
      <point x="560" y="475" type="line"/>
    </contour>
    <contour>
      <point x="810" y="435" type="line"/>
      <point x="810" y="460" type="line"/>
      <point x="750" y="445" type="line"/>
      <point x="755" y="440" type="line"/>
      <point x="655" y="350" type="line"/>
      <point x="590" y="290" type="line"/>
      <point x="590" y="275" type="line"/>
      <point x="650" y="275" type="line"/>
    </contour>
    <contour>
      <point x="810" y="465" type="line"/>
      <point x="575" y="700" type="line"/>
      <point x="515" y="700" type="line"/>
      <point x="515" y="685" type="line"/>
      <point x="655" y="550" type="line"/>
      <point x="755" y="460" type="line"/>
      <point x="750" y="455" type="line"/>
      <point x="750" y="430" type="line"/>
      <point x="810" y="440" type="line"/>
    </contour>
    <contour>
      <point x="55" y="220" type="line" smooth="yes"/>
      <point x="55" y="80"/>
      <point x="105" y="25"/>
      <point x="275" y="25" type="curve"/>
      <point x="315" y="25" type="line"/>
      <point x="315" y="75" type="line"/>
      <point x="295" y="75" type="line" smooth="yes"/>
      <point x="130" y="75"/>
      <point x="105" y="100"/>
      <point x="105" y="250" type="curve"/>
      <point x="55" y="250" type="line"/>
    </contour>
    <contour>
      <point x="55" y="280" type="curve" smooth="yes"/>
      <point x="55" y="250" type="line"/>
      <point x="105" y="250" type="line"/>
      <point x="105" y="400"/>
      <point x="130" y="425"/>
      <point x="295" y="425" type="curve" smooth="yes"/>
      <point x="315" y="425" type="line"/>
      <point x="315" y="475" type="line"/>
      <point x="275" y="475" type="line"/>
      <point x="105" y="475"/>
      <point x="55" y="420"/>
    </contour>
    <contour>
      <point x="685.0" y="250.0" type="move" name="top"/>
    </contour>
  </outline>
</glyph>
<glyph name="A.small" format="1">
  <advance width="600"/>
  <outline>
    <contour>
      <point x="500" y="200" type="curve"/>
      <point x="500" y="250" type="line"/>
      <point x="410" y="225"/>
      <point x="190" y="225"/>
      <point x="100" y="250" type="curve"/>
      <point x="100" y="200" type="line"/>
      <point x="220" y="180"/>
      <point x="385" y="180"/>
    </contour>
    <contour>
      <point x="275" y="500" type="line"/>
      <point x="120" y="420"/>
      <point x="75" y="305"/>
      <point x="75" y="150" type="curve" smooth="yes"/>
      <point x="75" y="0" type="line"/>
      <point x="125" y="0" type="line"/>
      <point x="125" y="150" type="line" smooth="yes"/>
      <point x="125" y="323.333333333"/>
      <point x="170.433993169" y="400.203434298"/>
      <point x="330" y="475" type="curve"/>
    </contour>
    <contour>
      <point x="325" y="500" type="curve"/>
      <point x="275" y="500" type="line"/>
      <point x="270" y="475" type="line"/>
      <point x="429.566006831" y="400.203434298"/>
      <point x="475" y="323.333333333"/>
      <point x="475" y="150" type="curve" smooth="yes"/>
      <point x="475" y="0" type="line"/>
      <point x="525" y="0" type="line"/>
      <point x="525" y="150" type="line" smooth="yes"/>
      <point x="525" y="305"/>
      <point x="480" y="420"/>
    </contour>
    <contour>
      <point x="300.0" y="450.0" type="move" name="top"/>
    </contour>
  </outline>
</glyph>
<glyph name="D.small" format="1">
  <advance width="600"/>
  <outline>
    <contour>
      <point x="125" y="0" type="line"/>
      <point x="125" y="500" type="line"/>
      <point x="75" y="500" type="line"/>
      <point x="75" y="0" type="line"/>
    </contour>
    <contour>
      <point x="330" y="500" type="curve" smooth="yes"/>
      <point x="110" y="500" type="line"/>
      <point x="110" y="450" type="line"/>
      <point x="300" y="450" type="line"/>
      <point x="430.0" y="450.0"/>
      <point x="475" y="422.857142857"/>
      <point x="475" y="260" type="curve" smooth="yes"/>
      <point x="475" y="250" type="line"/>
      <point x="525" y="250" type="line"/>
      <point x="525" y="280" type="line"/>
      <point x="525.0" y="430.0"/>
      <point x="460" y="500"/>
    </contour>
    <contour>
      <point x="330.0" y="0.0" type="line" smooth="yes"/>
      <point x="460" y="0"/>
      <point x="525.0" y="70.0"/>
      <point x="525" y="220" type="curve"/>
      <point x="525" y="250" type="line"/>
      <point x="475" y="250" type="line"/>
      <point x="475" y="240" type="line" smooth="yes"/>
      <point x="475" y="77.1428571429"/>
      <point x="430.0" y="50.0"/>
      <point x="300" y="50" type="curve"/>
      <point x="110" y="50" type="line"/>
      <point x="110" y="0" type="line"/>
    </contour>
  </outline>
</glyph>
<glyph name="F.small" format="1">
  <advance width="600"/>
  <outline>
    <contour>
      <point x="75" y="0" type="line"/>
      <point x="125" y="0" type="line"/>
      <point x="125" y="500" type="line"/>
      <point x="75" y="500" type="line"/>
    </contour>
    <contour>
      <point x="125" y="450" type="line"/>
      <point x="550" y="450" type="line"/>
      <point x="550" y="500" type="line"/>
      <point x="125" y="500" type="line"/>
    </contour>
    <contour>
      <point x="125" y="200" type="line"/>
      <point x="500" y="200" type="line"/>
      <point x="500" y="250" type="line"/>
      <point x="125" y="250" type="line"/>
    </contour>
  </outline>
</glyph>
